<svg xmlns:dc="http://purl.org/dc/elements/1.1/" xmlns:cc="http://creativecommons.org/ns#" xmlns:rdf="http://www.w3.org/1999/02/22-rdf-syntax-ns#" xmlns:svg="http://www.w3.org/2000/svg" xmlns="http://www.w3.org/2000/svg" xmlns:sodipodi="http://sodipodi.sourceforge.net/DTD/sodipodi-0.dtd" xmlns:inkscape="http://www.inkscape.org/namespaces/inkscape" id="Capa_1" x="0px" y="0px" viewBox="0 0 512 512" style="enable-background:new 0 0 512 512;" xml:space="preserve" sodipodi:docname="AngularJS-Shield.svg" inkscape:version="0.92.4 (5da689c313, 2019-01-14)"><metadata id="metadata13827"></metadata><defs id="defs13825">
	
	
	
	
</defs>


<g id="g13792">
</g>
<g id="g13794">
</g>
<g id="g13796">
</g>
<g id="g13798">
</g>
<g id="g13800">
</g>
<g id="g13802">
</g>
<g id="g13804">
</g>
<g id="g13806">
</g>
<g id="g13808">
</g>
<g id="g13810">
</g>
<g id="g13812">
</g>
<g id="g13814">
</g>
<g id="g13816">
</g>
<g id="g13818">
</g>
<g id="g13820">
</g>
<g id="g12" transform="matrix(0.17633669,0,0,-0.17633669,-246.65897,905.7371)"><path d="m 2850,5093.75 -1339.23,-471.3 211.62,-1754.63 1129.03,-620.54 1134.85,628.95 211.55,1754.56 z" style="fill:#b3b3b3;fill-opacity:1;fill-rule:nonzero;stroke:none" id="path14" inkscape:connector-curvature="0"></path><path d="M 4064.25,4529.39 2846.87,4944.52 V 2395.54 l 1020.22,564.62 z" style="fill:#af2b2d;fill-opacity:1;fill-rule:nonzero;stroke:none" id="path16" inkscape:connector-curvature="0"></path><path d="M 1661.05,4521.89 1842.39,2952.67 2846.86,2395.54 V 4944.57 Z" style="fill:#df2e31;fill-opacity:1;fill-rule:nonzero;stroke:none" id="path18" inkscape:connector-curvature="0"></path><path d="m 3129.05,3676.7 -279.96,584.64 -246.46,-584.64 z m 106.74,-245.83 h -742.11 l -166.02,-415.26 -308.82,-5.71 828.04,1842.06 856.9,-1842.06 h -286.23 z" style="fill:#f2f2f2;fill-opacity:1;fill-rule:nonzero;stroke:none" id="path20" inkscape:connector-curvature="0"></path><path d="m 2846.87,4851.96 2.21,-590.62 279.67,-585.09 H 2847.5 l -0.63,-245 388.9,-0.38 181.77,-421.04 295.49,-5.48 z" style="fill:#b3b3b3;fill-opacity:1;fill-rule:nonzero;stroke:none" id="path22" inkscape:connector-curvature="0"></path></g></svg>