<?xml version="1.0" encoding="UTF-8" standalone="no"?>
<svg
   xmlns:dc="http://purl.org/dc/elements/1.1/"
   xmlns:cc="http://creativecommons.org/ns#"
   xmlns:rdf="http://www.w3.org/1999/02/22-rdf-syntax-ns#"
   xmlns:svg="http://www.w3.org/2000/svg"
   xmlns="http://www.w3.org/2000/svg"
   xmlns:sodipodi="http://sodipodi.sourceforge.net/DTD/sodipodi-0.dtd"
   xmlns:inkscape="http://www.inkscape.org/namespaces/inkscape"
   id="Capa_1"
   x="0px"
   y="0px"
   viewBox="0 0 25.913 25.913"
   style="enable-background:new 0 0 25.913 25.913;"
   xml:space="preserve"
   version="1.1"
   sodipodi:docname="icon.svg"
   inkscape:version="0.92.4 (5da689c313, 2019-01-14)"><metadata
   id="metadata955"><rdf:RDF><cc:Work
       rdf:about=""><dc:format>image/svg+xml</dc:format><dc:type
         rdf:resource="http://purl.org/dc/dcmitype/StillImage" /><dc:title></dc:title></cc:Work></rdf:RDF></metadata><defs
   id="defs953" /><sodipodi:namedview
   pagecolor="#ffffff"
   bordercolor="#666666"
   borderopacity="1"
   objecttolerance="10"
   gridtolerance="10"
   guidetolerance="10"
   inkscape:pageopacity="0"
   inkscape:pageshadow="2"
   inkscape:window-width="1366"
   inkscape:window-height="705"
   id="namedview951"
   showgrid="false"
   inkscape:zoom="9.1073978"
   inkscape:cx="12.9565"
   inkscape:cy="12.9565"
   inkscape:window-x="-8"
   inkscape:window-y="-8"
   inkscape:window-maximized="1"
   inkscape:current-layer="Capa_1" />
<g
   id="g918"
   transform="matrix(0.9661017,0,0,0.9661017,0.32940254,0.32987712)">
	<path
   style="fill:#030104"
   d="m 0.033,3.481 c 0,-1.913 1.551,-3.467 3.466,-3.467 1.723,0.002 3.153,1.259 3.421,2.906 1.87,-0.439 3.917,0.071 5.375,1.529 l 0.199,0.2 L 9.936,7.207 9.738,7.008 C 8.908,6.178 7.562,6.178 6.731,7.009 5.898,7.841 5.899,9.191 6.727,10.019 l 0.501,0.5 2.558,2.556 2.706,2.704 L 9.936,18.338 7.228,15.632 4.669,13.075 4.17,12.576 C 2.624,11.03 2.146,8.822 2.732,6.864 1.187,6.515 0.033,5.134 0.033,3.481 Z m 7.498,6.734 2.558,2.557 2.707,-2.703 2.558,-2.557 0.5,-0.499 c 0.833,-0.833 2.176,-0.832 3.003,-0.004 0.83,0.829 0.83,2.176 -10e-4,3.006 l -0.197,0.199 2.557,2.558 0.199,-0.2 c 1.529,-1.531 2.016,-3.709 1.457,-5.652 1.699,-0.223 3.01,-1.677 3.01,-3.438 10e-4,-1.914 -1.551,-3.467 -3.466,-3.467 -1.752,0 -3.201,1.301 -3.435,2.989 -1.95,-0.572 -4.145,-0.088 -5.684,1.45 l -0.5,0.498 -2.559,2.558 z m 15.403,8.784 c 0.459,-1.882 -0.049,-3.952 -1.52,-5.422 l -0.502,-0.503 -2.557,-2.558 -2.699,-2.702 -2.559,2.556 2.701,2.704 2.557,2.558 0.5,0.501 c 0.834,0.834 0.832,2.177 0.005,3.004 -0.83,0.83 -2.177,0.83 -3.007,-0.001 L 15.656,18.94 13.1,21.5 l 0.196,0.195 c 1.557,1.556 3.786,2.032 5.754,1.428 0.319,1.584 1.719,2.775 3.396,2.775 1.914,0 3.467,-1.552 3.467,-3.467 0.001,-1.749 -1.294,-3.196 -2.979,-3.432 z m -4.881,-3.064 -2.557,-2.558 -2.701,2.704 -2.557,2.557 -0.5,0.501 C 8.91,19.968 7.561,19.969 6.728,19.136 5.898,18.305 5.897,16.96 6.727,16.129 L 6.925,15.933 4.366,13.377 4.17,13.571 C 2.683,15.058 2.182,17.157 2.666,19.055 1.138,19.415 0,20.789 0,22.429 c 0,1.914 1.552,3.467 3.467,3.467 1.647,-0.002 3.026,-1.148 3.379,-2.689 1.89,0.469 3.973,-0.033 5.45,-1.51 l 0.501,-0.502 2.556,-2.56 z"
   id="path916"
   inkscape:connector-curvature="0" />
</g>
<g
   id="g920">
</g>
<g
   id="g922">
</g>
<g
   id="g924">
</g>
<g
   id="g926">
</g>
<g
   id="g928">
</g>
<g
   id="g930">
</g>
<g
   id="g932">
</g>
<g
   id="g934">
</g>
<g
   id="g936">
</g>
<g
   id="g938">
</g>
<g
   id="g940">
</g>
<g
   id="g942">
</g>
<g
   id="g944">
</g>
<g
   id="g946">
</g>
<g
   id="g948">
</g>
</svg>