<svg xmlns:dc="http://purl.org/dc/elements/1.1/" xmlns:cc="http://creativecommons.org/ns#" xmlns:rdf="http://www.w3.org/1999/02/22-rdf-syntax-ns#" xmlns:svg="http://www.w3.org/2000/svg" xmlns="http://www.w3.org/2000/svg" xmlns:sodipodi="http://sodipodi.sourceforge.net/DTD/sodipodi-0.dtd" xmlns:inkscape="http://www.inkscape.org/namespaces/inkscape" id="Capa_1" x="0px" y="0px" viewBox="0 0 512 512" style="enable-background:new 0 0 512 512;" xml:space="preserve" sodipodi:docname="nodejs.svg" inkscape:version="0.92.4 (5da689c313, 2019-01-14)"><metadata id="metadata13677"></metadata><defs id="defs13675"></defs>









<g id="g13640" transform="matrix(3.7311531,0,0,3.7311531,-693.80397,-1114.5783)">
	<path style="fill:#66a060" d="m 282.149,358.717 c 0,0 -1.132,-9.729 -11.539,-9.729 -10.408,0 -17.534,1.357 -17.534,7.127 0,5.77 20.25,5.77 27.943,8.032 7.693,2.262 14.48,8.145 11.086,18.553 -3.394,10.408 -13.802,11.539 -29.866,11.539 -16.064,0 -19.685,-13.35 -19.685,-18.553 h 9.05 c 0,0 -1.132,8.145 9.502,9.502 10.634,1.357 20.802,2.121 22.173,-6.108 1.81,-10.861 -34.391,-5.43 -37.559,-16.064 -2.676,-8.985 -1.132,-20.815 16.969,-22.626 18.101,-1.811 28.056,6.181 28.056,18.101 z" id="path13636" inkscape:connector-curvature="0"></path>
	<path style="fill:#66a060" d="m 194.723,401.131 20.008,11.551 c 10.053,5.804 22.619,-1.451 22.619,-13.059 v -20.242 -37.253 h -8.155 v 55.227 c 0,6.339 -6.862,10.302 -12.353,7.131 l -13.965,-8.062 v -58.94 l 51.043,-29.467 51.043,29.467 v 58.94 l -51.043,29.467 -14.704,-8.489 -9.602,3.872 24.305,14.033 59.198,-34.179 V 332.777 L 253.92,298.6 194.722,332.779 v 68.352 z" id="path13638" inkscape:connector-curvature="0"></path>
</g>
<g id="g13642">
</g>
<g id="g13644">
</g>
<g id="g13646">
</g>
<g id="g13648">
</g>
<g id="g13650">
</g>
<g id="g13652">
</g>
<g id="g13654">
</g>
<g id="g13656">
</g>
<g id="g13658">
</g>
<g id="g13660">
</g>
<g id="g13662">
</g>
<g id="g13664">
</g>
<g id="g13666">
</g>
<g id="g13668">
</g>
<g id="g13670">
</g>
</svg>