<svg xmlns:dc="http://purl.org/dc/elements/1.1/" xmlns:cc="http://creativecommons.org/ns#" xmlns:rdf="http://www.w3.org/1999/02/22-rdf-syntax-ns#" xmlns:svg="http://www.w3.org/2000/svg" xmlns="http://www.w3.org/2000/svg" xmlns:sodipodi="http://sodipodi.sourceforge.net/DTD/sodipodi-0.dtd" xmlns:inkscape="http://www.inkscape.org/namespaces/inkscape" id="Capa_1" x="0px" y="0px" viewBox="0 0 512 512" style="enable-background:new 0 0 512 512;" xml:space="preserve" sodipodi:docname="react.svg" inkscape:version="0.92.4 (5da689c313, 2019-01-14)"><metadata id="metadata13827"></metadata><defs id="defs13825">
	
	
	
	
</defs>

<path inkscape:connector-curvature="0" id="path13782" d="m 412.24884,365.18746 c -1.202,-8.056 -2.79,-16.353 -4.754,-24.837 -1.735,-7.45 -3.751,-15.047 -6.039,-22.758 -6.019,-20.25 -13.949,-41.294 -23.562,-62.568 -4.211,-9.3 -8.746,-18.641 -13.584,-27.972 -4.263,-8.223 -8.756,-16.457 -13.49,-24.639 -4.723,-8.192 -9.592,-16.196 -14.597,-24.001 -5.653,-8.85 -11.473,-17.439 -17.429,-25.736 -13.605,-18.965 -27.867,-36.362 -42.402,-51.702 -5.527,-5.840995 -11.097,-11.378995 -16.687,-16.592995 -6.363,-5.956 -12.758,-11.483 -19.143,-16.551 -41.681,-33.092005 -78.994,-43.029005 -105.085,-27.972005 -26.09099,15.067 -36.142994,52.349005 -28.32699,105.002 1.191,8.056 2.79,16.353 4.765,24.837 1.71399,7.45 3.72999,15.047 6.02899,22.758 6.019,20.25 13.949,41.305 23.573,62.568 4.201,9.3 8.735,18.63 13.573,27.961 4.263,8.234 8.767,16.457 13.49,24.649 4.723,8.192 9.592,16.196 14.597,24.001 5.663,8.861 11.483,17.45 17.429,25.746 13.605,18.965 27.867,36.352 42.402,51.691 5.528,5.841 11.107,11.389 16.697,16.603 6.363,5.956 12.758,11.473 19.132,16.541 15.329,12.173 30.062,21.211 43.865,27.011 32.726,-8.276 62.945,-22.862 89.286,-42.381 3.677,-16.947 3.813,-37.709 0.261,-61.658 z m -23.469,57.856 c -3.041,13.145 -8.631,22.152 -16.624,26.76 -7.983,4.618 -18.578,4.953 -31.483,1.024 -13.981,-4.274 -30.302,-13.615 -47.208,-27.042 -5.684,-4.514 -11.379,-9.425 -17.074,-14.702 -5.58,-5.183 -11.16,-10.721 -16.697,-16.583 -9.509,-10.062 -18.913,-21.076 -28.087,-32.893 -6.123,-7.889 -12.152,-16.133 -18.035,-24.691 -8.537,-12.403 -16.781,-25.464 -24.618,-39.048 -7.847,-13.584 -15.036,-27.251 -21.504,-40.845 -4.472,-9.373 -8.6,-18.714 -12.361,-27.961 -5.653,-13.855 -10.491,-27.512 -14.451,-40.772 -2.299,-7.732 -4.315,-15.318 -5.998,-22.747 -1.735,-7.565 -3.145,-14.963 -4.211,-22.141 -3.176,-21.347 -3.103,-40.155 0.188,-54.396995 3.041,-13.145 8.641,-22.152 16.624,-26.760005 4.315,-2.487 9.383,-3.741 15.161,-3.741 4.932,0 10.386,0.909 16.321,2.727 13.981,4.263005 30.302,13.615005 47.208,27.032005 5.684,4.514 11.389,9.425 17.074,14.722995 5.59,5.172 11.16,10.71 16.687,16.562 9.519,10.062 18.923,21.076 28.108,32.904 6.123,7.889 12.152,16.133 18.035,24.691 8.526,12.403 16.771,25.464 24.607,39.037 7.847,13.584 15.036,27.251 21.504,40.845 4.472,9.383 8.6,18.725 12.361,27.972 5.653,13.855 10.491,27.502 14.451,40.761 2.299,7.732 4.315,15.318 6.008,22.747 1.724,7.565 3.135,14.963 4.201,22.141 3.178,21.347 3.105,40.155 -0.187,54.397 z" style="fill:#5adafd;fill-opacity:1"></path><path inkscape:connector-curvature="0" id="path13784" d="m 431.38084,178.00446 c -7.576,-2.988 -15.559,-5.757 -23.897,-8.307 -7.314,-2.226 -14.9,-4.284 -22.727,-6.154 -20.543,-4.911 -42.736,-8.568 -65.964,-10.867 -10.146,-1.014 -20.501,-1.755 -30.992,-2.226 -9.258,-0.428 -18.641,-0.648 -28.097,-0.648 -9.456,0 -18.84,0.219 -28.108,0.648 -10.501,0.47 -20.856,1.223 -31.002,2.226 -23.228,2.299 -45.411,5.956 -65.954,10.867 -7.826,1.87 -15.412,3.929 -22.72699,6.154 -8.338,2.539 -16.321004,5.319 -23.897004,8.307 -49.496,19.539 -76.768,46.895 -76.768,77.019 0,30.124 27.272,57.48 76.769,77.03 7.576,2.988 15.548004,5.757 23.886004,8.307 7.31399,2.226 14.89999,4.284 22.72699,6.144 20.543,4.921 42.736,8.568 65.975,10.877 10.146,1.003 20.501,1.745 31.002,2.226 9.258,0.428 18.641,0.637 28.097,0.637 9.456,0 18.829,-0.209 28.087,-0.637 10.501,-0.481 20.846,-1.223 31.002,-2.226 23.228,-2.299 45.432,-5.956 65.975,-10.877 7.826,-1.87 15.412,-3.918 22.727,-6.154 8.328,-2.539 16.311,-5.308 23.886,-8.297 49.507,-19.55 76.769,-46.905 76.769,-77.03 -10e-4,-30.124 -27.262,-57.48 -76.769,-77.019 z m 38.368,104.792 c -10.679,9.979 -26.937,19.435 -47.01,27.366 -6.76,2.664 -13.866,5.151 -21.285,7.429 -7.283,2.247 -14.858,4.305 -22.695,6.165 -13.469,3.208 -27.711,5.841 -42.538,7.879 -9.885,1.369 -20.031,2.466 -30.386,3.271 -15.015,1.202 -30.448,1.808 -46.132,1.808 -15.684,0 -31.117,-0.606 -46.132,-1.797 -10.355,-0.815 -20.511,-1.912 -30.396,-3.281 -14.827,-2.038 -29.069,-4.671 -42.538,-7.879 -7.837,-1.86 -15.412,-3.918 -22.695,-6.165 -7.41899,-2.278 -14.52399,-4.765 -21.284994,-7.429 -20.072,-7.931 -36.331,-17.387 -47.01,-27.366 -9.864,-9.206 -14.869,-18.547 -14.869,-27.773 0,-9.226 5.005,-18.568 14.869,-27.773 10.679,-9.979 26.937,-19.435 47.01,-27.366 6.760004,-2.664 13.866004,-5.151 21.284994,-7.429 7.283,-2.247 14.858,-4.305 22.695,-6.165 13.469,-3.208 27.711,-5.841 42.538,-7.879 9.885,-1.369 20.041,-2.466 30.396,-3.281 15.015,-1.191 30.448,-1.797 46.132,-1.797 15.684,0 31.117,0.606 46.132,1.808 10.355,0.805 20.501,1.902 30.386,3.271 14.827,2.038 29.069,4.671 42.538,7.879 7.837,1.86 15.412,3.918 22.695,6.165 7.419,2.278 14.524,4.765 21.285,7.429 20.072,7.931 36.331,17.387 47.01,27.366 9.864,9.206 14.869,18.547 14.869,27.773 0,9.225 -5.005,18.566 -14.869,27.771 z" style="fill:#5adafd;fill-opacity:1"></path><path inkscape:connector-curvature="0" id="path13786" d="m 383.92084,39.85846 c -26.091,-15.057 -63.404,-5.12 -105.085,27.972005 -6.374,5.068 -12.769,10.595 -19.132,16.551 -5.59,5.214 -11.17,10.762 -16.697,16.602995 -14.535,15.339 -28.797,32.726 -42.412,51.691 -5.945,8.296 -11.766,16.886 -17.418,25.736 -5.005,7.805 -9.874,15.809 -14.597,24.001 -4.723,8.192 -9.226,16.415 -13.49,24.649 -4.838,9.331 -9.373,18.672 -13.573,27.961 -9.624,21.274 -17.554,42.318 -23.573,62.568 -2.299,7.722 -4.315,15.318 -6.03999,22.768 -1.964,8.485 -3.563,16.771 -4.754,24.827 -3.553,23.939 -3.417,44.701 0.261,61.649 26.34199,19.529 56.55999,34.116 89.28699,42.392 13.803,-5.799 28.536,-14.838 43.865,-27.011 6.384,-5.068 12.779,-10.595 19.143,-16.541 5.59,-5.214 11.16,-10.752 16.687,-16.593 14.524,-15.339 28.797,-32.737 42.402,-51.702 5.945,-8.297 11.766,-16.886 17.429,-25.746 5.005,-7.805 9.874,-15.809 14.597,-24.001 4.733,-8.182 9.226,-16.405 13.49,-24.639 4.838,-9.331 9.373,-18.672 13.584,-27.972 9.613,-21.264 17.544,-42.318 23.562,-62.568 2.288,-7.711 4.305,-15.308 6.029,-22.758 1.975,-8.485 3.563,-16.781 4.765,-24.837 7.813,-52.650995 -2.238,-89.933 -28.33,-105 z m -5.161,146.432 c -3.96,13.26 -8.798,26.906 -14.451,40.761 -3.762,9.247 -7.889,18.589 -12.361,27.972 -6.468,13.594 -13.657,27.261 -21.504,40.845 -7.837,13.573 -16.081,26.634 -24.607,39.037 -5.893,8.568 -11.922,16.812 -18.045,24.701 -9.174,11.818 -18.578,22.831 -28.097,32.893 -5.527,5.851 -11.097,11.389 -16.687,16.572 -5.684,5.287 -11.389,10.198 -17.074,14.712 -16.906,13.427 -33.228,22.768 -47.208,27.042 -12.904,3.929 -23.5,3.594 -31.483,-1.024 -7.983,-4.608 -13.584,-13.615 -16.624,-26.76 -3.291,-14.242 -3.365,-33.05 -0.188,-54.397 1.066,-7.178 2.476,-14.576 4.2,-22.141 1.693,-7.429 3.709,-15.015 6.008,-22.747 3.96,-13.26 8.798,-26.917 14.451,-40.772 3.762,-9.247 7.889,-18.589 12.361,-27.961 6.468,-13.594 13.657,-27.261 21.504,-40.845 7.837,-13.584 16.081,-26.645 24.618,-39.048 5.883,-8.558 11.901,-16.802 18.024,-24.68 9.185,-11.828 18.589,-22.841 28.097,-32.904 5.538,-5.862 11.118,-11.4 16.697,-16.572 5.695,-5.286995 11.389,-10.197995 17.074,-14.711995 16.906,-13.416 33.228,-22.768 47.208,-27.032005 5.935,-1.818 11.389,-2.727 16.321,-2.727 5.778,0 10.856,1.254 15.161,3.741 7.993,4.608005 13.584,13.615005 16.624,26.760005 3.291,14.241995 3.365,33.049995 0.188,54.396995 -1.066,7.178 -2.476,14.576 -4.211,22.141 -1.681,7.429 -3.698,15.015 -5.996,22.748 z" style="fill:#5adafd;fill-opacity:1"></path><circle id="circle13788" r="46.695999" cy="255.02347" cx="259.70386" style="fill:#5adafd;fill-opacity:1"></circle>
<g id="g13792">
</g>
<g id="g13794">
</g>
<g id="g13796">
</g>
<g id="g13798">
</g>
<g id="g13800">
</g>
<g id="g13802">
</g>
<g id="g13804">
</g>
<g id="g13806">
</g>
<g id="g13808">
</g>
<g id="g13810">
</g>
<g id="g13812">
</g>
<g id="g13814">
</g>
<g id="g13816">
</g>
<g id="g13818">
</g>
<g id="g13820">
</g>
<path style="fill:#5adafd;fill-opacity:1" d="m 413.52681,363.39131 c -1.29507,-8.04032 -2.98613,-16.31897 -5.04666,-24.79121 -1.81679,-7.42624 -3.91683,-15.00071 -6.30152,-22.68654 -6.25641,-20.174 -14.43312,-41.12738 -24.30584,-62.27815 -4.30398,-9.24366 -8.94939,-18.5278 -13.8964,-27.79117 -4.35496,-8.18096 -8.95259,-16.36331 -13.77668,-24.49621 -4.82409,-8.1329 -9.7998,-16.09215 -14.89696,-23.8445 C 329.54131,168.71162 323.61094,160.18966 317.57218,151.975 303.74483,133.16995 289.2826,115.95649 274.5785,100.79331 268.97763,95.016345 263.33664,89.542205 257.69114,84.385845 251.25367,78.509815 244.79003,73.062055 238.35513,68.070465 196.29909,35.468071 158.85765,25.967995 132.94865,41.336107 107.03965,56.70422 97.42447,94.116265 105.86141,146.66123 c 1.29507,8.04031 2.98052,16.3095 5.04105,24.78174 1.81679,7.42624 3.91683,15.0007 6.31012,22.68144 6.24781,20.1791 14.43312,41.12738 24.30285,62.29271 4.31344,9.23804 8.95799,18.5227 13.9015,27.79977 4.35496,8.18095 8.96205,16.35769 13.78614,24.4906 4.82409,8.1329 9.7856,16.08779 14.87679,23.83205 5.7709,8.78629 11.6867,17.30527 17.73057,25.52853 13.82735,18.80504 28.30029,36.03656 43.01299,51.19465 5.60087,5.77697 11.2324,11.25672 16.88737,16.40747 6.43237,5.86743 12.88654,11.3208 19.32179,16.31102 42.07112,32.60624 79.50659,42.09823 105.41646,26.72961 25.90849,-15.36897 35.52928,-52.77156 27.07777,-105.31951 z m -70.55546,86.46036 c -14.03074,-4.09388 -30.45785,-13.25295 -47.51961,-26.47121 -5.73994,-4.45506 -11.50416,-9.298 -17.24831,-14.51678 -5.64811,-5.11761 -11.28262,-10.5828 -16.88051,-16.37433 -9.6305,-9.9478 -19.16081,-20.85378 -28.47782,-32.56645 -6.22039,-7.80347 -12.34,-15.97018 -18.31509,-24.46561 -8.69389,-12.30086 -17.08842,-25.2653 -25.0898,-38.75477 -8.00138,-13.48947 -15.3535,-27.07222 -21.98922,-40.5939 -4.58176,-9.32189 -8.81946,-18.6165 -12.68496,-27.81679 -5.81133,-13.79209 -10.81246,-27.38458 -14.9247,-40.60558 -2.39839,-7.68934 -4.49283,-15.25434 -6.27574,-22.66463 -1.82563,-7.54306 -3.31131,-14.92269 -4.46926,-22.09676 -3.41869,-21.30958 -3.58051,-40.11769 -0.4458,-54.393365 2.88565,-13.18037 8.36628,-22.25048 16.30136,-26.957231 7.93509,-4.706752 18.5233,-5.16799 31.47256,-1.380215 14.03074,4.093876 30.45785,13.252936 47.51961,26.471206 5.73994,4.45506 11.50417,9.298 17.24831,14.516765 5.64811,5.11762 11.28262,10.5828 16.88051,16.37434 9.6305,9.9478 19.16081,20.85378 28.47782,32.56645 6.22039,7.80347 12.3451,15.97878 18.32879,24.46911 8.68443,12.30647 17.07897,25.27091 25.08034,38.76038 8.00138,13.48947 15.3535,27.07222 21.97976,40.59951 4.59036,9.31679 8.82296,18.6028 12.68846,27.80308 5.81133,13.7921 10.81247,27.38459 14.9247,40.60559 2.39839,7.68933 4.49283,15.25434 6.27574,22.66462 1.82563,7.54307 3.31131,14.9227 4.46927,22.09677 3.41868,21.30958 3.5805,40.11769 0.44579,54.39337 -2.88564,13.18037 -8.36628,22.25048 -16.30136,26.95723 -7.93422,4.70624 -18.52158,5.16697 -31.47084,1.3792 z" id="path13833" inkscape:connector-curvature="0"></path><path inkscape:connector-curvature="0" id="path13835" d="m 239.89477,442.14635 c 6.39361,-5.04436 12.80272,-10.55065 19.20113,-16.47391 5.60326,-5.20127 11.19816,-10.72212 16.75181,-16.54584 14.57886,-15.28365 28.90401,-32.62414 42.57619,-51.54231 5.98048,-8.25853 11.83016,-16.83503 17.51491,-25.6649 5.02732,-7.78588 9.93774,-15.78442 14.69476,-23.95674 4.75701,-8.17231 9.28854,-16.39257 13.58022,-24.61823 4.87653,-9.31189 9.43502,-18.63998 13.67231,-27.9132 9.69839,-21.23127 17.69741,-42.24257 23.78763,-62.46736 2.32087,-7.70432 4.35767,-15.29632 6.11467,-22.7376 2.00026,-8.48338 3.61366,-16.78119 4.84254,-24.83189 C 420.64431,92.788175 410.72167,55.456494 384.68711,40.302058 358.65255,25.147617 321.29054,34.9554 279.49413,67.898015 c -6.39361,5.04436 -12.79718,10.54114 -19.19559,16.4644 -5.60326,5.20127 -11.19815,10.72212 -16.74317,16.550865 -14.5875,15.27862 -28.90401,32.62414 -42.59037,51.54679 -5.97097,8.26406 -11.82152,16.84006 -17.51994,25.67353 -5.02731,7.78588 -9.92823,15.78996 -14.68525,23.96228 -4.75702,8.17231 -9.29165,16.37804 -13.57916,24.59455 -4.86702,9.31742 -9.43,18.63133 -13.67232,27.9132 -9.69838,21.23126 -17.70796,42.26071 -23.78955,62.49053 -2.32087,7.70433 -4.36718,15.29079 -6.11466,22.73762 -1.99523,8.47473 -3.61814,16.767 -4.84565,24.81734 -8.009393,52.62125 1.9174,89.94378 27.95283,105.09873 26.03506,15.15357 63.39154,5.35529 105.18347,-27.6015 z M 130.02691,422.58818 c -3.25204,-14.24941 -3.24546,-33.05734 -0.002,-54.3952 1.09839,-7.18248 2.52381,-14.57494 4.28733,-22.13278 1.72188,-7.4247 3.75401,-15.00668 6.08906,-22.71549 4.00333,-13.25438 8.89247,-26.88756 14.59013,-40.727 3.78969,-9.23177 7.94574,-18.55228 12.4593,-27.90653 6.51475,-13.58134 13.75488,-27.22412 21.64501,-40.77896 7.89012,-13.55484 16.17771,-26.5879 24.76061,-38.9654 5.91363,-8.53927 11.97088,-16.7647 18.12687,-24.61907 9.22033,-11.78893 18.66059,-22.77294 28.20893,-32.79964 5.55005,-5.83739 11.13941,-11.34874 16.74522,-16.51266 5.70101,-5.265835 11.4247,-10.155175 17.12831,-14.658175 16.95192,-13.35731 33.30363,-22.65208 47.30022,-26.861246 12.91853,-3.893678 23.50931,-3.520069 31.48284,1.12124 7.97354,4.641316 13.52947,13.666536 16.52259,26.822206 3.25205,14.249415 3.24547,33.057345 0.002,54.395205 -1.09839,7.18248 -2.52381,14.57495 -4.28732,22.13277 -1.72189,7.42471 -3.75402,15.00668 -6.08907,22.7155 -4.00333,13.25438 -8.89247,26.88756 -14.59013,40.72699 -3.78969,9.23178 -7.95078,18.56093 -12.45569,27.92021 -6.52425,13.57581 -13.76438,27.21859 -21.65451,40.77343 -7.89013,13.55484 -16.17772,26.5879 -24.77012,38.95986 -5.90499,8.5443 -11.95721,16.76109 -18.11319,24.61546 -9.22034,11.78893 -18.6606,22.77295 -28.20894,32.79964 -5.55004,5.83739 -11.13941,11.34874 -16.74521,16.51265 -5.70102,5.26586 -11.42471,10.15519 -17.12831,14.6582 -16.95193,13.35731 -33.30364,22.65208 -47.30023,26.86124 -12.91852,3.89368 -23.5093,3.52007 -31.48284,-1.12124 -7.97267,-4.64081 -13.52774,-13.66553 -16.52087,-26.82121 z" style="fill:#5adafd;fill-opacity:1"></path></svg>