<svg xmlns:dc="http://purl.org/dc/elements/1.1/" xmlns:cc="http://creativecommons.org/ns#" xmlns:rdf="http://www.w3.org/1999/02/22-rdf-syntax-ns#" xmlns:svg="http://www.w3.org/2000/svg" xmlns="http://www.w3.org/2000/svg" xmlns:sodipodi="http://sodipodi.sourceforge.net/DTD/sodipodi-0.dtd" xmlns:inkscape="http://www.inkscape.org/namespaces/inkscape" id="Capa_1" x="0px" y="0px" viewBox="0 0 512 512" style="enable-background:new 0 0 512 512;" xml:space="preserve" sodipodi:docname="shopify.svg" inkscape:version="0.92.4 (5da689c313, 2019-01-14)"><metadata id="metadata13299"></metadata><defs id="defs13297"></defs>




<g id="g13264">
</g>
<g id="g13266">
</g>
<g id="g13268">
</g>
<g id="g13270">
</g>
<g id="g13272">
</g>
<g id="g13274">
</g>
<g id="g13276">
</g>
<g id="g13278">
</g>
<g id="g13280">
</g>
<g id="g13282">
</g>
<g id="g13284">
</g>
<g id="g13286">
</g>
<g id="g13288">
</g>
<g id="g13290">
</g>
<g id="g13292">
</g>
<g id="g13310" transform="matrix(3.7795276,0,0,3.7795276,355.42672,-133.86476)"><g transform="translate(-104.77348,-40.146847)" id="g13304"><path transform="matrix(1,0,-0.03714765,0.99930979,0,0)" style="opacity:1;fill:#3e8e33;fill-opacity:1;stroke:none;stroke-width:0.26467469" d="m 102.68227,92.632309 11.16538,10.046631 10.70986,-1.03931 15.98683,98.91 -38.53516,8.48767 z" id="rect13200" inkscape:connector-curvature="0" sodipodi:nodetypes="cccccc"></path><path inkscape:connector-curvature="0" style="fill:#7fc029;stroke-width:0.26458332" d="m 94.510427,94.116984 c -2.88634,-7.519723 -7.464425,-14.226646 -14.9733,-13.029671 -1.722438,-2.283619 -4.094427,-3.931179 -7.367852,-4.1275 h -0.01111 c -0.21537,-0.01402 -0.433652,-0.01958 -0.657754,-0.01958 -0.669131,0 -1.332441,0.04418 -1.99046,0.12991 C 57.83759,78.598907 48.280311,93.386998 44.692032,110.2899 l -16.316854,5.29696 -9.616789,81.02392 c 4.887912,6.53547 11.618097,0.73709 18.510493,5.14664 l 49.989845,9.3001 c 2.515923,-0.50879 4.981839,-1.15834 7.389812,-1.94071 L 99.281923,92.568378 Z M 49.864636,108.61192 c 0,0 2.322248,-7.31256 5.496189,-13.928199 3.176588,-6.612995 13.494015,-16.139847 19.316435,-12.567972 0.174096,0.10795 0.3429,0.223837 0.503238,0.348456 -6.684963,3.085306 -11.934825,10.298112 -14.611085,22.672675 z M 79.227564,99.079244 66.09841,103.33956 c 0,0 2.504811,-13.624184 11.782954,-16.969312 2.051315,5.269442 1.3462,12.708996 1.3462,12.708996 z m 4.840817,-1.572948 c 0,0 0,-6.16241 -2.062427,-11.741414 4.758002,0.497681 7.199048,5.592762 8.401579,9.684543 z" id="path14" sodipodi:nodetypes="ccccsccccccccccccccccccccccc"></path><path inkscape:connector-curvature="0" style="fill:#fdfefd;stroke-width:0.26458332" d="m 38.858763,172.50244 c 2.378339,1.71873 4.757737,3.46472 7.512579,4.59184 1.185069,0.48499 2.394214,0.86175 3.663685,1.06654 2.279386,0.36777 4.346575,0.0635 5.796756,-1.92987 1.520032,-2.08915 1.250421,-4.31774 0.239448,-6.51351 -0.69506,-1.50892 -1.859227,-2.66912 -3.091656,-3.74756 -1.591998,-1.3925 -3.200929,-2.76569 -4.817533,-4.12962 -5.246952,-4.42595 -6.871494,-10.16767 -5.947304,-16.74839 1.611312,-11.47312 10.142802,-19.67097 21.68181,-21.07644 4.960408,-0.60431 9.826625,-0.55589 14.620081,1.06283 1.07606,0.36327 1.183217,0.80142 0.839523,1.79123 -1.501246,4.32197 -2.955131,8.66113 -4.361656,13.01485 -0.283898,0.87895 -0.51779,1.02421 -1.416844,0.65564 -3.6703,-1.50442 -7.466277,-2.40189 -11.47101,-1.73064 -2.784475,0.46673 -5.020998,1.68725 -5.804429,4.64767 -0.551392,2.08386 0.179123,3.81609 1.661054,5.27288 2.050256,2.01586 4.439443,3.61262 6.704012,5.36284 2.736321,2.11535 5.268648,4.42992 7.038711,7.44749 3.153039,5.37554 3.187435,11.11303 1.550722,16.87857 -2.768335,9.75201 -11.143985,15.01484 -21.218524,13.74299 -5.855494,-0.73925 -11.024394,-2.86862 -15.507494,-6.71248 -1.008062,-0.86413 -1.38721,-1.64227 -0.890058,-3.03477 1.049602,-2.9382 1.85076,-5.9653 2.751137,-8.95668 0.09922,-0.3294 0.113242,-0.69559 0.46699,-0.95541 z" id="path16"></path></g></g></svg>