<?xml version="1.0" encoding="UTF-8" standalone="no"?>
<svg
   xmlns:dc="http://purl.org/dc/elements/1.1/"
   xmlns:cc="http://creativecommons.org/ns#"
   xmlns:rdf="http://www.w3.org/1999/02/22-rdf-syntax-ns#"
   xmlns:svg="http://www.w3.org/2000/svg"
   xmlns="http://www.w3.org/2000/svg"
   xmlns:sodipodi="http://sodipodi.sourceforge.net/DTD/sodipodi-0.dtd"
   xmlns:inkscape="http://www.inkscape.org/namespaces/inkscape"
   id="a02f2390-8fa7-48a9-96f1-2ec5f63ecbc1"
   data-name="Layer 1"
   width="1150"
   height="627.49"
   viewBox="0 0 1150 627.49"
   version="1.1"
   sodipodi:docname="Aboutus_vhulbuldesign.svg"
   inkscape:version="0.92.4 (5da689c313, 2019-01-14)">
  <metadata
     id="metadata4990">
    <rdf:RDF>
      <cc:Work
         rdf:about="">
        <dc:format>image/svg+xml</dc:format>
        <dc:type
           rdf:resource="http://purl.org/dc/dcmitype/StillImage" />
        <dc:title>teacher</dc:title>
      </cc:Work>
    </rdf:RDF>
  </metadata>
  <defs
     id="defs4988" />
  <sodipodi:namedview
     pagecolor="#ffffff"
     bordercolor="#666666"
     borderopacity="1"
     objecttolerance="10"
     gridtolerance="10"
     guidetolerance="10"
     inkscape:pageopacity="0"
     inkscape:pageshadow="2"
     inkscape:window-width="1366"
     inkscape:window-height="705"
     id="namedview4986"
     showgrid="false"
     inkscape:zoom="0.24695652"
     inkscape:cx="575"
     inkscape:cy="313.745"
     inkscape:window-x="-8"
     inkscape:window-y="-8"
     inkscape:window-maximized="1"
     inkscape:current-layer="a02f2390-8fa7-48a9-96f1-2ec5f63ecbc1" />
  <title
     id="title4829">teacher</title>
  <g
     transform="matrix(6.5632502,0,0,6.5632502,-521.80796,-2410.1843)"
     id="g4827">
    <path
       inkscape:connector-curvature="0"
       id="path4768"
       d="m 136.92336,429.98283 c -11.19622,-2.12522 -20.41023,-10.23291 -24.06343,-21.17413 -2.08501,-6.24453 -2.04767,-13.4663 0.10212,-19.7516 0.68184,-1.99348 2.16139,-5.07365 3.11789,-6.49091 0.36305,-0.53794 0.66008,-1.02695 0.66008,-1.0867 0,-0.22091 2.36096,-3.0418 3.61793,-4.32272 1.60799,-1.63864 3.85383,-3.55472 5.0695,-4.32514 3.15579,-1.99994 7.57587,-3.76741 11.60384,-4.64005 3.00098,-0.65015 8.08975,-0.65125 11.37489,-0.002 5.2926,1.04525 9.32031,2.88371 13.55746,6.18837 5.37658,4.19333 9.50371,10.35347 11.11877,16.59584 0.48651,1.88041 1.14928,6.32805 1.00068,6.71529 -0.0595,0.15517 -0.6074,0.35077 -1.21748,0.43467 -0.61007,0.0839 -2.09835,0.4691 -3.30729,0.85598 l -2.19807,0.70342 -0.1506,-1.75104 c -0.58384,-6.78821 -2.85682,-11.87709 -7.29466,-16.33172 -3.47648,-3.48964 -7.47868,-5.69427 -12.19841,-6.71956 -2.05593,-0.44662 -8.70028,-0.38087 -10.57736,0.10466 -9.6681,2.50078 -16.3466,9.265 -18.5826,18.82108 -0.54547,2.33122 -0.49659,8.52874 0.0845,10.71234 1.33367,5.01171 3.23198,8.40215 6.65366,11.88358 6.29016,6.40001 16.20144,8.75278 24.90425,5.91184 4.63254,-1.51225 6.00636,-2.46525 11.98048,-8.31076 4.08759,-3.99958 4.4264,-4.27788 6.368,-5.23069 2.1138,-1.03729 4.25302,-1.82686 4.44082,-1.63907 0.28666,0.28666 -1.88398,5.49627 -3.28181,7.87649 -4.51561,7.68911 -12.59167,13.32762 -21.43794,14.96744 -2.93383,0.54384 -8.49504,0.54656 -11.34521,0.006 z"
       style="opacity:1;fill:#4a4a9b;fill-opacity:1;stroke:none;stroke-width:0.54826182;stroke-linejoin:round;stroke-miterlimit:4;stroke-dasharray:none;stroke-opacity:1" />
    <path
       inkscape:connector-curvature="0"
       id="path4770"
       d="m 175.8869,461.13912 c -7.32792,-1.19941 -12.08727,-3.32195 -16.91732,-7.54467 -3.32551,-2.90735 -6.19633,-6.6702 -7.99974,-10.48538 -1.59899,-3.38276 -2.15296,-5.27342 -2.6816,-9.15216 -0.34469,-2.52909 -0.34917,-2.81355 -0.0453,-2.88027 0.18542,-0.0407 1.47513,-0.40499 2.86602,-0.80949 1.39089,-0.4045 2.77512,-0.73546 3.07607,-0.73546 0.51609,0 0.54721,0.0644 0.54783,1.13329 7.9e-4,1.46033 0.68908,4.98316 1.39425,7.13671 0.5742,1.75354 1.59895,3.80401 2.82529,5.65326 0.71161,1.07305 3.59913,4.16084 5.08316,5.43571 2.97298,2.55394 7.44924,4.5661 11.26115,5.06211 2.55104,0.33192 8.79648,0.0663 10.5572,-0.44907 6.64819,-1.94585 12.50681,-6.87435 15.55836,-13.08828 1.68484,-3.43087 2.32176,-6.40195 2.31967,-10.82066 -0.002,-3.32004 -0.30342,-5.19172 -1.31565,-8.15799 -1.81515,-5.31915 -6.10924,-10.37875 -11.20298,-13.20013 -4.16085,-2.30467 -9.62616,-3.41886 -14.19309,-2.89351 -3.54092,0.40733 -5.93614,1.09354 -8.47269,2.42738 -3.42397,1.80048 -5.134,3.21942 -9.85855,8.18034 -2.21429,2.32507 -3.51437,3.26659 -6.26866,4.53978 -1.04361,0.48242 -2.06615,0.96551 -2.2723,1.07353 -0.5319,0.27871 -1.02856,0.24319 -1.02675,-0.0734 0.002,-0.37651 1.40652,-4.06105 2.17157,-5.69739 1.86159,-3.98167 5.9411,-8.70373 10.06267,-11.64758 4.64608,-3.31848 9.23673,-4.99176 15.68982,-5.71889 6.32207,-0.71237 14.89362,1.69088 20.57466,5.76861 12.98213,9.31833 16.95947,26.73051 9.32103,40.80614 -1.23874,2.28267 -2.85466,4.45315 -4.91546,6.60239 -5.00579,5.22057 -10.57053,8.05217 -18.52111,9.4244 -2.97426,0.51335 -4.97939,0.5425 -7.61752,0.1107 z"
       style="opacity:1;fill:#ef483e;fill-opacity:1;stroke:none;stroke-width:0.54826182;stroke-linejoin:round;stroke-miterlimit:4;stroke-dasharray:none;stroke-opacity:1" />
    <text
       id="text4774"
       y="403.84747"
       x="125.16418"
       style="font-style:normal;font-weight:normal;font-size:7.05555534px;line-height:1.25;font-family:sans-serif;letter-spacing:0px;word-spacing:0px;fill:#ef483e;fill-opacity:1;stroke:none;stroke-width:0.26458332"
       xml:space="preserve"><tspan
         style="font-style:normal;font-variant:normal;font-weight:600;font-stretch:normal;font-size:9.87777805px;font-family:Poppins;-inkscape-font-specification:'Poppins Semi-Bold';fill:#ef483e;fill-opacity:1;stroke-width:0.26458332"
         y="403.84747"
         x="125.16418"
         id="tspan4772"
         sodipodi:role="line">VISION</tspan></text>
    <text
       xml:space="preserve"
       style="font-style:normal;font-weight:normal;font-size:7.05555534px;line-height:1.25;font-family:sans-serif;letter-spacing:0px;word-spacing:0px;fill:#4a4a9b;fill-opacity:1;stroke:none;stroke-width:0.26458332"
       x="159.35536"
       y="435.59647"
       id="text4778"><tspan
         sodipodi:role="line"
         id="tspan4776"
         x="159.35536"
         y="435.59647"
         style="font-style:normal;font-variant:normal;font-weight:600;font-stretch:normal;font-size:9.87777805px;font-family:Poppins;-inkscape-font-specification:'Poppins Semi-Bold';fill:#4a4a9b;fill-opacity:1;stroke-width:0.26458332">MISSION</tspan></text>
    <g
       id="g4799">
      <g
         id="g4793"
         transform="translate(51.28679,-123.56148)"
         style="fill:#4a4a9b;fill-opacity:1">
        <path
           inkscape:connector-curvature="0"
           id="path4784"
           d="m 128.73329,550.72613 c -0.17724,-0.0757 -0.24104,-0.30062 -0.37386,-1.31815 -0.0732,-0.56058 -0.16363,-1.02857 -0.22971,-1.18841 -0.0689,-0.16652 -0.3305,-0.25722 -1.14094,-0.39542 -0.75452,-0.12864 -1.03999,-0.2169 -1.35028,-0.41746 -0.27618,-0.17848 -0.45576,-0.39449 -0.63631,-0.7653 -0.23542,-0.48356 -0.27704,-0.54946 -0.42179,-0.66781 -0.12836,-0.10493 -0.16276,-0.11409 -0.41305,-0.10972 -0.23066,0.004 -0.41814,0.0522 -1.20795,0.3107 -1.01367,0.33168 -1.3312,0.415 -1.43288,0.37597 -0.0819,-0.0314 -0.0613,-0.25413 0.0835,-0.9013 0.33887,-1.51466 0.88782,-2.75725 1.46848,-3.32402 0.22051,-0.21524 0.73096,-0.48376 1.34132,-0.70559 0.76656,-0.27863 0.88646,-0.38605 1.65775,-1.48524 1.86994,-2.66493 3.72158,-4.20126 5.90461,-4.89918 0.49221,-0.15735 0.81058,-0.22966 1.50073,-0.34089 l 0.43022,-0.0693 0.0177,0.0793 c 0.19711,0.88402 0.22466,3.48313 0.0526,4.96371 -0.11646,1.00232 -0.47878,2.05478 -1.27426,3.70152 -0.7721,1.59835 -0.84394,1.83256 -0.9539,3.11002 -0.0715,0.83055 -0.14629,1.24251 -0.28622,1.57631 -0.25639,0.61161 -1.07355,1.63544 -1.65296,2.07097 -0.44556,0.33494 -0.86835,0.49086 -1.08276,0.39931 z m 0.8139,-0.98581 c 0.44958,-0.43871 0.96184,-1.07085 1.18777,-1.46571 0.22014,-0.38476 0.30386,-0.74983 0.39205,-1.70955 0.126,-1.37102 0.15915,-1.4817 0.9142,-3.05279 0.68377,-1.42275 1.07136,-2.42795 1.22002,-3.16413 0.2411,-1.19391 0.30342,-4.0744 0.0987,-4.56427 -0.0908,-0.21731 -0.27522,-0.22196 -0.8852,-0.0222 -2.44293,0.7996 -4.07669,2.13127 -5.92756,4.83145 -0.53058,0.77407 -0.77115,1.0663 -1.00536,1.22124 -0.1086,0.0719 -0.44976,0.22426 -0.75811,0.33869 -0.67044,0.24876 -1.0636,0.44887 -1.24265,0.63241 -0.26943,0.27622 -0.85053,1.38827 -1.07797,2.0629 -0.15261,0.45268 -0.15064,0.8391 0.004,0.8391 0.0434,0 0.27346,-0.0769 0.5112,-0.17095 0.81069,-0.32064 1.50408,-0.36687 1.96982,-0.13131 0.17543,0.0887 0.37925,0.3928 0.53276,0.79481 0.0796,0.20855 0.17336,0.36965 0.29147,0.50102 0.2941,0.3271 0.61523,0.44688 1.47973,0.55194 0.5511,0.067 1.01551,0.17831 1.19242,0.28591 0.20165,0.12261 0.35824,0.64656 0.54445,1.82171 0.0624,0.39391 0.11358,0.72906 0.11368,0.7448 5.3e-4,0.0709 0.0865,0.004 0.44427,-0.34499 z"
           style="opacity:1;fill:#4a4a9b;fill-opacity:1;stroke:none;stroke-width:0.09691992;stroke-linejoin:round;stroke-miterlimit:4;stroke-dasharray:none;stroke-opacity:1" />
        <path
           inkscape:connector-curvature="0"
           id="path4786"
           d="m 124.09353,550.71864 c -0.1908,-0.0535 -0.34884,-0.21756 -0.42533,-0.44156 -0.14989,-0.43892 -0.17179,-1.50807 -0.0399,-1.94958 0.10436,-0.34941 0.14737,-0.2371 0.19577,0.51123 0.0262,0.4055 0.0699,0.76655 0.10737,0.88728 0.0572,0.1843 0.0801,0.21121 0.24199,0.28442 0.35,0.1583 1.21812,0.13155 1.75787,-0.0541 0.11403,-0.0392 0.22181,-0.0713 0.23951,-0.0713 0.14318,0 -0.17495,0.25249 -0.62181,0.49352 -0.55529,0.29954 -1.12531,0.43276 -1.45545,0.34015 z"
           style="opacity:1;fill:#4a4a9b;fill-opacity:1;stroke:none;stroke-width:0.09691992;stroke-linejoin:round;stroke-miterlimit:4;stroke-dasharray:none;stroke-opacity:1" />
        <circle
           r="1.1332886"
           cy="539.68567"
           cx="130.54405"
           id="path4788"
           style="opacity:1;fill:#ffffff;fill-opacity:1;stroke:#4a4a9b;stroke-width:0.67199999;stroke-linejoin:round;stroke-miterlimit:4;stroke-dasharray:none;stroke-opacity:1" />
      </g>
    </g>
    <g
       style="stroke:#ef483e;stroke-width:0.2;stroke-miterlimit:4;stroke-dasharray:none;stroke-opacity:1"
       transform="translate(146.9916,-1.5263926)"
       id="g4810">
      <path
         style="opacity:1;fill:#ffffff;fill-opacity:1;stroke:#ef483e;stroke-width:0.75590551;stroke-linejoin:round;stroke-miterlimit:4;stroke-dasharray:none;stroke-opacity:1"
         d="m -21.16617,749.8648 -2.54721,-0.0302 -0.206337,-0.25828 c -0.187214,-0.23435 -0.296127,-0.26372 -1.175177,-0.31695 -0.843622,-0.0511 -1.003759,-0.0911 -1.239005,-0.31001 -0.220903,-0.20552 -0.417736,-0.26403 -1.079513,-0.3209 -0.674163,-0.0579 -0.864564,-0.11602 -1.139929,-0.34772 -0.26087,-0.21951 -0.435241,-0.27817 -0.826891,-0.27817 -0.376714,0 -0.529924,-0.048 -0.635813,-0.19917 -0.157078,-0.22426 -0.584265,-0.41273 -0.935501,-0.41273 -0.128862,0 -0.40754,-0.13768 -0.619283,-0.30595 -0.239655,-0.19045 -0.504815,-0.30647 -0.70241,-0.30734 -0.468011,-0.002 -0.776347,-0.10606 -0.776347,-0.26187 0,-0.17988 -0.25554,-0.30815 -0.79037,-0.39675 -0.265298,-0.0439 -0.433429,-0.12627 -0.433429,-0.21222 0,-0.1823 -0.25289,-0.31065 -0.786114,-0.39896 -0.285926,-0.0474 -0.449005,-0.13356 -0.488588,-0.25828 -0.03268,-0.10296 -0.195092,-0.23449 -0.360919,-0.2923 -0.165827,-0.0578 -0.45078,-0.21611 -0.633228,-0.35179 -0.182447,-0.13567 -0.476281,-0.27371 -0.65296,-0.30676 -0.176681,-0.033 -0.441215,-0.17127 -0.587853,-0.30717 -0.146639,-0.1359 -0.392168,-0.27249 -0.545621,-0.30353 -0.155176,-0.0314 -0.324267,-0.15847 -0.380988,-0.28632 -0.05609,-0.12643 -0.230939,-0.272 -0.388552,-0.32349 -0.157613,-0.0515 -0.402175,-0.20076 -0.54347,-0.33171 -0.141296,-0.13095 -0.380667,-0.26527 -0.531937,-0.2985 -0.151269,-0.0332 -0.319741,-0.15931 -0.374379,-0.28019 -0.05464,-0.12088 -0.229083,-0.26217 -0.387654,-0.31398 -0.15857,-0.0518 -0.424035,-0.22688 -0.589919,-0.38903 -0.165885,-0.16216 -0.38872,-0.29484 -0.495187,-0.29484 -0.106638,0 -0.223887,-0.0955 -0.261063,-0.21262 -0.03712,-0.11695 -0.194507,-0.25691 -0.349757,-0.31103 -0.155249,-0.0541 -0.333506,-0.21085 -0.396126,-0.34828 -0.06262,-0.13744 -0.182618,-0.24988 -0.266664,-0.24988 -0.08404,0 -0.226812,-0.11294 -0.317259,-0.25098 -0.09045,-0.13804 -0.245877,-0.27683 -0.345399,-0.30842 -0.09952,-0.0316 -0.494672,-0.35462 -0.878109,-0.71786 -0.383438,-0.36323 -0.775287,-0.66042 -0.870775,-0.66042 -0.100158,0 -0.217536,-0.126 -0.277424,-0.29779 -0.06781,-0.19452 -0.186209,-0.30946 -0.341422,-0.33145 -0.1584,-0.0224 -0.248833,-0.11287 -0.271269,-0.27127 -0.02199,-0.15521 -0.136925,-0.27361 -0.331446,-0.34142 -0.192059,-0.067 -0.297788,-0.17457 -0.297788,-0.3031 0,-0.12822 -0.10547,-0.23607 -0.295733,-0.30239 -0.162653,-0.0567 -0.318836,-0.19144 -0.347073,-0.29942 -0.02824,-0.10798 -0.164696,-0.23942 -0.303244,-0.2921 -0.138547,-0.0527 -0.280266,-0.20877 -0.314931,-0.34689 -0.03786,-0.15085 -0.160678,-0.27562 -0.307593,-0.3125 -0.14802,-0.0371 -0.269763,-0.16177 -0.308391,-0.31567 -0.03863,-0.15391 -0.160371,-0.27853 -0.30839,-0.31568 -0.144548,-0.0363 -0.269671,-0.1614 -0.30595,-0.30595 -0.03707,-0.14771 -0.161736,-0.26975 -0.314787,-0.30816 -0.15612,-0.0392 -0.253405,-0.13634 -0.253405,-0.25305 0,-0.23489 -0.314739,-0.91026 -0.424203,-0.91026 -0.04426,0 -0.149989,-0.13442 -0.234951,-0.29872 -0.08496,-0.1643 -0.246763,-0.32801 -0.35956,-0.36381 -0.180844,-0.0574 -0.205085,-0.15331 -0.205085,-0.81137 0,-0.6718 0.02403,-0.76202 0.240818,-0.90406 0.155265,-0.10173 0.262941,-0.29614 0.303091,-0.54722 0.04257,-0.26625 0.133677,-0.42167 0.287996,-0.49134 0.124148,-0.056 0.268227,-0.23198 0.320175,-0.39096 0.05195,-0.15898 0.620235,-0.80147 1.26286,-1.42776 0.745162,-0.72622 1.188571,-1.23829 1.224071,-1.41362 0.04022,-0.19866 0.1361,-0.29257 0.345699,-0.33861 0.334444,-0.0734 0.910485,-0.68064 0.910485,-0.95971 0,-0.12157 0.100413,-0.21451 0.280454,-0.25959 0.15425,-0.0386 0.601701,-0.36567 0.994336,-0.72676 1.113009,-1.0236 1.202604,-1.10044 1.502717,-1.28879 0.155095,-0.0973 0.28199,-0.24151 0.28199,-0.32039 0,-0.0789 0.116354,-0.17262 0.258565,-0.20831 0.142211,-0.0357 0.299488,-0.17253 0.349504,-0.30408 0.05002,-0.13156 0.208318,-0.26865 0.351781,-0.30466 0.163584,-0.0411 0.284557,-0.15995 0.324443,-0.31887 0.05,-0.19921 0.128821,-0.25341 0.368569,-0.25341 0.199971,0 0.398058,-0.0971 0.575348,-0.28209 0.148709,-0.15516 0.401169,-0.33983 0.561023,-0.41039 0.159854,-0.0706 0.314357,-0.21897 0.34334,-0.3298 0.03669,-0.14031 0.139627,-0.20151 0.338907,-0.20151 0.178201,0 0.395106,-0.1089 0.57477,-0.28857 0.158708,-0.1587 0.413949,-0.32003 0.5672,-0.35849 0.17609,-0.0442 0.300962,-0.15888 0.339293,-0.3116 0.04704,-0.18742 0.151961,-0.25627 0.467431,-0.30671 0.223726,-0.0358 0.514659,-0.17293 0.646516,-0.30479 0.131858,-0.13186 0.3972,-0.26928 0.589649,-0.30539 0.200659,-0.0376 0.465521,-0.19539 0.620952,-0.36984 0.149073,-0.16731 0.358951,-0.3042 0.466397,-0.3042 0.107445,0 0.326332,-0.11021 0.486415,-0.24491 0.160083,-0.1347 0.477563,-0.29513 0.705512,-0.35651 0.227948,-0.0614 0.496878,-0.20268 0.597622,-0.314 0.100745,-0.11132 0.340775,-0.23197 0.533401,-0.26811 0.192626,-0.0361 0.473154,-0.16871 0.623394,-0.2946 0.150241,-0.1259 0.521292,-0.28186 0.824557,-0.34658 0.347421,-0.0741 0.637993,-0.21111 0.7855,-0.37028 0.165446,-0.17851 0.341587,-0.2526 0.600556,-0.2526 0.251491,0 0.443732,-0.0773 0.612812,-0.24637 0.178421,-0.17842 0.437308,-0.27587 0.93871,-0.35334 0.543124,-0.0839 0.737129,-0.1627 0.90014,-0.36553 0.185448,-0.23075 0.281922,-0.25856 0.896989,-0.25856 0.608341,0 0.720674,-0.0315 0.957557,-0.26837 0.245821,-0.24582 0.359691,-0.27366 1.355497,-0.33144 0.955212,-0.0554 1.135559,-0.0963 1.48621,-0.33702 l 0.399078,-0.27393 3.875363,-0.0228 c 2.131449,-0.0126 5.068566,-0.0117 6.526926,0.002 l 2.651564,0.0249 0.390789,0.26608 c 0.3266339,0.22241 0.5463925,0.27633 1.3386217,0.32848 0.7130382,0.0469 0.9927833,0.10733 1.1292899,0.24384 0.2597706,0.25977 0.5757331,0.35911 1.3799126,0.43385 0.389166,0.0362 0.707574,0.10178 0.707574,0.14581 0,0.21589 0.3549292,0.40058 0.7698082,0.40058 0.3653926,0 0.4801452,0.0471 0.6145346,0.2522 0.1057383,0.16137 0.2993973,0.27476 0.5377637,0.31485 0.6056029,0.10186 0.7294575,0.15291 0.7294575,0.30066 0,0.18978 0.1003005,0.23972 0.715854,0.35646 0.2902136,0.055 0.6576235,0.20942 0.81646445,0.34308 0.15884092,0.13366 0.44640508,0.27258 0.63903101,0.30871 0.19262593,0.0361 0.43265672,0.15679 0.53340085,0.26811 0.10074414,0.11132 0.36967392,0.25262 0.59762276,0.314 0.22794883,0.0614 0.53862753,0.21609 0.69039893,0.3438 0.1517704,0.1277 0.4325099,0.26156 0.6238661,0.29746 0.1913552,0.0359 0.4528076,0.17692 0.5810036,0.31338 0.128196,0.13646 0.3743508,0.27913 0.5470095,0.31705 0.1726586,0.0379 0.3965393,0.17398 0.4975129,0.30235 0.1105468,0.14053 0.3482473,0.26121 0.5974566,0.30331 0.2993881,0.0506 0.4381628,0.13383 0.5016993,0.30094 0.09237,0.24295 0.2954556,0.36082 0.6217133,0.36082 0.1075933,0 0.1956252,0.0617 0.1956252,0.13716 0,0.21515 0.3468776,0.47474 0.6343694,0.47474 0.1908381,0 0.2779461,0.0661 0.3228004,0.24476 0.038013,0.15146 0.1783034,0.28551 0.3679973,0.35164 0.1686109,0.0588 0.3065646,0.15397 0.3065646,0.21154 0,0.0576 0.1491505,0.18105 0.3314455,0.2744 0.182295,0.0934 0.4821931,0.30105 0.66644,0.46155 0.184246,0.16049 0.4263175,0.2918 0.5379361,0.2918 0.1220219,0 0.2411608,0.10053 0.2987935,0.25211 0.05412,0.14235 0.2099743,0.28076 0.3579775,0.3179 0.1441696,0.0362 0.3305409,0.19809 0.414159,0.35979 0.083618,0.1617 0.201617,0.294 0.262218,0.294 0.0606,0 0.277412,0.13086 0.481802,0.2908 0.204388,0.15994 0.497821,0.32144 0.65207,0.35889 0.187514,0.0455 0.280454,0.13439 0.280454,0.26816 0,0.1291 0.09171,0.2231 0.258518,0.26497 0.142185,0.0357 0.326934,0.19718 0.410552,0.35888 0.08362,0.1617 0.231167,0.29429 0.327886,0.29464 0.09672,3.1e-4 0.254029,0.13804 0.349579,0.30595 0.09555,0.16792 0.243235,0.30531 0.328188,0.30531 0.08495,0 0.213293,0.11153 0.285197,0.24784 0.10779,0.20434 0.802355,0.77199 0.944594,0.77199 0.108664,0 2.013504,1.99195 2.141461,2.23939 0.08119,0.15701 0.220338,0.31338 0.309209,0.34748 0.08887,0.0341 0.209135,0.19841 0.267254,0.36513 0.05812,0.16672 0.19362,0.33105 0.301113,0.36516 0.132618,0.0421 0.201255,0.16637 0.213524,0.38661 0.0099,0.17851 0.03099,0.53109 0.04677,0.78349 0.05525,0.88398 -0.05404,1.4763 -0.292273,1.58402 -0.120067,0.0543 -0.260226,0.22705 -0.311467,0.3839 -0.05124,0.15686 -0.226305,0.43097 -0.389034,0.60913 -0.162729,0.17817 -0.295871,0.40241 -0.295871,0.49831 0,0.0959 -0.09568,0.20473 -0.212626,0.24185 -0.116943,0.0371 -0.256905,0.1945 -0.311025,0.34975 -0.05412,0.15525 -0.210847,0.33351 -0.348283,0.39613 -0.137435,0.0626 -0.249881,0.1825 -0.249881,0.2664 0,0.0839 -0.1323,0.22095 -0.294001,0.30457 -0.1617,0.0836 -0.323198,0.26837 -0.358884,0.41055 -0.03569,0.14219 -0.131669,0.25852 -0.213297,0.25852 -0.08163,0 -0.219608,0.13768 -0.306625,0.30595 -0.08702,0.16827 -0.224259,0.30595 -0.304981,0.30595 -0.08072,0 -0.195636,0.0913 -0.255362,0.20291 -0.05973,0.1116 -0.244912,0.27341 -0.411521,0.35956 -0.16661,0.0862 -0.302927,0.22313 -0.302927,0.30439 0,0.0813 -0.137677,0.21893 -0.30595,0.30595 -0.168272,0.087 -0.305949,0.22526 -0.305949,0.3072 0,0.0819 -0.160624,0.2161 -0.356942,0.29813 -0.197467,0.0825 -0.356941,0.22218 -0.356941,0.31262 0,0.0899 -0.134949,0.21053 -0.299887,0.26802 -0.184633,0.0644 -0.312015,0.1881 -0.331445,0.32196 -0.01832,0.1262 -0.127961,0.24057 -0.261312,0.27259 -0.126364,0.0303 -0.360423,0.17878 -0.520131,0.32985 -0.159707,0.15107 -0.4156557,0.30612 -0.5687733,0.34455 -0.1531177,0.0384 -0.326943,0.17642 -0.3862789,0.30665 -0.059337,0.13023 -0.2349061,0.28106 -0.3901562,0.33518 -0.1552501,0.0541 -0.3126398,0.19408 -0.3497566,0.31103 -0.037117,0.11694 -0.1540181,0.21262 -0.2597798,0.21262 -0.3043037,0 -0.6950963,0.21427 -0.8657051,0.47465 -0.086216,0.13158 -0.2212057,0.23924 -0.2999775,0.23924 -0.078772,0 -0.2268648,0.1047 -0.3290948,0.23268 -0.1022301,0.12797 -0.37585,0.28892 -0.6080444,0.35766 -0.236285,0.07 -0.4933796,0.23366 -0.5838918,0.3718 -0.088946,0.13574 -0.2661079,0.26162 -0.393694,0.27973 -0.1275851,0.0181 -0.2758402,0.13284 -0.3294538,0.25497 -0.061055,0.13908 -0.2256868,0.2461 -0.4406002,0.28642 -0.1887169,0.0354 -0.4843775,0.19936 -0.6570249,0.36435 -0.1726464,0.16499 -0.3830765,0.29998 -0.4676217,0.29998 -0.084546,0 -0.3104991,0.11959 -0.5021195,0.26574 -0.1916204,0.14616 -0.4713063,0.29786 -0.6215256,0.33711 -0.1502193,0.0393 -0.3178838,0.17082 -0.3725886,0.29236 -0.071038,0.15784 -0.2254961,0.2399 -0.5404652,0.28714 -0.41651484,0.0624 -0.73684519,0.25709 -0.73684519,0.44771 0,0.0471 -0.19504293,0.11804 -0.43342873,0.15753 -0.53483066,0.0886 -0.79037004,0.21687 -0.79037004,0.39675 0,0.14411 -0.30180004,0.25951 -0.68487044,0.26187 -0.1242706,8.1e-4 -0.3667878,0.13907 -0.5389283,0.30734 -0.2392139,0.23384 -0.4064573,0.30595 -0.7095739,0.30595 -0.2820387,0 -0.4910778,0.0795 -0.7237066,0.27525 -0.238547,0.20072 -0.4926892,0.29477 -0.9386466,0.34735 -0.3912433,0.0461 -0.7262552,0.15713 -0.9300054,0.30813 -0.212427,0.15744 -0.5273064,0.25777 -0.9456396,0.30131 -0.4107262,0.0428 -0.7413538,0.1466 -0.9580406,0.30089 -0.2659315,0.18936 -0.5300752,0.25103 -1.3457687,0.31422 -1.2698167,0.0984 -1.571688,0.16437 -1.790244,0.39148 -0.159439,0.16568 -0.514795,0.18433 -4.253304,0.22327 -2.243631,0.0234 -5.225574,0.0289 -6.62654,0.0123 z m 9.111154,-2.06763 c 1.036216,-0.0712 1.299637,-0.12252 1.478757,-0.28791 0.175835,-0.16236 0.431151,-0.21541 1.3215003,-0.27459 0.9445054,-0.0628 1.1442896,-0.10762 1.3861591,-0.31114 0.2112562,-0.17776 0.4604512,-0.25385 0.9870967,-0.3014 0.7968226,-0.0719 1.231624,-0.20907 1.3535103,-0.42687 0.050905,-0.091 0.3352331,-0.1785 0.7315104,-0.22523 0.3565313,-0.042 0.6629114,-0.11821 0.6808441,-0.16927 0.093627,-0.2666 0.2383379,-0.35214 0.6977142,-0.41241 0.3123604,-0.041 0.6576277,-0.17717 0.9069104,-0.35772 0.2213903,-0.16036 0.5019084,-0.29155 0.6233725,-0.29155 0.121464,0 0.3940877,-0.13768 0.6058314,-0.30595 0.2117437,-0.16828 0.49181104,-0.30595 0.62237405,-0.30595 0.13056199,0 0.3941917,-0.13768 0.58584369,-0.30595 0.19165097,-0.16827 0.43057015,-0.30595 0.5309298,-0.30595 0.22128016,0 0.55547516,-0.28562 0.55547516,-0.47473 0,-0.087 0.1222462,-0.13717 0.334249,-0.13717 0.3682614,0 0.7875665,-0.24125 0.7875665,-0.45313 0,-0.0824 0.1789112,-0.16244 0.4561057,-0.20401 0.296143,-0.0444 0.5201002,-0.14975 0.6385752,-0.30037 0.1003586,-0.12759 0.3074448,-0.26334 0.4601912,-0.30168 0.1800412,-0.0452 0.3000887,-0.15883 0.3413205,-0.3231 0.054267,-0.21622 0.1225349,-0.25341 0.465221,-0.25341 0.3385303,0 0.4289109,-0.0476 0.5753476,-0.30329 0.1014855,-0.17718 0.2903901,-0.32898 0.4542771,-0.36507 0.1842327,-0.0406 0.3018194,-0.14651 0.3425015,-0.3086 0.035885,-0.14298 0.1367177,-0.24684 0.2396433,-0.24684 0.3284207,0 0.8112154,-0.2195 0.8665994,-0.394 0.030197,-0.0951 0.1963055,-0.22636 0.3691304,-0.2916 0.1728259,-0.0652 0.3382304,-0.21039 0.3675669,-0.32258 0.031085,-0.11886 0.1722579,-0.23009 0.3383437,-0.26656 0.1567523,-0.0344 0.3700747,-0.15667 0.4740496,-0.27164 0.103975,-0.11497 0.361142,-0.29687 0.5714825,-0.40422 0.2103404,-0.10736 0.3824371,-0.25753 0.3824371,-0.33372 0,-0.0762 0.1317246,-0.19309 0.2927204,-0.25978 0.1609958,-0.0667 0.3435823,-0.23288 0.4057463,-0.36931 0.06683,-0.14667 0.199463,-0.24807 0.324484,-0.24807 0.143264,0 0.245854,-0.0987 0.318112,-0.30595 0.06866,-0.19695 0.176548,-0.30595 0.302831,-0.30595 0.110289,0 0.247037,-0.11162 0.312344,-0.25496 0.06389,-0.14022 0.178664,-0.25495 0.25505,-0.25495 0.202419,0 1.052063,-0.81293 1.05282,-1.00733 3.06e-4,-0.091 0.138032,-0.24366 0.30595,-0.33921 0.167918,-0.0956 0.305596,-0.23323 0.30595,-0.30595 3.06e-4,-0.0727 0.138032,-0.2104 0.305949,-0.30595 0.167919,-0.0956 0.305305,-0.24219 0.305305,-0.32588 0,-0.0837 0.125644,-0.21237 0.279207,-0.28597 0.153564,-0.0736 0.296357,-0.22526 0.317318,-0.33701 0.02096,-0.11176 0.101835,-0.23989 0.17972,-0.28475 0.07788,-0.0449 0.215686,-0.22842 0.306224,-0.40793 0.09054,-0.17951 0.28558,-0.4556 0.433427,-0.61353 0.206612,-0.22071 0.268811,-0.3915 0.268811,-0.73814 0,-0.44583 -0.01809,-0.46911 -1.579506,-2.03297 -1.06103,-1.06269 -1.651603,-1.58198 -1.799146,-1.58198 -0.150048,0 -0.240204,-0.0819 -0.284537,-0.25856 -0.03569,-0.14221 -0.174418,-0.30021 -0.308279,-0.3511 -0.133861,-0.0509 -0.273315,-0.18684 -0.309898,-0.30211 -0.03658,-0.11526 -0.172107,-0.23607 -0.301165,-0.26846 -0.129057,-0.0324 -0.333887,-0.19312 -0.45518,-0.35718 -0.121292,-0.16406 -0.269584,-0.29828 -0.329537,-0.29828 -0.05995,0 -0.238635,-0.12621 -0.3970717,-0.28046 -0.4356346,-0.42412 -0.9484348,-0.81423 -1.2522888,-0.95268 -0.1497827,-0.0683 -0.3428727,-0.23174 -0.4290883,-0.36332 -0.086216,-0.13158 -0.2214117,-0.23924 -0.3004355,-0.23924 -0.079024,0 -0.2417145,-0.13768 -0.3615346,-0.30595 -0.1198201,-0.16827 -0.2772587,-0.30595 -0.3498626,-0.30595 -0.072604,0 -0.3065565,-0.13872 -0.5198942,-0.30826 -0.2133388,-0.16953 -0.4933592,-0.33472 -0.6222681,-0.36708 -0.1289098,-0.0323 -0.2613187,-0.1437 -0.294244,-0.24743 -0.032924,-0.10374 -0.1598506,-0.22035 -0.2820581,-0.25914 -0.1222085,-0.0388 -0.3414705,-0.1982 -0.4872504,-0.35426 -0.1461715,-0.15648 -0.428765,-0.31445 -0.6300575,-0.35222 -0.2360228,-0.0443 -0.3828532,-0.13672 -0.4155143,-0.26162 -0.02778,-0.10623 -0.1753521,-0.24062 -0.3279383,-0.29863 -0.1525853,-0.058 -0.3637243,-0.21518 -0.4691974,-0.34927 -0.1169808,-0.14872 -0.3490437,-0.27037 -0.5950425,-0.31193 -0.2621428,-0.0443 -0.4240657,-0.13364 -0.4626867,-0.25533 -0.063039,-0.19862 -0.5386347,-0.40821 -0.9262842,-0.40821 -0.1399138,0 -0.257628,-0.078 -0.29489773,-0.19544 -0.0653672,-0.20596 -0.53555474,-0.41646 -0.93020843,-0.41646 -0.15503695,0 -0.27939326,-0.0948 -0.36797998,-0.28045 -0.11142789,-0.23355 -0.20889225,-0.28584 -0.58276889,-0.31261 -0.34055767,-0.0244 -0.51647067,-0.10443 -0.72854167,-0.33145 -0.1965207,-0.21037 -0.3764579,-0.29929 -0.6056784,-0.29929 -0.230833,0 -0.4095932,-0.0894 -0.6118994,-0.30595 -0.2056818,-0.22018 -0.3799732,-0.30595 -0.6217398,-0.30595 -0.2206264,0 -0.4285733,-0.0888 -0.6058059,-0.25855 -0.1778067,-0.17035 -0.4531339,-0.28752 -0.8071044,-0.34347 -0.2954812,-0.0467 -0.5666382,-0.12541 -0.602572,-0.17488 -0.1949033,-0.26835 -0.5082467,-0.38272 -1.2200305,-0.4453 -0.669366,-0.0589 -0.8323658,-0.11124 -1.0626327,-0.34151 -0.2445843,-0.24458 -0.3463993,-0.27199 -1.0105202,-0.27199 -0.6395756,0 -0.7927585,-0.0376 -1.1432279,-0.28045 l -0.4046949,-0.28045 h -6.246648 -6.246649 l -0.338331,0.25013 c -0.279783,0.20686 -0.499622,0.26076 -1.270387,0.31149 -0.814805,0.0536 -0.973158,0.0959 -1.258778,0.33626 -0.260371,0.21909 -0.431237,0.27492 -0.841371,0.27492 -0.37276,0 -0.672858,0.0831 -1.088494,0.30151 -0.315616,0.16583 -0.785119,0.32826 -1.043342,0.36096 -0.271502,0.0344 -0.567942,0.15115 -0.70294,0.27692 -0.133996,0.12484 -0.455331,0.25214 -0.754303,0.29882 -0.358746,0.056 -0.584343,0.15748 -0.724826,0.32598 -0.138518,0.16614 -0.35104,0.26328 -0.66232,0.30271 -0.325749,0.0413 -0.518634,0.13366 -0.666721,0.31938 -0.156359,0.19609 -0.302872,0.26132 -0.586975,0.26132 -0.366951,0 -0.786539,0.27202 -0.786539,0.50992 0,0.0561 -0.107883,0.10198 -0.239741,0.10198 -0.39064,0 -0.869467,0.20755 -0.931782,0.40388 -0.03773,0.11888 -0.202244,0.20593 -0.470119,0.24877 -0.244635,0.0391 -0.507215,0.16854 -0.646207,0.31852 -0.128772,0.13895 -0.307596,0.25263 -0.397389,0.25263 -0.08979,0 -0.295148,0.12892 -0.456345,0.2865 -0.161195,0.15757 -0.449605,0.33085 -0.64091,0.38507 -0.193184,0.0548 -0.391168,0.19613 -0.445308,0.31799 -0.06129,0.13796 -0.228675,0.24403 -0.450878,0.28571 -0.19437,0.0365 -0.473863,0.19526 -0.621096,0.35287 -0.147234,0.15761 -0.357371,0.30348 -0.466971,0.32415 -0.109601,0.0207 -0.243492,0.13805 -0.297537,0.26085 -0.05404,0.1228 -0.212171,0.25186 -0.351393,0.28681 -0.139221,0.0349 -0.406373,0.19808 -0.593672,0.36253 -0.187298,0.16445 -0.406726,0.299 -0.487617,0.299 -0.08089,0 -0.224993,0.11892 -0.320224,0.26426 -0.09523,0.14534 -0.284301,0.30652 -0.420153,0.35817 -0.135852,0.0516 -0.269845,0.18125 -0.297763,0.28801 -0.02792,0.10675 -0.172626,0.2242 -0.321576,0.26099 -0.29219,0.0722 -1.216026,0.92285 -4.061193,3.73958 -1.955641,1.93609 -2.481594,2.54228 -2.481594,2.86015 0,0.11129 -0.09124,0.31834 -0.202756,0.46011 l -0.202755,0.25776 0.2467,0.29319 c 0.135685,0.16125 0.273699,0.37825 0.306699,0.48223 0.033,0.10397 0.169867,0.2391 0.304151,0.30028 0.134284,0.0612 0.273426,0.20348 0.309206,0.31621 0.03578,0.11273 0.149556,0.23179 0.252836,0.26456 0.10328,0.0328 0.241711,0.1898 0.307626,0.34893 0.06591,0.15913 0.227493,0.33838 0.359063,0.39833 0.131571,0.0599 0.268494,0.20123 0.304274,0.31396 0.03578,0.11273 0.157289,0.23424 0.27002,0.27002 0.112732,0.0358 0.255026,0.17492 0.31621,0.30921 0.06118,0.13428 0.198861,0.27196 0.30595,0.30595 0.107088,0.034 0.244765,0.17166 0.305949,0.30595 0.06118,0.13428 0.198861,0.27196 0.30595,0.30595 0.107088,0.034 0.244127,0.17026 0.30453,0.30283 0.0604,0.13257 0.236846,0.28532 0.392095,0.33944 0.15525,0.0541 0.312641,0.19408 0.349757,0.31102 0.03712,0.11695 0.135366,0.21263 0.218331,0.21263 0.08297,0 0.229023,0.13779 0.324573,0.30621 0.09555,0.16842 0.253006,0.33181 0.349903,0.36309 0.0969,0.0313 0.36512,0.21473 0.596052,0.40767 0.230933,0.19293 0.48551,0.35079 0.565727,0.35079 0.08022,0 0.188984,0.11345 0.241702,0.25211 0.05272,0.13866 0.20823,0.28032 0.34558,0.31479 0.149513,0.0375 0.27436,0.16082 0.31111,0.30725 0.03641,0.14508 0.161456,0.26968 0.307408,0.30631 0.135314,0.034 0.269931,0.12405 0.299149,0.20019 0.02922,0.0761 0.204636,0.21604 0.389817,0.31089 0.185181,0.0948 0.48744,0.30376 0.671687,0.46425 0.184246,0.1605 0.442775,0.29181 0.574508,0.29181 0.152774,0 0.2586,0.073 0.292212,0.20151 0.02898,0.11083 0.183486,0.25815 0.343339,0.32738 0.159855,0.0692 0.441392,0.25391 0.625639,0.41039 0.184246,0.15649 0.421652,0.28452 0.527566,0.28452 0.105916,0 0.330251,0.13768 0.498523,0.30595 0.20007,0.20007 0.40888,0.30595 0.603374,0.30595 0.218919,0 0.328334,0.0678 0.414525,0.257 0.06441,0.14136 0.234128,0.3015 0.377161,0.35589 0.143035,0.0544 0.429607,0.21408 0.636827,0.35489 0.207221,0.14081 0.449631,0.25602 0.53869,0.25602 0.08906,0 0.31109,0.13317 0.493402,0.29594 0.182312,0.16277 0.494863,0.3266 0.694558,0.36406 0.199694,0.0375 0.539754,0.17964 0.755687,0.31595 0.215935,0.13632 0.479568,0.24785 0.585853,0.24785 0.478915,0 0.83064,0.13204 0.83064,0.31182 0,0.19773 0.110675,0.24682 0.797472,0.35378 0.24229,0.0377 0.463578,0.12867 0.491747,0.20208 0.06925,0.18047 0.484723,0.32691 1.148047,0.40463 0.404285,0.0474 0.599693,0.12696 0.735434,0.29953 0.153,0.19451 0.320695,0.24732 0.973046,0.30643 0.634752,0.0575 0.830328,0.11689 1.004657,0.305 0.185717,0.20039 0.358957,0.24403 1.219454,0.3072 0.856447,0.0629 1.02922,0.10608 1.182547,0.29583 0.159191,0.19699 0.310801,0.229 1.336254,0.2821 1.79958,0.0932 8.662632,0.0862 10.066248,-0.0103 z"
         id="path4801"
         inkscape:connector-curvature="0"
         transform="matrix(0.26458333,0,0,0.26458333,0,196.45832)" />
      <path
         style="opacity:1;fill:#ffffff;fill-opacity:1;stroke:#ef483e;stroke-width:0.75590551;stroke-linejoin:round;stroke-miterlimit:4;stroke-dasharray:none;stroke-opacity:1"
         d="m -27.644475,744.63366 c -0.11748,-0.15343 -0.350008,-0.22111 -1.002138,-0.29169 -0.642864,-0.0696 -0.90571,-0.14504 -1.081914,-0.31057 -0.128012,-0.12026 -0.401779,-0.26533 -0.608371,-0.32237 -0.206591,-0.057 -0.534395,-0.21146 -0.728451,-0.34315 -0.194056,-0.13169 -0.58222,-0.27099 -0.862584,-0.30955 -0.329713,-0.0453 -0.509754,-0.11949 -0.509754,-0.20992 0,-0.1834 -0.283234,-0.32861 -0.803093,-0.41174 -0.249633,-0.0399 -0.420706,-0.12272 -0.420706,-0.20363 0,-0.17799 -0.285041,-0.32543 -0.783148,-0.40508 -0.271834,-0.0435 -0.431785,-0.13389 -0.497194,-0.28107 -0.05304,-0.11934 -0.252531,-0.26122 -0.44332,-0.31528 -0.190789,-0.0541 -0.464795,-0.20758 -0.608902,-0.34114 -0.144107,-0.13355 -0.385501,-0.26752 -0.536431,-0.29771 -0.152215,-0.0304 -0.296754,-0.14029 -0.324574,-0.24668 -0.05436,-0.20788 -0.45125,-0.39822 -0.830352,-0.39822 -0.168786,0 -0.255955,-0.0745 -0.30203,-0.25805 -0.04513,-0.17982 -0.154179,-0.27593 -0.359725,-0.31704 -0.196345,-0.0393 -0.314757,-0.13787 -0.354176,-0.29493 -0.03762,-0.14987 -0.180144,-0.27597 -0.390709,-0.34567 -0.18232,-0.0604 -0.464834,-0.22455 -0.627807,-0.36487 -0.162974,-0.14032 -0.375988,-0.25513 -0.473365,-0.25513 -0.101833,0 -0.203147,-0.10399 -0.238481,-0.24477 -0.03801,-0.15146 -0.178303,-0.28551 -0.367997,-0.35164 -0.16861,-0.0588 -0.306564,-0.17908 -0.306564,-0.26733 0,-0.0883 -0.126205,-0.21659 -0.280454,-0.28519 -0.358381,-0.15937 -3.348793,-3.14686 -3.44112,-3.43775 -0.03822,-0.12043 -0.180248,-0.26943 -0.31561,-0.3311 -0.135362,-0.0617 -0.246112,-0.19171 -0.246112,-0.28895 0,-0.0973 -0.137678,-0.3242 -0.30595,-0.50433 -0.30121,-0.32245 -0.30595,-0.34475 -0.30595,-1.43944 0,-1.07361 0.01054,-1.12646 0.30595,-1.53426 0.168272,-0.2323 0.30595,-0.46589 0.30595,-0.51911 0,-0.0532 0.139429,-0.24137 0.309842,-0.41813 0.570326,-0.59154 0.770097,-0.82882 1.021304,-1.21303 0.137277,-0.20995 0.30426,-0.38205 0.371075,-0.38243 0.06681,-3.9e-4 0.329012,-0.19574 0.582662,-0.43413 0.25365,-0.23838 0.716585,-0.67436 1.028744,-0.96884 0.31216,-0.29447 0.610966,-0.53541 0.664014,-0.53541 0.05305,0 0.167646,-0.13768 0.254663,-0.30595 0.09561,-0.18489 0.238745,-0.30595 0.361747,-0.30595 0.117715,0 0.252137,-0.10667 0.318807,-0.253 0.0634,-0.13915 0.211567,-0.28302 0.329259,-0.31971 0.117692,-0.0367 0.326935,-0.17869 0.464985,-0.31554 0.138049,-0.13686 0.398237,-0.31035 0.578195,-0.38554 0.179957,-0.0752 0.378396,-0.23238 0.440975,-0.34931 0.06258,-0.11693 0.196813,-0.2126 0.298297,-0.2126 0.101483,0 0.317858,-0.11716 0.480832,-0.26036 0.162974,-0.1432 0.441773,-0.32288 0.619553,-0.3993 0.17778,-0.0764 0.374438,-0.23461 0.437017,-0.35154 0.06258,-0.11693 0.202353,-0.2126 0.310609,-0.2126 0.108257,0 0.353636,-0.13767 0.545288,-0.30595 0.191651,-0.16827 0.425728,-0.30595 0.520169,-0.30595 0.290025,0 0.566236,-0.20074 0.566236,-0.41152 0,-0.14642 0.06953,-0.20038 0.258233,-0.20038 0.366924,0 0.965565,-0.26976 0.965565,-0.43511 0,-0.0883 0.196664,-0.17449 0.535412,-0.23466 0.395393,-0.0702 0.560553,-0.15235 0.631548,-0.31403 0.0719,-0.16374 0.219723,-0.23532 0.586349,-0.28396 0.365949,-0.0485 0.531979,-0.12877 0.654972,-0.31648 0.122943,-0.18763 0.25493,-0.25145 0.520046,-0.25145 0.259889,0 0.428881,-0.0788 0.629374,-0.29341 0.234607,-0.25115 0.380738,-0.30413 1.0145,-0.36777 0.623864,-0.0627 0.765593,-0.11279 0.900375,-0.31849 0.144026,-0.21981 0.23254,-0.24413 0.888573,-0.24413 0.606166,0 0.749013,0.0327 0.849996,0.19436 0.06676,0.1069 0.295789,0.25036 0.508952,0.3188 0.213164,0.0684 0.482866,0.24034 0.599339,0.38198 0.210594,0.2561 0.222721,0.25778 2.185096,0.30153 l 1.973327,0.044 0.277923,0.29752 c 0.214252,0.22936 0.368145,0.29752 0.671747,0.29752 0.306256,0 0.416209,0.0496 0.494495,0.22286 0.05537,0.12258 0.225728,0.2637 0.378575,0.3136 0.292709,0.0956 0.854271,0.60746 1.132895,1.0327 0.09091,0.13874 0.300354,0.33204 0.465437,0.42956 0.203408,0.12015 0.32098,0.28832 0.364771,0.52175 0.04225,0.22519 0.148279,0.38256 0.306268,0.45454 0.192346,0.0876 0.255149,0.21673 0.307825,0.63271 0.09355,0.7388 0.139594,0.86141 0.348337,0.92766 0.160357,0.0509 0.193918,0.23185 0.256495,1.383 0.0396,0.72844 0.04031,1.79742 0.0016,2.37552 -0.06282,0.93782 -0.09375,1.06135 -0.286968,1.14631 -0.155553,0.0684 -0.242159,0.23649 -0.307436,0.5967 -0.05903,0.32575 -0.177475,0.57597 -0.337992,0.71404 -0.160782,0.1383 -0.267418,0.36393 -0.305228,0.64583 -0.04203,0.31335 -0.105209,0.43327 -0.228258,0.43327 -0.222845,0 -0.414901,0.19827 -0.414901,0.42833 0,0.10096 -0.0645,0.18357 -0.143326,0.18357 -0.07883,0 -0.33558,0.16062 -0.570557,0.35694 -0.234976,0.19632 -0.467199,0.35694 -0.516049,0.35694 -0.04885,0 -0.229659,0.13768 -0.4018,0.30595 -0.17214,0.16827 -0.389201,0.30595 -0.482356,0.30595 -0.09316,0 -0.301081,0.12621 -0.462056,0.28046 l -0.29268,0.28045 h -2.73862 c -2.714402,0 -2.74082,-0.002 -2.987452,-0.23371 -0.136857,-0.12853 -0.427412,-0.28301 -0.645675,-0.34327 -0.218265,-0.0603 -0.547592,-0.24192 -0.731839,-0.40369 -0.184246,-0.16177 -0.394869,-0.29412 -0.46805,-0.29412 -0.07318,0 -0.183518,-0.11075 -0.245193,-0.24611 -0.06167,-0.13537 -0.218192,-0.27963 -0.347815,-0.32058 -0.129624,-0.041 -0.297482,-0.16229 -0.373019,-0.26963 -0.08963,-0.12737 -0.231334,-0.18428 -0.407933,-0.16384 -0.21926,0.0254 -0.296894,0.11444 -0.409231,0.46948 -0.186541,0.58956 -0.07593,1.46047 0.232668,1.83202 0.14999,0.18058 0.254537,0.47778 0.295604,0.84031 0.04732,0.41776 0.125798,0.61296 0.307506,0.76487 0.150272,0.12563 0.267635,0.36063 0.305591,0.6119 0.0398,0.26346 0.153062,0.48153 0.319815,0.61573 0.151503,0.12193 0.258194,0.31273 0.258194,0.46173 0,0.3004 0.260796,0.70725 0.453357,0.70725 0.07471,0 0.164794,0.15432 0.200179,0.34294 0.03538,0.18861 0.160136,0.42955 0.277225,0.53541 0.117089,0.10586 0.281106,0.36284 0.364481,0.57106 0.08338,0.20823 0.234524,0.40491 0.335885,0.43709 0.101362,0.0322 0.215075,0.18305 0.252698,0.33529 0.03762,0.15224 0.176248,0.39153 0.308059,0.53175 0.13181,0.14023 0.279908,0.41559 0.329106,0.6119 0.05188,0.20701 0.180423,0.39779 0.306018,0.45419 0.189986,0.0853 0.225347,0.21436 0.288113,1.05154 0.08446,1.12656 0.02389,1.70481 -0.20509,1.95783 -0.09171,0.10134 -0.438267,0.28325 -0.770118,0.40425 -0.331852,0.121 -0.630551,0.26399 -0.663776,0.31775 -0.09976,0.1614 -0.395166,0.10338 -0.558288,-0.10966 z m -0.708514,-2.6535 c 0.299509,-0.29951 0.248286,-1.12326 -0.07877,-1.26678 -0.124508,-0.0546 -0.253093,-0.22097 -0.285744,-0.36963 -0.03265,-0.14866 -0.169335,-0.3736 -0.303743,-0.49987 -0.134407,-0.12627 -0.273228,-0.36093 -0.30849,-0.52148 -0.03526,-0.16054 -0.175319,-0.37938 -0.311239,-0.48629 -0.13592,-0.10691 -0.247128,-0.24355 -0.247128,-0.30364 0,-0.0601 -0.133741,-0.26158 -0.297203,-0.44775 -0.16346,-0.18617 -0.327899,-0.50213 -0.365418,-0.70212 -0.03752,-0.2 -0.176054,-0.47993 -0.307858,-0.62207 -0.131802,-0.14214 -0.269479,-0.4175 -0.305949,-0.6119 -0.03647,-0.1944 -0.17711,-0.47295 -0.312535,-0.619 -0.175816,-0.18961 -0.273545,-0.45845 -0.341759,-0.94013 -0.0885,-0.6249 -0.208883,-0.9067 -0.465884,-1.09054 -0.06371,-0.0456 -0.100622,-1.07885 -0.09836,-2.75355 0.0035,-2.57114 0.01268,-2.69523 0.225402,-3.03907 0.121975,-0.19717 0.273126,-0.59793 0.335892,-0.8906 0.107839,-0.50283 0.136416,-0.53812 0.519356,-0.64123 0.222882,-0.06 0.498427,-0.20231 0.612324,-0.31621 0.113897,-0.1139 0.214735,-0.19179 0.224083,-0.17309 0.16524,0.33048 0.280188,0.44762 0.466336,0.47524 0.123498,0.0183 0.265332,0.14059 0.315188,0.27172 0.04986,0.13113 0.179317,0.26656 0.28769,0.30096 0.146287,0.0464 0.214511,0.19421 0.264848,0.57367 0.05325,0.40137 0.119266,0.53457 0.307479,0.62032 0.169568,0.0773 0.258102,0.22444 0.302671,0.50316 0.03824,0.23912 0.182938,0.51665 0.368177,0.70615 0.167849,0.17171 0.305181,0.38184 0.305181,0.46696 0,0.0851 0.127147,0.19909 0.282549,0.25326 0.155403,0.0542 0.3275,0.20094 0.382437,0.32614 0.07496,0.17083 0.231387,0.25103 0.626767,0.32133 0.388903,0.0692 0.553482,0.15207 0.628468,0.31665 0.133163,0.29226 0.525604,0.35215 2.312083,0.35285 1.579436,6.1e-4 2.147379,-0.10298 2.244638,-0.40942 0.03505,-0.11044 0.145573,-0.20079 0.245605,-0.20079 0.336537,0 0.815415,-0.21956 0.872726,-0.40013 0.03127,-0.0985 0.162025,-0.2354 0.290574,-0.3042 0.128548,-0.0688 0.318132,-0.28182 0.421298,-0.47339 0.103165,-0.19157 0.292588,-0.41711 0.420937,-0.50121 0.160618,-0.10524 0.254693,-0.29513 0.301785,-0.60917 0.04845,-0.32308 0.140381,-0.50341 0.314937,-0.61779 0.246419,-0.16146 0.246504,-0.16219 0.218571,-1.86578 -0.02717,-1.65686 -0.03432,-1.70707 -0.257406,-1.80494 -0.150073,-0.0658 -0.229659,-0.18933 -0.230031,-0.35694 -0.0014,-0.63111 -0.205635,-0.9767 -1.093543,-1.85043 -0.502243,-0.49422 -1.01598,-0.90839 -1.17142,-0.94438 -0.152272,-0.0353 -0.385831,-0.17309 -0.51902,-0.30628 -0.232687,-0.23268 -0.321317,-0.24512 -2.265573,-0.31802 -1.790208,-0.0671 -2.047594,-0.0984 -2.233225,-0.27134 -0.115396,-0.10751 -0.404053,-0.24438 -0.641459,-0.30416 -0.237407,-0.0598 -0.485508,-0.17359 -0.551337,-0.25291 -0.102479,-0.12348 -0.143251,-0.12375 -0.283538,-0.002 -0.09012,0.0783 -0.455558,0.16733 -0.812092,0.19785 -0.50155,0.0429 -0.709252,0.11273 -0.917849,0.30839 -0.148283,0.13909 -0.430229,0.28571 -0.626547,0.32581 -0.196318,0.0401 -0.50303,0.18261 -0.681583,0.3167 -0.178552,0.13408 -0.44398,0.24379 -0.58984,0.24379 -0.158948,0 -0.382499,0.11999 -0.557972,0.2995 -0.168945,0.17283 -0.456179,0.33015 -0.67913,0.37198 -0.212498,0.0399 -0.496277,0.1824 -0.630622,0.31674 -0.134344,0.13435 -0.381006,0.27162 -0.548137,0.30504 -0.167131,0.0334 -0.371653,0.16422 -0.454491,0.29064 -0.0892,0.13614 -0.33522,0.27636 -0.603328,0.34387 -0.287117,0.0723 -0.513571,0.20687 -0.619082,0.3679 -0.0915,0.13965 -0.249354,0.25391 -0.35078,0.25391 -0.101427,0 -0.322178,0.11592 -0.490557,0.2576 -0.168379,0.14168 -0.444227,0.30574 -0.612995,0.36457 -0.168768,0.0588 -0.379776,0.21827 -0.468906,0.3543 -0.08913,0.13603 -0.235747,0.24733 -0.325814,0.24733 -0.149201,0 -0.587762,0.32742 -1.259304,0.94017 -0.140227,0.12795 -0.376782,0.28594 -0.525678,0.3511 -0.148896,0.0652 -0.297932,0.2042 -0.331191,0.30899 -0.03326,0.10479 -0.198263,0.24254 -0.366676,0.3061 -0.168412,0.0636 -0.306204,0.18954 -0.306204,0.27994 0,0.0904 -0.119172,0.20967 -0.264826,0.26505 -0.145655,0.0554 -0.289606,0.19544 -0.319891,0.31125 -0.03028,0.11581 -0.164344,0.25211 -0.297909,0.30289 -0.133566,0.0508 -0.28678,0.20788 -0.340477,0.34912 -0.05501,0.1447 -0.178729,0.25678 -0.283424,0.25678 -0.227688,0 -0.908448,0.68842 -0.95806,0.96884 -0.0215,0.12152 -0.131714,0.21757 -0.272656,0.23763 -0.153116,0.0218 -0.272679,0.13723 -0.338928,0.32728 -0.0563,0.16149 -0.190199,0.3215 -0.297562,0.35557 -0.40705,0.1292 -0.376159,1.01802 0.05117,1.47244 0.133776,0.14226 0.259726,0.35008 0.279889,0.46184 0.02016,0.11175 0.162302,0.26341 0.315866,0.33701 0.153564,0.0736 0.279207,0.21379 0.279207,0.31152 0,0.22135 0.693393,0.90124 0.96884,0.94997 0.121518,0.0215 0.217572,0.13172 0.237624,0.27266 0.02159,0.15173 0.136787,0.27252 0.321228,0.33682 0.158165,0.0551 0.310788,0.18902 0.339162,0.29753 0.02837,0.1085 0.150187,0.23375 0.270696,0.27833 0.120508,0.0446 0.275136,0.19385 0.343617,0.33172 0.06848,0.13786 0.229093,0.26565 0.356915,0.28397 0.136285,0.0195 0.272818,0.13961 0.330121,0.29032 0.05374,0.14136 0.186811,0.28031 0.295705,0.30879 0.108894,0.0285 0.270023,0.16171 0.358065,0.29608 0.08804,0.13437 0.219595,0.24431 0.292342,0.24431 0.07275,0 0.319919,0.16062 0.549273,0.35694 0.229353,0.19632 0.511789,0.35694 0.627637,0.35694 0.129755,0 0.269945,0.1147 0.365107,0.29872 0.08496,0.1643 0.258236,0.33025 0.385056,0.36878 0.126819,0.0385 0.376595,0.17941 0.555057,0.31305 0.178462,0.13365 0.442344,0.28781 0.586404,0.34258 0.14406,0.0548 0.261927,0.14825 0.261927,0.20772 0,0.0595 0.195692,0.19201 0.434873,0.29454 0.23918,0.10252 0.496934,0.26119 0.572787,0.35258 0.07585,0.0914 0.327612,0.21638 0.559464,0.27774 0.231852,0.0614 0.542632,0.22599 0.690623,0.36585 0.159037,0.1503 0.440553,0.27729 0.688387,0.31054 0.230622,0.0309 0.419312,0.0961 0.419312,0.14479 0,0.18428 0.418232,0.49649 0.665078,0.49649 0.141429,0 0.438891,0.12027 0.661025,0.26727 0.231391,0.15313 0.611561,0.29021 0.890166,0.32097 0.330944,0.0365 0.558032,0.13034 0.71088,0.29363 0.275228,0.29404 0.379283,0.29896 0.647633,0.0306 z"
         id="path4803"
         inkscape:connector-curvature="0"
         transform="matrix(0.26458333,0,0,0.26458333,0,196.45832)" />
      <path
         style="opacity:1;fill:#ffffff;fill-opacity:1;stroke:#ef483e;stroke-width:0.75590551;stroke-linejoin:round;stroke-miterlimit:4;stroke-dasharray:none;stroke-opacity:1"
         d="m -7.7352453,744.0459 c -0.058941,-0.16908 -0.2028464,-0.33778 -0.3197903,-0.3749 -0.1952039,-0.062 -0.2126254,-0.14432 -0.2126254,-1.00527 0,-0.8747 0.015436,-0.94456 0.2294623,-1.03845 0.1729985,-0.0759 0.2525641,-0.23062 0.3233454,-0.62874 0.066362,-0.37327 0.1478543,-0.54218 0.2779974,-0.57622 0.1012628,-0.0265 0.2423806,-0.17893 0.3135948,-0.33879 0.071214,-0.15985 0.2302308,-0.37215 0.3533698,-0.47177 0.1231389,-0.0996 0.2524371,-0.27108 0.2873291,-0.38101 0.034892,-0.10994 0.1982282,-0.33467 0.3629693,-0.49941 0.1647412,-0.16475 0.2995295,-0.39599 0.2995295,-0.51387 0,-0.13414 0.094328,-0.2502 0.2521098,-0.31019 0.1388296,-0.0528 0.2806638,-0.20962 0.3156582,-0.34905 0.034952,-0.13925 0.1734939,-0.32523 0.3078717,-0.41328 0.1615202,-0.10583 0.2661798,-0.29677 0.3088146,-0.56339 0.043736,-0.27351 0.1279679,-0.42346 0.2617264,-0.46591 0.2138699,-0.0679 0.3895174,-0.42968 0.3895174,-0.80234 0,-0.12869 0.1411047,-0.50759 0.3135661,-0.84198 l 0.313566,-0.608 -0.00268,-2.75056 c -0.00147,-1.51281 -0.035657,-2.84043 -0.075965,-2.95025 -0.040308,-0.10983 -0.1802083,-0.32941 -0.3108889,-0.48796 -0.183346,-0.22246 -0.2376012,-0.41299 -0.2376012,-0.83442 0,-0.49042 -0.031214,-0.56837 -0.3059497,-0.76399 -0.1998085,-0.14228 -0.3059497,-0.30602 -0.3059497,-0.47199 0,-0.13977 -0.1606235,-0.4645 -0.3569413,-0.72161 -0.1963177,-0.25711 -0.3569413,-0.53069 -0.3569413,-0.60796 0,-0.0773 -0.1100404,-0.19064 -0.2445342,-0.25192 -0.135775,-0.0619 -0.2694713,-0.23098 -0.3006025,-0.38025 -0.078947,-0.37853 -0.7442613,-1.37268 -0.9760114,-1.45841 -0.1063459,-0.0393 -0.2242807,-0.21233 -0.2620773,-0.38442 -0.047424,-0.21592 -0.1452151,-0.33208 -0.315555,-0.37483 -0.1726393,-0.0433 -0.2468339,-0.13327 -0.2468339,-0.29922 0,-0.38592 -0.1917283,-0.77635 -0.4091608,-0.83321 -0.1842227,-0.0482 -0.2027386,-0.14073 -0.2027386,-1.01336 v -0.96035 l 0.3797666,-0.37904 0.3797665,-0.37903 1.6294304,0.0106 c 1.1430482,0.007 1.6412754,0.0461 1.669112,0.12962 0.061613,0.18484 0.5317613,0.38687 1.0893368,0.46811 0.3322244,0.0484 0.5830032,0.15572 0.7269969,0.31109 0.1422335,0.15347 0.3951725,0.26303 0.7166235,0.3104 0.3143552,0.0463 0.586936,0.16242 0.74223688,0.31612 0.13498929,0.1336 0.36445156,0.27183 0.50991616,0.30718 0.1454646,0.0353 0.4152285,0.19504 0.59947528,0.35488 0.22679225,0.19674 0.44691897,0.2906 0.68151447,0.2906 0.24746841,0 0.36362081,0.0539 0.40634451,0.18849 0.068848,0.21693 0.4660742,0.42341 0.8145203,0.42341 0.1682448,0 0.2575627,0.0736 0.301389,0.24816 0.034256,0.13649 0.1629192,0.28011 0.2859171,0.31914 0.122999,0.039 0.4377416,0.20272 0.6994296,0.36374 0.2616869,0.16102 0.5521678,0.29276 0.645511,0.29276 0.093343,0 0.2137151,0.11573 0.2674918,0.25717 0.0636,0.16729 0.2023348,0.27809 0.3969147,0.317 0.1645255,0.0329 0.4262777,0.19254 0.5816705,0.35473 0.1553929,0.1622 0.345867,0.2949 0.4232753,0.2949 0.077409,0 0.3097588,0.16607 0.5163319,0.36905 0.6546212,0.64322 0.7876726,0.75277 0.914294,0.75277 0.067979,0 0.2958268,0.15453 0.5063294,0.34341 0.2105015,0.18887 0.4836412,0.37479 0.6069766,0.41315 0.1233345,0.0383 0.252791,0.15968 0.2876815,0.2696 0.034889,0.10993 0.1978607,0.26939 0.3621577,0.35435 0.1642971,0.085 0.2987222,0.22126 0.2987222,0.30289 0,0.0816 0.1180782,0.17804 0.2623957,0.21427 0.1449528,0.0364 0.3038927,0.175 0.3551117,0.30972 0.050995,0.13412 0.2019982,0.28541 0.335564,0.33619 0.133565,0.0508 0.267625,0.18709 0.29791,0.3029 0.03028,0.1158 0.167962,0.25348 0.30595,0.30594 0.137987,0.0525 0.275664,0.19015 0.305949,0.30595 0.03028,0.11581 0.170719,0.25454 0.312077,0.30828 0.150717,0.0573 0.27079,0.19384 0.290323,0.33012 0.01832,0.12783 0.14804,0.28926 0.288267,0.35873 0.196662,0.0974 0.270836,0.23436 0.324399,0.59881 0.03819,0.25986 0.187345,0.64261 0.331446,0.85055 0.349877,0.50487 0.355319,1.10742 0.01367,1.51344 -0.136585,0.16233 -0.281976,0.42973 -0.323091,0.59423 -0.04112,0.16451 -0.20472,0.42077 -0.363565,0.56948 -0.176403,0.16515 -0.288808,0.37556 -0.288808,0.54062 0,0.20829 -0.07597,0.30219 -0.331445,0.40965 -0.387235,0.16288 -0.839879,0.61918 -0.938686,0.94626 -0.03808,0.12607 -0.175393,0.25586 -0.305129,0.28843 -0.2837871,0.0712 -0.8235211,0.61866 -0.9172957,0.93039 -0.037102,0.12333 -0.1683692,0.25562 -0.2917037,0.29398 -0.2093348,0.0651 -0.6995152,0.43755 -1.2935339,0.98285 -0.1393825,0.12795 -0.3803179,0.31227 -0.5354119,0.40961 -0.1550941,0.0973 -0.2819898,0.24648 -0.2819898,0.33144 0,0.085 -0.084673,0.15448 -0.1881601,0.15448 -0.2046803,0 -0.5257225,0.30072 -0.5257225,0.49245 0,0.0657 -0.090188,0.11945 -0.2004174,0.11945 -0.1102307,0 -0.351166,0.12803 -0.535412,0.28451 -0.184247,0.15649 -0.4657839,0.34116 -0.6256386,0.41039 -0.1598536,0.0692 -0.3132282,0.21224 -0.340832,0.3178 -0.031049,0.11872 -0.1765146,0.21562 -0.3814326,0.25406 -0.1821849,0.0342 -0.4371175,0.17484 -0.5665179,0.31258 -0.1294004,0.13774 -0.3891486,0.30122 -0.5772179,0.36329 -0.1880693,0.0621 -0.3419447,0.17651 -0.3419447,0.25433 0,0.17939 -0.31877,0.35262 -0.648902,0.35262 -0.2381198,0 -0.3214388,0.0579 -0.6554051,0.45538 -0.072325,0.0861 -0.2364219,0.15652 -0.36466,0.15652 -0.12823799,0 -0.34175896,0.11559 -0.47449105,0.25688 -0.13651904,0.14532 -0.4071651,0.2834 -0.6231665,0.31794 -0.21000958,0.0336 -0.48536431,0.17126 -0.61189939,0.30595 -0.12653506,0.13469 -0.40188976,0.27237 -0.61189936,0.30595 -0.2100096,0.0336 -0.4831056,0.16886 -0.60688,0.30061 -0.1652192,0.17587 -0.3847013,0.25761 -0.8256247,0.3075 -0.4797554,0.0543 -0.6426481,0.12143 -0.8096849,0.33378 -0.2090701,0.26579 -0.209403,0.26584 -2.0225751,0.30349 l -1.8134705,0.0377 z m 3.0890304,-1.95878 c 0.1481027,-0.0563 0.3379381,-0.17104 0.4218565,-0.25496 0.083918,-0.0839 0.3069369,-0.15258 0.4955967,-0.15258 0.4737571,0 0.8369585,-0.1551 0.9112386,-0.38914 0.046266,-0.14577 0.186558,-0.21084 0.5406264,-0.25075 0.3417998,-0.0385 0.5373103,-0.12551 0.6856252,-0.30504 0.1306138,-0.1581 0.3586061,-0.27397 0.61541156,-0.31276 0.26346225,-0.0398 0.48152504,-0.15306 0.61573039,-0.31981 0.11428852,-0.14201 0.28866425,-0.2582 0.3875015,-0.2582 0.24983781,0 0.74556422,-0.26923 0.81134259,-0.44065 0.0300216,-0.0782 0.18608236,-0.16855 0.34680166,-0.20069 0.1607193,-0.0321 0.4101226,-0.16771 0.5542293,-0.30127 0.1441074,-0.13355 0.4181129,-0.28706 0.6089021,-0.34113 0.1975915,-0.056 0.3902164,-0.19593 0.4475595,-0.32513 0.055369,-0.12475 0.1782952,-0.22683 0.2731692,-0.22683 0.094874,0 0.2413372,-0.0688 0.3254734,-0.15297 0.084136,-0.0841 0.1771612,-0.15298 0.206722,-0.15298 0.1428581,0 0.8417401,-0.55093 0.9465717,-0.74618 0.065391,-0.1218 0.2260142,-0.24616 0.3569413,-0.27637 0.1309271,-0.0302 0.2816736,-0.1528 0.3349925,-0.27241 0.053319,-0.11961 0.2254155,-0.24317 0.3824371,-0.27457 0.2181584,-0.0436 0.2854939,-0.11523 0.2854939,-0.30355 0,-0.18286 0.07124,-0.26433 0.2760747,-0.31574 0.3631633,-0.0911 0.7597822,-0.43142 2.5275708,-2.1685 1.2969793,-1.27444 1.4843913,-1.50045 1.5417693,-1.85927 0.03593,-0.22465 0.128428,-0.46084 0.205565,-0.52486 0.07714,-0.064 0.140249,-0.18292 0.140249,-0.26422 0,-0.26614 -0.533308,-1.06494 -0.771434,-1.15548 -0.130051,-0.0494 -0.2474715,-0.19218 -0.2660814,-0.32346 -0.018319,-0.12922 -0.1335705,-0.27896 -0.2561135,-0.33276 -0.1225431,-0.0538 -0.2701322,-0.20167 -0.3279771,-0.32863 -0.057845,-0.12695 -0.2188376,-0.25936 -0.3577622,-0.29422 -0.1535062,-0.0385 -0.2648811,-0.14865 -0.2839224,-0.28072 -0.017233,-0.11952 -0.1231172,-0.26436 -0.2352987,-0.32185 -0.1965778,-0.10075 -0.5290942,-0.38582 -1.0746636,-0.92134 -0.1423391,-0.13971 -0.3029627,-0.25413 -0.3569414,-0.25426 -0.053979,-1.3e-4 -0.2587671,-0.14157 -0.4550848,-0.3143 -0.1963177,-0.17274 -0.4726158,-0.35702 -0.6139952,-0.40951 -0.1413803,-0.0525 -0.3020039,-0.1979 -0.3569413,-0.3231 -0.054938,-0.1252 -0.2056186,-0.24263 -0.3348446,-0.26095 -0.1328005,-0.0188 -0.2741584,-0.13642 -0.3251205,-0.27046 -0.053594,-0.14096 -0.2338424,-0.28457 -0.4444113,-0.35406 -0.1948369,-0.0643 -0.3759418,-0.17344 -0.4024554,-0.24254 -0.026515,-0.0691 -0.2248424,-0.21602 -0.4407287,-0.32651 -0.2158873,-0.11049 -0.4769368,-0.30415 -0.5801122,-0.43035 -0.1031754,-0.1262 -0.2698262,-0.22946 -0.3703358,-0.22946 -0.1005096,0 -0.3381142,-0.13695 -0.52801,-0.30432 -0.189896,-0.16738 -0.4239948,-0.30506 -0.5202198,-0.30595 -0.096225,-9e-4 -0.31353956,-0.1371 -0.48292147,-0.30268 -0.16938191,-0.16557 -0.4670628,-0.33089 -0.66151321,-0.36737 -0.20632564,-0.0387 -0.41847942,-0.16543 -0.50948171,-0.30432 -0.10845151,-0.16551 -0.29487268,-0.25882 -0.61220013,-0.3064 -0.31910628,-0.0479 -0.50364778,-0.14074 -0.61388698,-0.30899 -0.1152728,-0.17593 -0.2893308,-0.25803 -0.6478359,-0.30559 -0.3666261,-0.0486 -0.5144504,-0.12022 -0.5863494,-0.28396 -0.074661,-0.17002 -0.236287,-0.24171 -0.7235474,-0.32091 -0.3450765,-0.0561 -0.7158297,-0.1823 -0.823896,-0.28045 -0.2213918,-0.2011 -0.5567449,-0.22986 -0.8500194,-0.0729 -0.2351846,0.12586 -0.2574298,0.43141 -0.044287,0.60831 0.084136,0.0698 0.1529749,0.22918 0.1529749,0.35412 0,0.12495 0.1319486,0.40932 0.2932193,0.63195 0.1612706,0.22263 0.3258747,0.50767 0.3657868,0.63342 0.039912,0.12575 0.1810641,0.27807 0.3136712,0.33849 0.1354098,0.0617 0.2682856,0.23362 0.3031101,0.39217 0.040225,0.18314 0.1462902,0.30347 0.3019404,0.34253 0.1866413,0.0468 0.2558402,0.15437 0.3115474,0.4841 0.040153,0.23766 0.1735185,0.51832 0.3035761,0.63885 0.1275794,0.11824 0.291188,0.41266 0.3635748,0.65426 0.072387,0.24161 0.2084513,0.4935 0.3023654,0.55977 0.097653,0.0689 0.2024546,0.33879 0.2448042,0.63041 0.040728,0.28045 0.1824865,0.70598 0.3150184,0.94562 0.2683524,0.48522 0.2984494,0.66663 0.4606664,2.77676 0.093113,1.21123 0.085023,1.79913 -0.044718,3.24956 -0.1487074,1.66248 -0.1741408,1.7854 -0.4157401,2.0093 -0.1903634,0.17643 -0.2573425,0.342 -0.2573425,0.63618 0,0.30273 -0.073046,0.47411 -0.3059497,0.71782 -0.194041,0.20305 -0.3059497,0.42686 -0.3059497,0.6119 0,0.18375 -0.1110522,0.40796 -0.2999831,0.60566 -0.1649907,0.17264 -0.3299947,0.47388 -0.3666754,0.6694 -0.048987,0.26112 -0.1313804,0.37174 -0.3103631,0.41666 -0.1455623,0.0365 -0.2689089,0.16171 -0.3063542,0.31091 -0.034476,0.13736 -0.1470705,0.27653 -0.2502103,0.30926 -0.1031399,0.0327 -0.2368974,0.20648 -0.2972389,0.3861 -0.060341,0.17961 -0.2467467,0.48194 -0.4142338,0.67183 -0.1674871,0.1899 -0.304522,0.42922 -0.304522,0.53183 0,0.10261 -0.088677,0.23402 -0.1970597,0.29202 -0.2924318,0.15651 -0.3634927,0.49259 -0.1532675,0.72489 0.1993106,0.22023 0.4134642,0.24515 0.8102931,0.0943 z"
         id="path4805"
         inkscape:connector-curvature="0"
         transform="matrix(0.26458333,0,0,0.26458333,0,196.45832)" />
    </g>
  </g>
</svg>
