<?xml version="1.0" encoding="UTF-8" standalone="no"?>
<!-- Generator: Adobe Illustrator 19.0.0, SVG Export Plug-In . SVG Version: 6.00 Build 0)  -->

<svg
   xmlns:dc="http://purl.org/dc/elements/1.1/"
   xmlns:cc="http://creativecommons.org/ns#"
   xmlns:rdf="http://www.w3.org/1999/02/22-rdf-syntax-ns#"
   xmlns:svg="http://www.w3.org/2000/svg"
   xmlns="http://www.w3.org/2000/svg"
   xmlns:sodipodi="http://sodipodi.sourceforge.net/DTD/sodipodi-0.dtd"
   xmlns:inkscape="http://www.inkscape.org/namespaces/inkscape"
   version="1.1"
   id="Capa_1"
   x="0px"
   y="0px"
   viewBox="0 0 480 480"
   style="enable-background:new 0 0 480 480;"
   xml:space="preserve"
   sodipodi:docname="agncy.svg"
   inkscape:version="0.92.4 (5da689c313, 2019-01-14)"><metadata
   id="metadata1071"><rdf:RDF><cc:Work
       rdf:about=""><dc:format>image/svg+xml</dc:format><dc:type
         rdf:resource="http://purl.org/dc/dcmitype/StillImage" /><dc:title></dc:title></cc:Work></rdf:RDF></metadata><defs
   id="defs1069">
	
	
</defs><sodipodi:namedview
   pagecolor="#ffffff"
   bordercolor="#666666"
   borderopacity="1"
   objecttolerance="10"
   gridtolerance="10"
   guidetolerance="10"
   inkscape:pageopacity="0"
   inkscape:pageshadow="2"
   inkscape:window-width="1366"
   inkscape:window-height="705"
   id="namedview1067"
   showgrid="false"
   inkscape:zoom="0.27916667"
   inkscape:cx="752.55954"
   inkscape:cy="218.54599"
   inkscape:window-x="-8"
   inkscape:window-y="-8"
   inkscape:window-maximized="1"
   inkscape:current-layer="g1119" />



































<g
   id="g1036">
</g>
<g
   id="g1038">
</g>
<g
   id="g1040">
</g>
<g
   id="g1042">
</g>
<g
   id="g1044">
</g>
<g
   id="g1046">
</g>
<g
   id="g1048">
</g>
<g
   id="g1050">
</g>
<g
   id="g1052">
</g>
<g
   id="g1054">
</g>
<g
   id="g1056">
</g>
<g
   id="g1058">
</g>
<g
   id="g1060">
</g>
<g
   id="g1062">
</g>
<g
   id="g1064">
</g>
<g
   style="stroke:#0000ff"
   id="g1170"
   transform="translate(1370.2348,-68.626927)">
</g><g
   style="stroke:#0000ff"
   id="g1172"
   transform="translate(1370.2348,-68.626927)">
</g><g
   style="stroke:#0000ff"
   id="g1174"
   transform="translate(1370.2348,-68.626927)">
</g><g
   style="stroke:#0000ff"
   id="g1176"
   transform="translate(1370.2348,-68.626927)">
</g><g
   style="stroke:#0000ff"
   id="g1178"
   transform="translate(1370.2348,-68.626927)">
</g><g
   style="stroke:#0000ff"
   id="g1180"
   transform="translate(1370.2348,-68.626927)">
</g><g
   style="stroke:#0000ff"
   id="g1182"
   transform="translate(1370.2348,-68.626927)">
</g><g
   style="stroke:#0000ff"
   id="g1184"
   transform="translate(1370.2348,-68.626927)">
</g><g
   style="stroke:#0000ff"
   id="g1186"
   transform="translate(1370.2348,-68.626927)">
</g><g
   style="stroke:#0000ff"
   id="g1188"
   transform="translate(1370.2348,-68.626927)">
</g><g
   style="stroke:#0000ff"
   id="g1190"
   transform="translate(1370.2348,-68.626927)">
</g><g
   style="stroke:#0000ff"
   id="g1192"
   transform="translate(1370.2348,-68.626927)">
</g><g
   style="stroke:#0000ff"
   id="g1194"
   transform="translate(1370.2348,-68.626927)">
</g><g
   style="stroke:#0000ff"
   id="g1196"
   transform="translate(1370.2348,-68.626927)">
</g><g
   style="stroke:#0000ff"
   id="g1198"
   transform="translate(1370.2348,-68.626927)">
</g><g
   id="g1119"
   transform="matrix(7.5377949,0,0,7.5377949,-8.373621,2.3726539)"
   style="fill:#4e4e9d;fill-opacity:1"><path
     id="path1073"
     d="m 58.11901,23.39198 c 1.86,-1.26 3.085,-3.389 3.085,-5.8 0,-3.86 -3.141,-7.000002 -7,-7.000002 V 0.59197754 H 2.2040112 V 42.59198 H 16.76001 c 0.694,1.19 1.97,2 3.444,2 v 10.5 c 0,1.93 1.57,3.5 3.5,3.5 0.98,0 1.864,-0.407 2.5,-1.058 0.636,0.651 1.52,1.058 2.5,1.058 1.93,0 3.5,-1.57 3.5,-3.5 v -9.056 c 0.591,0.344 1.268,0.556 2,0.556 v 12.5 c 0,1.93 1.57,3.5 3.5,3.5 0.98,0 1.864,-0.407 2.5,-1.058 0.636,0.651 1.52,1.058 2.5,1.058 1.93,0 3.5,-1.57 3.5,-3.5 v -12.5 c 0.732,0 1.409,-0.212 2,-0.556 v 9.056 c 0,1.93 1.57,3.5 3.5,3.5 0.98,0 1.864,-0.407 2.5,-1.058 0.636,0.651 1.52,1.058 2.5,1.058 1.93,0 3.5,-1.57 3.5,-3.5 v -10.5 c 2.206,0 4,-1.794 4,-4 v -8 c 0,-4.125 -2.512,-7.674 -6.085,-9.2 z m 1.085,-5.8 c 0,2.757 -2.243,5 -5,5 -2.757,0 -5,-2.243 -5,-5 0,-2.757 2.243,-5 5,-5 2.757,0 5,2.243 5,5 z m -7,-15.0000024 v 6 H 4.2040112 v -6 z M 4.2040112,40.59198 V 10.591978 h 21.9999988 26 v 0.295001 c -2.887,0.863001 -5,3.541001 -5,6.705001 0,2.414 1.229,4.547 3.093,5.805 -2.121,0.905 -3.898,2.528 -4.978,4.618 -0.386,-0.231 -0.783,-0.445 -1.2,-0.623 1.86,-1.26 3.085,-3.389 3.085,-5.8 0,-3.86 -3.141,-7 -7,-7 -3.859,0 -7,3.14 -7,7 0,2.411 1.225,4.54 3.085,5.8 -0.417,0.178 -0.814,0.392 -1.2,0.623 -1.079,-2.089 -2.857,-3.713 -4.978,-4.618 1.864,-1.258 3.093,-3.391 3.093,-5.805 0,-3.86 -3.141,-7.000002 -7,-7.000002 -3.859,0 -7,3.140002 -7,7.000002 0,2.411 1.225,4.54 3.085,5.8 -3.573,1.526 -6.085,5.075 -6.085,9.2 v 8 z m 30.9999988,-19 c 0,-2.757 2.243,-5 5,-5 2.757,0 5,2.243 5,5 0,2.757 -2.243,5 -5,5 -2.757,0 -5,-2.243 -5,-5 z m -14,-4 c 0,-2.757 2.243,-5 5,-5 2.757,0 5,2.243 5,5 0,2.757 -2.243,5 -5,5 -2.757,0 -5,-2.243 -5,-5 z m 9,37.5 c 0,0.827 -0.673,1.5 -1.5,1.5 -0.827,0 -1.5,-0.673 -1.5,-1.5 v -16.5 h -2 v 16.5 c 0,0.827 -0.673,1.5 -1.5,1.5 -0.827,0 -1.5,-0.673 -1.5,-1.5 v -23.5 h -2 v 11 c -1.103,0 -2,-0.897 -2,-2 v -8 c 0,-4.411 3.589,-8 8,-8 3.124,0 5.943,1.852 7.241,4.652 -1.987,1.828 -3.241,4.441 -3.241,7.348 v 1 5 z m 16,-10.5 v -9 h -2 v 23.5 c 0,0.827 -0.673,1.5 -1.5,1.5 -0.827,0 -1.5,-0.673 -1.5,-1.5 v -16.5 h -2 v 16.5 c 0,0.827 -0.673,1.5 -1.5,1.5 -0.827,0 -1.5,-0.673 -1.5,-1.5 v -23.5 h -2 v 9 c -1.103,0 -2,-0.897 -2,-2 v -5 -1 c 0,-4.411 3.589,-8 8,-8 4.411,0 8,3.589 8,8 v 1 5 c 0,1.103 -0.897,2 -2,2 z m 16,-4 c 0,1.103 -0.897,2 -2,2 v -11 h -2 v 23.5 c 0,0.827 -0.673,1.5 -1.5,1.5 -0.827,0 -1.5,-0.673 -1.5,-1.5 v -16.5 h -2 v 16.5 c 0,0.827 -0.673,1.5 -1.5,1.5 -0.827,0 -1.5,-0.673 -1.5,-1.5 v -12.5 -5 -1 c 0,-2.907 -1.254,-5.52 -3.241,-7.348 1.298,-2.8 4.117,-4.652 7.241,-4.652 4.411,0 8,3.589 8,8 z"
     inkscape:connector-curvature="0"
     style="fill:#4e4e9d;fill-opacity:1" /><path
     id="path1075"
     d="M 5,5 H 7 V 7 H 5 Z"
     inkscape:connector-curvature="0"
     style="fill:#4e4e9d;fill-opacity:1" /><path
     id="path1077"
     d="m 9,5 h 2 V 7 H 9 Z"
     inkscape:connector-curvature="0"
     style="fill:#4e4e9d;fill-opacity:1" /><path
     id="path1079"
     d="m 13,5 h 2 v 2 h -2 z"
     inkscape:connector-curvature="0"
     style="fill:#4e4e9d;fill-opacity:1" /><path
     id="path1081"
     d="m 5,13 h 2 v 2 H 5 Z"
     inkscape:connector-curvature="0"
     style="fill:#4e4e9d;fill-opacity:1" /><path
     id="path1083"
     d="m 9,13 h 2 v 2 H 9 Z"
     inkscape:connector-curvature="0"
     style="fill:#4e4e9d;fill-opacity:1" /><path
     id="path1085"
     d="m 13,13 h 2 v 2 h -2 z"
     inkscape:connector-curvature="0"
     style="fill:#4e4e9d;fill-opacity:1" /><path
     id="path1087"
     d="m 5,17 h 10 v 2 H 5 Z"
     inkscape:connector-curvature="0"
     style="fill:#4e4e9d;fill-opacity:1" /><path
     id="path1089"
     d="m 5,21 h 10 v 2 H 5 Z"
     inkscape:connector-curvature="0"
     style="fill:#4e4e9d;fill-opacity:1" /><path
     id="path1091"
     d="m 5,25 h 10 v 2 H 5 Z"
     inkscape:connector-curvature="0"
     style="fill:#4e4e9d;fill-opacity:1" /><path
     id="path1093"
     d="m 5,29 h 8 v 2 H 5 Z"
     inkscape:connector-curvature="0"
     style="fill:#4e4e9d;fill-opacity:1" /><path
     id="path1095"
     d="m 5,33 h 8 v 2 H 5 Z"
     inkscape:connector-curvature="0"
     style="fill:#4e4e9d;fill-opacity:1" /><path
     id="path1097"
     d="m 5,37 h 8 v 2 H 5 Z"
     inkscape:connector-curvature="0"
     style="fill:#4e4e9d;fill-opacity:1" /></g></svg>