<?xml version="1.0" encoding="UTF-8" standalone="no"?>
<svg
   xmlns:dc="http://purl.org/dc/elements/1.1/"
   xmlns:cc="http://creativecommons.org/ns#"
   xmlns:rdf="http://www.w3.org/1999/02/22-rdf-syntax-ns#"
   xmlns:svg="http://www.w3.org/2000/svg"
   xmlns="http://www.w3.org/2000/svg"
   xmlns:sodipodi="http://sodipodi.sourceforge.net/DTD/sodipodi-0.dtd"
   xmlns:inkscape="http://www.inkscape.org/namespaces/inkscape"
   id="a02f2390-8fa7-48a9-96f1-2ec5f63ecbc1"
   data-name="Layer 1"
   width="1150"
   height="627.49"
   viewBox="0 0 1150 627.49"
   version="1.1"
   sodipodi:docname="Screen Adjustable.svg"
   inkscape:version="0.92.4 (5da689c313, 2019-01-14)">
  <metadata
     id="metadata11999">
    <rdf:RDF>
      <cc:Work
         rdf:about="">
        <dc:format>image/svg+xml</dc:format>
        <dc:type
           rdf:resource="http://purl.org/dc/dcmitype/StillImage" />
        <dc:title>teacher</dc:title>
      </cc:Work>
    </rdf:RDF>
  </metadata>
  <defs
     id="defs11997">
    <clipPath
       id="clipPath10930"
       clipPathUnits="userSpaceOnUse">
      <path
         inkscape:connector-curvature="0"
         id="path10928"
         d="M 0,500 H 500 V 0 H 0 Z" />
    </clipPath>
    <clipPath
       id="clipPath10938"
       clipPathUnits="userSpaceOnUse">
      <path
         inkscape:connector-curvature="0"
         id="path10936"
         d="M 35.2042,101.562 H 470.506 V 78.476 H 35.2042 Z" />
    </clipPath>
    <clipPath
       id="clipPath10970"
       clipPathUnits="userSpaceOnUse">
      <path
         inkscape:connector-curvature="0"
         id="path10968"
         d="M 0,500 H 500 V 0 H 0 Z" />
    </clipPath>
    <clipPath
       id="clipPath10986"
       clipPathUnits="userSpaceOnUse">
      <path
         inkscape:connector-curvature="0"
         id="path10984"
         d="m 119.299,359.43 h 37.543 v -27.704 h -37.543 z" />
    </clipPath>
    <clipPath
       id="clipPath11010"
       clipPathUnits="userSpaceOnUse">
      <path
         inkscape:connector-curvature="0"
         id="path11008"
         d="m 336.681,256.566 h 54.31 v -12.33 h -54.31 z" />
    </clipPath>
    <clipPath
       id="clipPath11210"
       clipPathUnits="userSpaceOnUse">
      <path
         inkscape:connector-curvature="0"
         id="path11208"
         d="m 237.136,347.528 h 3.506 v -40.206 h -3.506 z" />
    </clipPath>
    <clipPath
       id="clipPath11258"
       clipPathUnits="userSpaceOnUse">
      <path
         inkscape:connector-curvature="0"
         id="path11256"
         d="m 220.44,342.819 h 12.74 v -14.108 h -12.74 z" />
    </clipPath>
    <clipPath
       id="clipPath11274"
       clipPathUnits="userSpaceOnUse">
      <path
         inkscape:connector-curvature="0"
         id="path11272"
         d="M 233.768,371.494 H 252.11 V 342.819 H 233.768 Z" />
    </clipPath>
    <clipPath
       id="clipPath11430"
       clipPathUnits="userSpaceOnUse">
      <path
         inkscape:connector-curvature="0"
         id="path11428"
         d="m 169.938,306.663 h 15.748 v -5.175 h -15.748 z" />
    </clipPath>
    <clipPath
       id="clipPath11446"
       clipPathUnits="userSpaceOnUse">
      <path
         inkscape:connector-curvature="0"
         id="path11444"
         d="M 0,500 H 500 V 0 H 0 Z" />
    </clipPath>
  </defs>
  <sodipodi:namedview
     pagecolor="#ffffff"
     bordercolor="#666666"
     borderopacity="1"
     objecttolerance="10"
     gridtolerance="10"
     guidetolerance="10"
     inkscape:pageopacity="0"
     inkscape:pageshadow="2"
     inkscape:window-width="1366"
     inkscape:window-height="705"
     id="namedview11995"
     showgrid="false"
     inkscape:zoom="0.24695652"
     inkscape:cx="575"
     inkscape:cy="313.745"
     inkscape:window-x="-8"
     inkscape:window-y="-8"
     inkscape:window-maximized="1"
     inkscape:current-layer="a02f2390-8fa7-48a9-96f1-2ec5f63ecbc1" />
  <title
     id="title11838">teacher</title>
  <g
     id="g13999"
     transform="matrix(1.2440648,0,0,1.2440648,25.168512,-28.765983)">
    <g
       transform="matrix(1.3333333,0,0,-1.3333333,116.13851,620.68247)"
       id="g10924">
      <g
         clip-path="url(#clipPath10930)"
         id="g10926">
        <g
           id="g10932">
          <g
             id="g10934" />
          <g
             id="g10946">
            <g
               style="opacity:0.19000202"
               id="g10944"
               clip-path="url(#clipPath10938)">
              <g
                 id="g10942"
                 transform="translate(470.5059,90.0186)">
                <path
                   inkscape:connector-curvature="0"
                   id="path10940"
                   style="fill:#000000;fill-opacity:1;fill-rule:nonzero;stroke:none"
                   d="m 0,0 c 0,-6.375 -97.445,-11.543 -217.65,-11.543 -120.206,0 -217.652,5.168 -217.652,11.543 0,6.375 97.446,11.543 217.652,11.543 C -97.445,11.543 0,6.375 0,0" />
              </g>
            </g>
          </g>
        </g>
        <g
           transform="translate(88.9023,178.0811)"
           id="g10948">
          <path
             inkscape:connector-curvature="0"
             id="path10950"
             style="fill:#85c7be;fill-opacity:1;fill-rule:nonzero;stroke:none"
             d="m 0,0 c -40.888,31.981 -67.827,79.566 -47.103,132.994 32.088,82.727 129.936,123.987 213.201,128.104 35.637,1.761 46.375,-11.7 62.221,-40.827 18.722,-34.412 71.57,-30.137 101.163,-53.444 22.322,-17.579 32.787,-48.851 33.063,-76.697 C 363.216,22.543 307.282,-25.551 246.437,-41.431 189.69,-56.242 126.908,-51.721 70.833,-35.994 46.625,-29.204 21.401,-16.739 0,0" />
        </g>
      </g>
    </g>
    <g
       transform="matrix(1.3333333,0,0,-1.3333333,236.90277,309.83741)"
       id="g10952">
      <path
         inkscape:connector-curvature="0"
         id="path10954"
         style="fill:#401671;fill-opacity:1;fill-rule:nonzero;stroke:none"
         d="m 0,0 -25.344,64.56 2.976,1.168 25.344,-64.56 z" />
    </g>
    <g
       transform="matrix(1.3333333,0,0,-1.3333333,662.6633,327.28928)"
       id="g10956">
      <path
         inkscape:connector-curvature="0"
         id="path10958"
         style="fill:#ffffff;fill-opacity:1;fill-rule:nonzero;stroke:none"
         d="m 0,0 -297.36,0.303 15.155,107.67 14.81,7.988 z" />
    </g>
    <g
       transform="matrix(1.3333333,0,0,-1.3333333,207.60597,223.54381)"
       id="g10960">
      <path
         inkscape:connector-curvature="0"
         id="path10962"
         style="fill:#401671;fill-opacity:1;fill-rule:nonzero;stroke:none"
         d="m 0,0 3.543,-9.026 37.816,36.52 -3.831,7.773 z M 2.318,-14.654 -3.767,0.847 50.3,51.657 52.489,49.327 39.963,37.556 45.257,26.815 Z" />
    </g>
    <g
       transform="matrix(1.3333333,0,0,-1.3333333,116.13851,620.68247)"
       id="g10964">
      <g
         clip-path="url(#clipPath10970)"
         id="g10966">
        <g
           transform="translate(156.8418,333.481)"
           id="g10972">
          <path
             inkscape:connector-curvature="0"
             id="path10974"
             style="fill:#321c8c;fill-opacity:1;fill-rule:nonzero;stroke:none"
             d="m 0,0 c -4.095,7.645 -12.422,11.567 -20.537,10.424 l -6.164,11.509 c -1.983,3.703 -6.592,5.097 -10.295,3.113 -3.702,-1.983 -5.096,-6.591 -3.113,-10.294 l 6.195,-11.568 c -5.348,-6.12 -6.65,-15.145 -2.586,-22.733 z" />
        </g>
        <g
           transform="translate(100.9307,227.4707)"
           id="g10976">
          <path
             inkscape:connector-curvature="0"
             id="path10978"
             style="fill:#321c8c;fill-opacity:1;fill-rule:nonzero;stroke:none"
             d="M 0,0 V 0.018 H 0.124 L 0,8.032 H -17.851 V 0 H -28.858 V -7.123 H 11.603 V 0 Z" />
        </g>
        <g
           id="g10980">
          <g
             id="g10982" />
          <g
             id="g10994">
            <g
               style="opacity:0.14999402"
               id="g10992"
               clip-path="url(#clipPath10986)">
              <g
                 id="g10990"
                 transform="translate(125.7905,353.9565)">
                <path
                   inkscape:connector-curvature="0"
                   id="path10988"
                   style="fill:#ffffff;fill-opacity:1;fill-rule:nonzero;stroke:none"
                   d="m 0,0 6.561,-12.25 c 8.232,1.159 16.668,-2.582 21.214,-9.98 l 3.276,1.754 c -4.094,7.645 -12.422,11.567 -20.537,10.424 L 4.35,1.458 C 2.367,5.16 -2.242,6.554 -5.945,4.571 -6.134,4.469 -6.314,4.356 -6.491,4.242 -3.84,4.027 -1.349,2.519 0,0" />
              </g>
            </g>
          </g>
        </g>
        <g
           transform="translate(373.5762,254.7812)"
           id="g10996">
          <path
             inkscape:connector-curvature="0"
             id="path10998"
             style="fill:#e6e0ff;fill-opacity:1;fill-rule:nonzero;stroke:none"
             d="m 0,0 h -36.896 c 3.52,-3.02 5.752,-7.496 5.752,-12.497 0,-9.093 -7.371,-16.464 -16.463,-16.464 h -11.307 c -1.096,0 -1.984,-0.889 -1.984,-1.984 0,-1.095 0.888,-1.984 1.984,-1.984 H 0 c 9.093,0 16.464,7.371 16.464,16.465 C 16.464,-7.371 9.093,0 0,0" />
        </g>
        <g
           transform="translate(373.7314,220.0674)"
           id="g11000">
          <path
             inkscape:connector-curvature="0"
             id="path11002"
             style="fill:#c9c4e5;fill-opacity:1;fill-rule:nonzero;stroke:none"
             d="m 0,0 h -60.01 c -0.986,0 -1.785,0.799 -1.785,1.785 0,0.986 0.799,1.785 1.785,1.785 H 0 c 8.095,0 14.68,6.585 14.68,14.68 0,8.094 -6.585,14.678 -14.68,14.678 -0.986,0 -1.785,0.8 -1.785,1.786 0,0.986 0.799,1.785 1.785,1.785 10.063,0 18.25,-8.187 18.25,-18.249 C 18.25,8.187 10.063,0 0,0" />
        </g>
        <g
           id="g11004">
          <g
             id="g11006" />
          <g
             id="g11018">
            <g
               style="opacity:0.19000202"
               id="g11016"
               clip-path="url(#clipPath11010)">
              <g
                 id="g11014"
                 transform="translate(342.3154,244.2363)">
                <path
                   inkscape:connector-curvature="0"
                   id="path11012"
                   style="fill:#000000;fill-opacity:1;fill-rule:nonzero;stroke:none"
                   d="m 0,0 h 48.675 c -2.464,7.165 -9.268,12.33 -17.259,12.33 -0.986,0 -1.785,-0.799 -1.785,-1.785 H -5.635 C -2.58,7.924 -0.498,4.205 0,0" />
              </g>
            </g>
          </g>
        </g>
        <g
           transform="translate(283.8076,251.104)"
           id="g11020">
          <path
             inkscape:connector-curvature="0"
             id="path11022"
             style="fill:#330ec9;fill-opacity:1;fill-rule:nonzero;stroke:none"
             d="m 0,0 h 144.009 c 3.374,0 6.204,2.735 6.322,6.108 l 3.303,94.596 c 0.118,3.373 -2.522,6.108 -5.895,6.108 H 3.729 c -3.373,0 -6.203,-2.735 -6.321,-6.108 L -5.896,6.108 C -6.013,2.735 -3.374,0 0,0" />
        </g>
        <g
           transform="translate(278.4287,272.0098)"
           id="g11024">
          <path
             inkscape:connector-curvature="0"
             id="path11026"
             style="fill:#c9c4e5;fill-opacity:1;fill-rule:nonzero;stroke:none"
             d="m 0,0 -0.517,-14.797 c -0.117,-3.374 2.522,-6.109 5.896,-6.109 h 144.009 c 3.374,0 6.204,2.735 6.322,6.109 L 156.227,0 Z" />
        </g>
        <g
           transform="translate(279.4844,251.104)"
           id="g11028">
          <path
             inkscape:connector-curvature="0"
             id="path11030"
             style="fill:#4929cf;fill-opacity:1;fill-rule:nonzero;stroke:none"
             d="m 0,0 h 144.01 c 3.373,0 6.204,2.735 6.321,6.108 l 3.304,94.596 c 0.117,3.373 -2.522,6.108 -5.896,6.108 H 3.73 c -3.374,0 -6.204,-2.735 -6.322,-6.108 L -5.895,6.108 C -6.013,2.735 -3.373,0 0,0" />
        </g>
        <g
           transform="translate(280.3652,271.9175)"
           id="g11032">
          <path
             inkscape:connector-curvature="0"
             id="path11034"
             style="fill:#ffffff;fill-opacity:1;fill-rule:nonzero;stroke:none"
             d="m 0,0 h 143.801 l 2.827,80.955 H 2.827 Z" />
        </g>
        <g
           transform="translate(274.1064,272.0098)"
           id="g11036">
          <path
             inkscape:connector-curvature="0"
             id="path11038"
             style="fill:#e6e0ff;fill-opacity:1;fill-rule:nonzero;stroke:none"
             d="m 0,0 -0.517,-14.797 c -0.118,-3.374 2.522,-6.109 5.895,-6.109 h 144.01 c 3.373,0 6.204,2.735 6.321,6.109 L 156.226,0 Z" />
        </g>
        <g
           transform="translate(348.041,262.0332)"
           id="g11040">
          <path
             inkscape:connector-curvature="0"
             id="path11042"
             style="fill:#c9c4e5;fill-opacity:1;fill-rule:nonzero;stroke:none"
             d="M 0,0 C -0.075,-2.143 1.602,-3.88 3.744,-3.88 5.887,-3.88 7.685,-2.143 7.76,0 7.834,2.143 6.158,3.88 4.015,3.88 1.872,3.88 0.074,2.143 0,0" />
        </g>
        <g
           transform="translate(424.2549,274.437)"
           id="g11044">
          <path
             inkscape:connector-curvature="0"
             id="path11046"
             style="fill:#e6e0ff;fill-opacity:1;fill-rule:nonzero;stroke:none"
             d="m 0,0 h -138.796 l 2.52,72.133 H 2.519 Z" />
        </g>
        <g
           transform="translate(426.6543,343.1416)"
           id="g11048">
          <path
             inkscape:connector-curvature="0"
             id="path11050"
             style="fill:#24004d;fill-opacity:1;fill-rule:nonzero;stroke:none"
             d="m 0,0 h -144.031 l 0.339,9.709 H 0.339 Z" />
        </g>
        <g
           transform="translate(425.4121,307.5757)"
           id="g11052">
          <path
             inkscape:connector-curvature="0"
             id="path11054"
             style="fill:#310f57;fill-opacity:1;fill-rule:nonzero;stroke:none"
             d="m 0,0 h -15.339 l 1.242,35.566 H 1.242 Z" />
        </g>
        <g
           transform="translate(423.4922,346.144)"
           id="g11056">
          <path
             inkscape:connector-curvature="0"
             id="path11058"
             style="fill:#4929cf;fill-opacity:1;fill-rule:nonzero;stroke:none"
             d="m 0,0 c -0.117,0 -0.233,0.045 -0.321,0.136 l -2.714,2.812 c -0.171,0.177 -0.166,0.46 0.012,0.632 0.175,0.171 0.458,0.167 0.63,-0.012 L 0.321,0.756 C 0.492,0.579 0.487,0.296 0.31,0.125 0.224,0.042 0.111,0 0,0" />
        </g>
        <g
           transform="translate(420.6807,346.144)"
           id="g11060">
          <path
             inkscape:connector-curvature="0"
             id="path11062"
             style="fill:#4929cf;fill-opacity:1;fill-rule:nonzero;stroke:none"
             d="m 0,0 c -0.117,0 -0.233,0.045 -0.321,0.136 -0.171,0.177 -0.166,0.46 0.01,0.631 L 2.6,3.579 C 2.778,3.752 3.059,3.747 3.231,3.568 3.402,3.391 3.397,3.108 3.221,2.938 L 0.311,0.125 C 0.224,0.042 0.111,0 0,0" />
        </g>
        <g
           transform="translate(405.6445,326.0552)"
           id="g11064">
          <path
             inkscape:connector-curvature="0"
             id="path11066"
             style="fill:#24004d;fill-opacity:1;fill-rule:nonzero;stroke:none"
             d="m 0,0 h -29.597 l 0.138,3.926 H 0.138 Z" />
        </g>
        <g
           transform="translate(405.1309,311.3433)"
           id="g11068">
          <path
             inkscape:connector-curvature="0"
             id="path11070"
             style="fill:#4929cf;fill-opacity:1;fill-rule:nonzero;stroke:none"
             d="m 0,0 h -29.597 l 0.549,15.704 H 0.549 Z" />
        </g>
        <g
           transform="translate(310.0264,313.6284)"
           id="g11072">
          <path
             inkscape:connector-curvature="0"
             id="path11074"
             style="fill:#24004d;fill-opacity:1;fill-rule:nonzero;stroke:none"
             d="m 0,0 h -17.457 l 0.081,2.316 H 0.08 Z" />
        </g>
        <g
           transform="translate(309.7227,304.9512)"
           id="g11076">
          <path
             inkscape:connector-curvature="0"
             id="path11078"
             style="fill:#4929cf;fill-opacity:1;fill-rule:nonzero;stroke:none"
             d="m 0,0 h -17.456 l 0.323,9.262 H 0.323 Z" />
        </g>
        <g
           transform="translate(309.6416,302.6357)"
           id="g11080">
          <path
             inkscape:connector-curvature="0"
             id="path11082"
             style="fill:#24004d;fill-opacity:1;fill-rule:nonzero;stroke:none"
             d="m 0,0 h -17.456 l 0.081,2.315 H 0.081 Z" />
        </g>
        <g
           transform="translate(309.3389,293.958)"
           id="g11084">
          <path
             inkscape:connector-curvature="0"
             id="path11086"
             style="fill:#4929cf;fill-opacity:1;fill-rule:nonzero;stroke:none"
             d="m 0,0 h -17.456 l 0.323,9.263 H 0.323 Z" />
        </g>
        <g
           transform="translate(415.1797,347.0161)"
           id="g11088">
          <path
             inkscape:connector-curvature="0"
             id="path11090"
             style="fill:#4929cf;fill-opacity:1;fill-rule:nonzero;stroke:none"
             d="m 0,0 h 1.96 l 0.068,1.96 h -1.96 z m 2.821,-0.893 h -3.745 l 0.131,3.746 h 3.745 z" />
        </g>
        <g
           transform="translate(424.1699,272.0098)"
           id="g11092">
          <path
             inkscape:connector-curvature="0"
             id="path11094"
             style="fill:#24004d;fill-opacity:1;fill-rule:nonzero;stroke:none"
             d="m 0,0 h -144.031 l 0.17,4.854 H 0.17 Z" />
        </g>
        <g
           transform="translate(287.1094,276.8643)"
           id="g11096">
          <path
             inkscape:connector-curvature="0"
             id="path11098"
             style="fill:#401671;fill-opacity:1;fill-rule:nonzero;stroke:none"
             d="m 0,0 h -6.801 l 2.315,66.277 h 6.8 z" />
        </g>
        <g
           transform="translate(287.6504,337.1812)"
           id="g11100">
          <path
             inkscape:connector-curvature="0"
             id="path11102"
             style="fill:#4929cf;fill-opacity:1;fill-rule:nonzero;stroke:none"
             d="m 0,0 h -3.67 l 0.128,3.67 h 3.67 z" />
        </g>
        <g
           transform="translate(287.418,330.5361)"
           id="g11104">
          <path
             inkscape:connector-curvature="0"
             id="path11106"
             style="fill:#4929cf;fill-opacity:1;fill-rule:nonzero;stroke:none"
             d="m 0,0 h -3.67 l 0.129,3.67 h 3.669 z" />
        </g>
        <g
           transform="translate(287.1865,323.8911)"
           id="g11108">
          <path
             inkscape:connector-curvature="0"
             id="path11110"
             style="fill:#4929cf;fill-opacity:1;fill-rule:nonzero;stroke:none"
             d="m 0,0 h -3.67 l 0.128,3.669 h 3.67 z" />
        </g>
        <g
           transform="translate(286.9541,317.2456)"
           id="g11112">
          <path
             inkscape:connector-curvature="0"
             id="path11114"
             style="fill:#4929cf;fill-opacity:1;fill-rule:nonzero;stroke:none"
             d="m 0,0 h -3.67 l 0.128,3.67 h 3.67 z" />
        </g>
        <g
           transform="translate(286.7217,310.6006)"
           id="g11116">
          <path
             inkscape:connector-curvature="0"
             id="path11118"
             style="fill:#4929cf;fill-opacity:1;fill-rule:nonzero;stroke:none"
             d="m 0,0 h -3.669 l 0.128,3.67 h 3.67 z" />
        </g>
        <g
           transform="translate(286.4902,303.9551)"
           id="g11120">
          <path
             inkscape:connector-curvature="0"
             id="path11122"
             style="fill:#4929cf;fill-opacity:1;fill-rule:nonzero;stroke:none"
             d="m 0,0 h -3.67 l 0.128,3.67 h 3.67 z" />
        </g>
        <g
           transform="translate(426.4014,335.8921)"
           id="g11124">
          <path
             inkscape:connector-curvature="0"
             id="path11126"
             style="fill:#4929cf;fill-opacity:1;fill-rule:nonzero;stroke:none"
             d="m 0,0 h -15.34 l 0.047,1.339 h 15.34 z" />
        </g>
        <g
           transform="translate(426.1475,328.6426)"
           id="g11128">
          <path
             inkscape:connector-curvature="0"
             id="path11130"
             style="fill:#4929cf;fill-opacity:1;fill-rule:nonzero;stroke:none"
             d="m 0,0 h -15.339 l 0.047,1.339 H 0.047 Z" />
        </g>
        <g
           transform="translate(425.8945,321.3926)"
           id="g11132">
          <path
             inkscape:connector-curvature="0"
             id="path11134"
             style="fill:#4929cf;fill-opacity:1;fill-rule:nonzero;stroke:none"
             d="m 0,0 h -15.339 l 0.047,1.339 H 0.047 Z" />
        </g>
        <g
           transform="translate(425.6416,314.1431)"
           id="g11136">
          <path
             inkscape:connector-curvature="0"
             id="path11138"
             style="fill:#4929cf;fill-opacity:1;fill-rule:nonzero;stroke:none"
             d="m 0,0 h -15.339 l 0.047,1.339 H 0.047 Z" />
        </g>
        <g
           transform="translate(367.9492,283.3843)"
           id="g11140">
          <path
             inkscape:connector-curvature="0"
             id="path11142"
             style="fill:#ffffff;fill-opacity:1;fill-rule:nonzero;stroke:none"
             d="m 0,0 h -53.237 l 1.858,53.237 H 1.859 Z" />
        </g>
        <g
           transform="translate(344.875,308.8257)"
           id="g11144">
          <path
             inkscape:connector-curvature="0"
             id="path11146"
             style="fill:#85c7be;fill-opacity:1;fill-rule:nonzero;stroke:none"
             d="M 0,0 -2.983,8.131 -6.533,0 Z M 1.92,-5.299 H -8.824 l -2.169,-4.937 h -7.332 L -6.222,15.173 H 0.856 L 11.222,-10.236 H 3.744 Z" />
        </g>
        <g
           transform="translate(328.7812,322.6987)"
           id="g11148">
          <path
             inkscape:connector-curvature="0"
             id="path11150"
             style="fill:#4929cf;fill-opacity:1;fill-rule:nonzero;stroke:none"
             d="m 0,0 h -2.6 l 0.091,2.6 h 2.6 z" />
        </g>
        <g
           transform="translate(357.9941,322.6987)"
           id="g11152">
          <path
             inkscape:connector-curvature="0"
             id="path11154"
             style="fill:#4929cf;fill-opacity:1;fill-rule:nonzero;stroke:none"
             d="m 0,0 h -2.6 l 0.091,2.6 h 2.6 z" />
        </g>
        <g
           transform="translate(357.1143,297.5054)"
           id="g11156">
          <path
             inkscape:connector-curvature="0"
             id="path11158"
             style="fill:#4929cf;fill-opacity:1;fill-rule:nonzero;stroke:none"
             d="m 0,0 h -2.6 l 0.091,2.6 h 2.6 z" />
        </g>
        <g
           transform="translate(327.9023,297.5054)"
           id="g11160">
          <path
             inkscape:connector-curvature="0"
             id="path11162"
             style="fill:#4929cf;fill-opacity:1;fill-rule:nonzero;stroke:none"
             d="M 0,0 H -2.601 L -2.51,2.6 H 0.091 Z" />
        </g>
        <g
           transform="translate(326.9336,299.082)"
           id="g11164">
          <path
             inkscape:connector-curvature="0"
             id="path11166"
             style="fill:#4929cf;fill-opacity:1;fill-rule:nonzero;stroke:none"
             d="m 0,0 h 28.66 l 0.861,24.641 H 0.86 Z M 29.193,-0.553 H -0.572 l 0.899,25.746 h 29.766 z" />
        </g>
        <path
           inkscape:connector-curvature="0"
           id="path11168"
           style="fill:#401671;fill-opacity:1;fill-rule:nonzero;stroke:none"
           d="m 327.672,220.067 h -61.463 v 2.799 h 61.463 z" />
        <g
           transform="translate(297.4326,222.8555)"
           id="g11170">
          <path
             inkscape:connector-curvature="0"
             id="path11172"
             style="fill:#5d41d4;fill-opacity:1;fill-rule:nonzero;stroke:none"
             d="m 0,0 v 0 c -0.67,-0.138 -1.325,0.295 -1.462,0.965 l -0.645,3.157 c -0.138,0.67 0.295,1.325 0.964,1.462 C -0.472,5.722 0.183,5.289 0.32,4.618 L 0.966,1.462 C 1.104,0.791 0.671,0.137 0,0" />
        </g>
        <g
           transform="translate(298.001,226.2598)"
           id="g11174">
          <path
             inkscape:connector-curvature="0"
             id="path11176"
             style="fill:#401671;fill-opacity:1;fill-rule:nonzero;stroke:none"
             d="M 0,0 -2.428,-0.497 -6.973,21.72 c -0.137,0.671 0.295,1.325 0.966,1.463 0.67,0.137 1.325,-0.296 1.462,-0.966 z" />
        </g>
        <g
           transform="translate(119.9707,90.0186)"
           id="g11178">
          <path
             inkscape:connector-curvature="0"
             id="path11180"
             style="fill:#401671;fill-opacity:1;fill-rule:nonzero;stroke:none"
             d="m 0,0 h -5 v 87.382 c 0,13.881 -8.532,25.174 -19.019,25.174 h -4.399 c -10.487,0 -19.019,-11.293 -19.019,-25.174 V 0 h -5 v 87.382 c 0,16.638 10.775,30.174 24.019,30.174 h 4.399 C -10.775,117.556 0,104.02 0,87.382 Z" />
        </g>
        <path
           inkscape:connector-curvature="0"
           id="path11182"
           style="fill:#401671;fill-opacity:1;fill-rule:nonzero;stroke:none"
           d="m 96.15,205.074 h -4.795 v 12.368 h 4.795 z" />
        <g
           transform="translate(436.1123,90.0186)"
           id="g11184">
          <path
             inkscape:connector-curvature="0"
             id="path11186"
             style="fill:#401671;fill-opacity:1;fill-rule:nonzero;stroke:none"
             d="m 0,0 h -5 v 87.382 c 0,13.881 -8.531,25.174 -19.019,25.174 h -4.399 c -10.487,0 -19.019,-11.293 -19.019,-25.174 V 0 h -5 v 87.382 c 0,16.638 10.775,30.174 24.019,30.174 h 4.399 C -10.774,117.556 0,104.02 0,87.382 Z" />
        </g>
        <path
           inkscape:connector-curvature="0"
           id="path11188"
           style="fill:#401671;fill-opacity:1;fill-rule:nonzero;stroke:none"
           d="m 412.291,205.074 h -4.795 v 12.368 h 4.795 z" />
        <path
           inkscape:connector-curvature="0"
           id="path11190"
           style="fill:#4929cf;fill-opacity:1;fill-rule:nonzero;stroke:none"
           d="M 444.535,214.841 H 59.111 v 5.204 h 385.424 z" />
        <g
           transform="translate(249.2051,220.0684)"
           id="g11192">
          <path
             inkscape:connector-curvature="0"
             id="path11194"
             style="fill:#fe8770;fill-opacity:1;fill-rule:nonzero;stroke:none"
             d="m 0,0 h -21.928 c -3.697,0 -6.695,2.998 -6.695,6.695 0,3.698 2.998,6.696 6.695,6.696 H 0 c 3.697,0 6.695,-2.998 6.695,-6.696 C 6.695,2.998 3.697,0 0,0" />
        </g>
        <g
           transform="translate(239.7295,323.6284)"
           id="g11196">
          <path
             inkscape:connector-curvature="0"
             id="path11198"
             style="fill:#fe8d77;fill-opacity:1;fill-rule:nonzero;stroke:none"
             d="M 0,0 H -2.593 V 11.979 H 0.821 L 3.359,5.002 C 4.175,2.759 2.723,0.23 0.346,0.016 0.232,0.005 0.117,0 0,0" />
        </g>
        <g
           transform="translate(230.0405,303.1509)"
           id="g11200">
          <path
             inkscape:connector-curvature="0"
             id="path11202"
             style="fill:#fe9b88;fill-opacity:1;fill-rule:nonzero;stroke:none"
             d="M 0,0 H -12.816 V 44.377 H 10.507 C 10.905,44.377 9.938,14.802 9.598,12.086 8.919,6.66 6.54,0 0,0" />
        </g>
        <g
           id="g11204">
          <g
             id="g11206" />
          <g
             id="g11218">
            <g
               style="opacity:0.14999402"
               id="g11216"
               clip-path="url(#clipPath11210)">
              <g
                 id="g11214"
                 transform="translate(237.1362,347.5278)">
                <path
                   inkscape:connector-curvature="0"
                   id="path11212"
                   style="fill:#ffffff;fill-opacity:1;fill-rule:nonzero;stroke:none"
                   d="m 0,0 v -40.206 c 1.431,2.319 2.17,5.264 2.502,7.915 C 2.842,-29.575 3.81,0 3.412,0 Z" />
              </g>
            </g>
          </g>
        </g>
        <g
           transform="translate(218.1592,285.5557)"
           id="g11220">
          <path
             inkscape:connector-curvature="0"
             id="path11222"
             style="fill:#fe9b88;fill-opacity:1;fill-rule:nonzero;stroke:none"
             d="M 0,0 H -9.548 V 39.453 H 10.729 V 15.006 Z" />
        </g>
        <g
           transform="translate(216.2061,302.9097)"
           id="g11224">
          <path
             inkscape:connector-curvature="0"
             id="path11226"
             style="fill:#fe9b88;fill-opacity:1;fill-rule:nonzero;stroke:none"
             d="m 0,0 v 0 c -10.128,0 -18.338,8.21 -18.338,18.337 v 2.382 H 0 Z" />
        </g>
        <g
           transform="translate(216.4448,309.0996)"
           id="g11228">
          <path
             inkscape:connector-curvature="0"
             id="path11230"
             style="fill:#310f57;fill-opacity:1;fill-rule:nonzero;stroke:none"
             d="m 0,0 h -15.667 c -4.937,0 -8.94,4.003 -8.94,8.941 v 28.407 c 0,4.937 4.003,8.94 8.94,8.94 H 0 c 4.938,0 8.94,-4.003 8.94,-8.94 V 8.941 C 8.94,4.003 4.938,0 0,0" />
        </g>
        <g
           transform="translate(241.8101,371.4941)"
           id="g11232">
          <path
             inkscape:connector-curvature="0"
             id="path11234"
             style="fill:#310f57;fill-opacity:1;fill-rule:nonzero;stroke:none"
             d="m 0,0 c -3.519,0 -6.616,-1.797 -8.43,-4.522 h -23.565 c -5.268,0 -9.539,-4.271 -9.539,-9.54 v -14.614 h 39.581 c 5.362,0 10.207,3.679 11.637,8.85 0.524,1.889 0.666,3.894 0.601,5.845 -0.069,2.064 -0.012,4.122 -0.494,6.15 C 8.713,-3.299 4.704,0 0,0" />
        </g>
        <g
           transform="translate(224.8389,323.6284)"
           id="g11236">
          <path
             inkscape:connector-curvature="0"
             id="path11238"
             style="fill:#fe9b88;fill-opacity:1;fill-rule:nonzero;stroke:none"
             d="m 0,0 v 0 c -2.236,0 -4.049,1.813 -4.049,4.049 v 4.28 c 0,2.236 1.813,4.049 4.049,4.049 2.236,0 4.049,-1.813 4.049,-4.049 V 4.049 C 4.049,1.813 2.236,0 0,0" />
        </g>
        <g
           transform="translate(223.8301,328.7109)"
           id="g11240">
          <path
             inkscape:connector-curvature="0"
             id="path11242"
             style="fill:#310f57;fill-opacity:1;fill-rule:nonzero;stroke:none"
             d="M 0,0 H -3.39 V 20.459 H 9.351 V 9.351 C 9.351,4.187 5.164,0 0,0" />
        </g>
        <g
           transform="translate(241.0562,338.2295)"
           id="g11244">
          <path
             inkscape:connector-curvature="0"
             id="path11246"
             style="fill:#310f57;fill-opacity:1;fill-rule:nonzero;stroke:none"
             d="m 0,0 h -1.079 c -0.392,0 -0.711,0.318 -0.711,0.711 0,0.393 0.319,0.711 0.711,0.711 H 0 C 0.393,1.422 0.711,1.104 0.711,0.711 0.711,0.318 0.393,0 0,0" />
        </g>
        <g
           transform="translate(233.2881,324.8027)"
           id="g11248">
          <path
             inkscape:connector-curvature="0"
             id="path11250"
             style="fill:#310f57;fill-opacity:1;fill-rule:nonzero;stroke:none"
             d="M 0,0 V 18.016 L -4.4,8.657 V -24.241 H 0 c 4.795,0 8.682,3.887 8.682,8.682 v 6.877 c 0,1.678 -1.36,3.037 -3.037,3.037 C 2.527,-5.645 0,-3.117 0,0" />
        </g>
        <g
           id="g11252">
          <g
             id="g11254" />
          <g
             id="g11266">
            <g
               style="opacity:0.14999402"
               id="g11264"
               clip-path="url(#clipPath11258)">
              <g
                 id="g11262"
                 transform="translate(227.0908,338.0615)">
                <path
                   inkscape:connector-curvature="0"
                   id="path11260"
                   style="fill:#ffffff;fill-opacity:1;fill-rule:nonzero;stroke:none"
                   d="m 0,0 c 0,-4.225 -2.804,-7.792 -6.651,-8.951 v -0.4 h 3.39 C 1.903,-9.351 6.09,-5.164 6.09,0 V 4.757 H 0 Z" />
              </g>
            </g>
          </g>
        </g>
        <g
           id="g11268">
          <g
             id="g11270" />
          <g
             id="g11282">
            <g
               style="opacity:0.14999402"
               id="g11280"
               clip-path="url(#clipPath11274)">
              <g
                 id="g11278"
                 transform="translate(252.0947,357.5127)">
                <path
                   inkscape:connector-curvature="0"
                   id="path11276"
                   style="fill:#ffffff;fill-opacity:1;fill-rule:nonzero;stroke:none"
                   d="m 0,0 c -0.068,2.064 -0.012,4.123 -0.494,6.151 -1.077,4.532 -5.087,7.83 -9.791,7.83 -1.071,0 -2.104,-0.168 -3.073,-0.478 3.327,-1.063 5.937,-3.832 6.774,-7.352 0.482,-2.028 0.426,-4.087 0.495,-6.151 0.064,-1.951 -0.078,-3.955 -0.601,-5.845 -1.431,-5.17 -6.275,-8.849 -11.637,-8.849 h 6.09 c 5.362,0 10.206,3.679 11.636,8.849 C -0.077,-3.955 0.065,-1.951 0,0" />
              </g>
            </g>
          </g>
        </g>
        <g
           transform="translate(258.7412,217.3965)"
           id="g11284">
          <path
             inkscape:connector-curvature="0"
             id="path11286"
             style="fill:#fe9b88;fill-opacity:1;fill-rule:nonzero;stroke:none"
             d="m 0,0 c -14.181,0 -25.574,14.286 -31.371,27.614 -4.492,10.329 -8.008,19.98 -12.08,31.156 l -0.529,1.452 c -1.265,3.47 0.522,7.308 3.993,8.573 3.47,1.266 7.308,-0.524 8.573,-3.993 l 0.53,-1.454 c 3.997,-10.97 7.448,-20.444 11.779,-30.399 3.832,-8.81 12.552,-21.23 20.93,-19.365 7.71,1.728 25.166,7.888 25.341,7.949 l 0.752,0.218 c 5.478,1.24 12.444,1.075 13.222,1.05 3.692,-0.111 6.595,-3.193 6.485,-6.884 C 47.515,12.226 44.396,9.343 40.741,9.432 39.149,9.474 34.454,9.44 31.22,8.781 28.42,7.798 12.635,2.3 4.749,0.533 3.136,0.171 1.551,0 0,0" />
        </g>
        <g
           transform="translate(224.7495,244.5713)"
           id="g11288">
          <path
             inkscape:connector-curvature="0"
             id="path11290"
             style="fill:#85c7be;fill-opacity:1;fill-rule:nonzero;stroke:none"
             d="M 0,0 C -0.082,0.237 -8.275,23.909 -12.417,35.292 L 5.006,41.631 C 9.198,30.11 17.438,6.302 17.521,6.062 Z" />
        </g>
        <g
           transform="translate(222.8735,191.7656)"
           id="g11292">
          <path
             inkscape:connector-curvature="0"
             id="path11294"
             style="fill:#85c7be;fill-opacity:1;fill-rule:nonzero;stroke:none"
             d="m 0,0 -66.972,1.479 3.302,87.816 c 0.868,10.855 14.289,21.452 25.129,20.584 l 28.491,-2.28 C 0.79,106.731 8.874,97.228 8.005,86.374 Z" />
        </g>
        <g
           transform="translate(285.4609,99.2168)"
           id="g11296">
          <path
             inkscape:connector-curvature="0"
             id="path11298"
             style="fill:#fe9b88;fill-opacity:1;fill-rule:nonzero;stroke:none"
             d="M 0,0 -8.265,0.047 -9.433,23.109 2.693,23.041 3.348,3.311 C 3.338,1.472 1.839,-0.01 0,0" />
        </g>
        <g
           transform="translate(285.1621,101.7705)"
           id="g11300">
          <path
             inkscape:connector-curvature="0"
             id="path11302"
             style="fill:#24004d;fill-opacity:1;fill-rule:nonzero;stroke:none"
             d="m 0,0 -10.937,0.176 0.057,3.527 c 0.02,1.223 1.026,2.197 2.248,2.178 L -2.121,5.776 C -0.898,5.757 0.076,4.75 0.057,3.528 Z" />
        </g>
        <g
           transform="translate(297.1719,102.8291)"
           id="g11304">
          <path
             inkscape:connector-curvature="0"
             id="path11306"
             style="fill:#310f57;fill-opacity:1;fill-rule:nonzero;stroke:none"
             d="m 0,0 v 0 l -19.288,0.108 c -2.01,0.012 -3.649,-1.608 -3.66,-3.619 l -0.051,-9.121 22.928,-0.129 8.734,-0.05 0.023,4.027 C 8.713,-3.96 4.824,-0.027 0,0" />
        </g>
        <g
           transform="translate(290.0937,102.8359)"
           id="g11308">
          <path
             inkscape:connector-curvature="0"
             id="path11310"
             style="fill:#24004d;fill-opacity:1;fill-rule:nonzero;stroke:none"
             d="m 0,0 -0.019,0.033 -0.628,0.003 -15.203,0.086 -0.071,-12.761 15.201,-0.086 7.727,-0.043 1.008,-0.005 0.023,4.026 C 8.063,-4.142 4.519,-0.357 0,0" />
        </g>
        <g
           transform="translate(271.873,114.6973)"
           id="g11312">
          <path
             inkscape:connector-curvature="0"
             id="path11314"
             style="fill:#24004d;fill-opacity:1;fill-rule:nonzero;stroke:none"
             d="m 0,0 -2.144,53.637 c -1.393,7.496 -8.082,12.753 -15.74,12.331 l -0.363,-0.022 -0.363,0.005 c -13.329,0.171 -35.135,0.431 -36.885,0.407 l -0.573,20.81 c 1.661,0.061 26.429,-0.256 37.391,-0.397 18.41,0.875 34.406,-12.189 37.198,-30.495 l 0.088,-0.574 0.023,-0.581 2.169,-54.291 z" />
        </g>
        <g
           transform="translate(313.3691,142.2187)"
           id="g11316">
          <path
             inkscape:connector-curvature="0"
             id="path11318"
             style="fill:#fe9b88;fill-opacity:1;fill-rule:nonzero;stroke:none"
             d="m 0,0 -8.172,-1.232 -5.772,22.44 11.991,1.807 L 2.796,3.787 C 3.07,1.97 1.818,0.273 0,0" />
        </g>
        <g
           transform="translate(312.7783,144.709)"
           id="g11320">
          <path
             inkscape:connector-curvature="0"
             id="path11322"
             style="fill:#24004d;fill-opacity:1;fill-rule:nonzero;stroke:none"
             d="m 0,0 -10.932,-1.531 -0.234,1.677 c -0.311,2.214 1.232,4.26 3.446,4.57 l 2.916,0.408 c 2.213,0.311 4.259,-1.232 4.57,-3.446 z" />
        </g>
        <g
           transform="translate(324.3809,147.5977)"
           id="g11324">
          <path
             inkscape:connector-curvature="0"
             id="path11326"
             style="fill:#310f57;fill-opacity:1;fill-rule:nonzero;stroke:none"
             d="m 0,0 v 0 l -19.073,-2.875 c -1.988,-0.3 -3.356,-2.153 -3.056,-4.141 l 1.358,-9.019 22.673,3.416 8.637,1.302 -0.6,3.981 C 9.22,-2.565 4.771,0.719 0,0" />
        </g>
        <g
           transform="translate(317.3867,146.5098)"
           id="g11328">
          <path
             inkscape:connector-curvature="0"
             id="path11330"
             style="fill:#24004d;fill-opacity:1;fill-rule:nonzero;stroke:none"
             d="m 0,0 -0.023,0.03 -0.623,-0.093 -15.032,-2.266 1.902,-12.618 15.033,2.264 7.639,1.152 0.998,0.15 -0.6,3.982 C 8.607,-2.846 4.52,0.346 0,0" />
        </g>
        <g
           transform="translate(297.1133,153.6885)"
           id="g11332">
          <path
             inkscape:connector-curvature="0"
             id="path11334"
             style="fill:#310f57;fill-opacity:1;fill-rule:nonzero;stroke:none"
             d="m 0,0 c -0.075,0.407 -8.413,42.283 -30.112,42.283 -9.736,0 -46.345,-9.053 -67.133,-14.759 l -5.511,20.077 c 5.781,1.586 56.928,15.501 72.644,15.501 39.368,0 50.156,-56.96 50.596,-59.385 z" />
        </g>
        <g
           transform="translate(269.8145,169.1182)"
           id="g11336">
          <path
             inkscape:connector-curvature="0"
             id="path11338"
             style="fill:#24004d;fill-opacity:1;fill-rule:nonzero;stroke:none"
             d="m 0,0 c -1.184,7.762 -7.995,13.286 -15.826,12.831 l -1.133,11.777 C 16.901,34.646 17.768,21.575 20.58,3.14 Z" />
        </g>
        <g
           transform="translate(207.8882,177.7441)"
           id="g11340">
          <path
             inkscape:connector-curvature="0"
             id="path11342"
             style="fill:#310f57;fill-opacity:1;fill-rule:nonzero;stroke:none"
             d="m 0,0 h -29.555 c -9.733,0 -17.624,7.891 -17.624,17.625 V 48.487 H 19.389 V 19.39 C 19.389,8.681 10.708,0 0,0" />
        </g>
        <g
           transform="translate(198.7559,100.2168)"
           id="g11344">
          <path
             inkscape:connector-curvature="0"
             id="path11346"
             style="fill:#aca7c4;fill-opacity:1;fill-rule:nonzero;stroke:none"
             d="m 0,0 c -1.733,0 -3.138,1.405 -3.138,3.138 v 39.066 c 0,1.733 1.405,3.138 3.138,3.138 1.733,0 3.138,-1.405 3.138,-3.138 V 3.138 C 3.138,1.405 1.733,0 0,0" />
        </g>
        <g
           transform="translate(204.8018,90.0186)"
           id="g11348">
          <path
             inkscape:connector-curvature="0"
             id="path11350"
             style="fill:#4929cf;fill-opacity:1;fill-rule:nonzero;stroke:none"
             d="m 0,0 h -12.092 c -2.015,0 -3.649,1.634 -3.649,3.649 v 7.344 c 0,2.016 1.634,3.65 3.649,3.65 H 0 c 2.016,0 3.649,-1.634 3.649,-3.65 V 3.649 C 3.649,1.634 2.016,0 0,0" />
        </g>
        <g
           transform="translate(236.6914,100.2168)"
           id="g11352">
          <path
             inkscape:connector-curvature="0"
             id="path11354"
             style="fill:#aca7c4;fill-opacity:1;fill-rule:nonzero;stroke:none"
             d="m 0,0 c -1.733,0 -3.138,1.405 -3.138,3.138 v 3.913 l -34.79,-0.082 h -0.008 c -1.729,0 -3.133,1.399 -3.137,3.13 -0.004,1.733 1.397,3.141 3.13,3.145 l 37.936,0.09 H 0 c 0.831,0 1.628,-0.329 2.216,-0.916 0.59,-0.589 0.922,-1.389 0.922,-2.222 V 3.138 C 3.138,1.405 1.733,0 0,0" />
        </g>
        <g
           transform="translate(242.7373,90.0186)"
           id="g11356">
          <path
             inkscape:connector-curvature="0"
             id="path11358"
             style="fill:#4929cf;fill-opacity:1;fill-rule:nonzero;stroke:none"
             d="m 0,0 h -12.092 c -2.015,0 -3.649,1.634 -3.649,3.649 v 7.344 c 0,2.016 1.634,3.65 3.649,3.65 H 0 c 2.016,0 3.649,-1.634 3.649,-3.65 V 3.649 C 3.649,1.634 2.016,0 0,0" />
        </g>
        <g
           transform="translate(230.4814,104.6533)"
           id="g11360">
          <path
             inkscape:connector-curvature="0"
             id="path11362"
             style="fill:#321c8c;fill-opacity:1;fill-rule:nonzero;stroke:none"
             d="m 0,0 c -1.939,-0.087 -3.485,-1.682 -3.485,-3.642 v -7.343 c 0,-1.96 1.546,-3.555 3.485,-3.641 1.939,0.086 3.485,1.681 3.485,3.641 v 7.343 C 3.485,-1.682 1.939,-0.087 0,0" />
        </g>
        <g
           transform="translate(160.8921,100.2168)"
           id="g11364">
          <path
             inkscape:connector-curvature="0"
             id="path11366"
             style="fill:#aca7c4;fill-opacity:1;fill-rule:nonzero;stroke:none"
             d="m 0,0 c -1.733,0 -3.138,1.405 -3.138,3.138 v 7.058 c 0,0.833 0.332,1.633 0.922,2.222 0.59,0.589 1.35,0.927 2.223,0.916 l 37.936,-0.09 c 1.733,-0.004 3.134,-1.412 3.13,-3.145 -0.004,-1.73 -1.408,-3.13 -3.137,-3.13 H 37.928 L 3.138,7.051 V 3.138 C 3.138,1.405 1.733,0 0,0" />
        </g>
        <g
           transform="translate(154.8462,90.0186)"
           id="g11368">
          <path
             inkscape:connector-curvature="0"
             id="path11370"
             style="fill:#4929cf;fill-opacity:1;fill-rule:nonzero;stroke:none"
             d="m 0,0 h 12.092 c 2.015,0 3.649,1.634 3.649,3.649 v 7.344 c 0,2.016 -1.634,3.65 -3.649,3.65 H 0 c -2.016,0 -3.649,-0.569 -3.649,-2.584 V 4.715 C -3.649,2.7 -2.016,0 0,0" />
        </g>
        <g
           transform="translate(167.1021,104.6533)"
           id="g11372">
          <path
             inkscape:connector-curvature="0"
             id="path11374"
             style="fill:#321c8c;fill-opacity:1;fill-rule:nonzero;stroke:none"
             d="m 0,0 c 1.939,-0.087 3.485,-1.682 3.485,-3.642 v -7.343 c 0,-1.96 -1.546,-3.555 -3.485,-3.641 -1.939,0.086 -3.485,1.681 -3.485,3.641 v 7.343 c 0,1.96 1.546,3.555 3.485,3.642" />
        </g>
        <g
           transform="translate(198.7559,129.5303)"
           id="g11376">
          <path
             inkscape:connector-curvature="0"
             id="path11378"
             style="fill:#4929cf;fill-opacity:1;fill-rule:nonzero;stroke:none"
             d="m 0,0 c -2.599,0 -4.707,2.106 -4.707,4.706 v 38 c 0,2.6 2.108,4.706 4.707,4.706 2.599,0 4.707,-2.106 4.707,-4.706 v -38 C 4.707,2.106 2.599,0 0,0" />
        </g>
        <path
           inkscape:connector-curvature="0"
           id="path11380"
           style="fill:#321c8c;fill-opacity:1;fill-rule:nonzero;stroke:none"
           d="m 205.815,122.47 h -14.119 v 30.767 h 14.119 z" />
        <g
           transform="translate(235.022,159.3369)"
           id="g11382">
          <path
             inkscape:connector-curvature="0"
             id="path11384"
             style="fill:#321c8c;fill-opacity:1;fill-rule:nonzero;stroke:none"
             d="m 0,0 h -84.876 c -2.633,0 -4.768,2.134 -4.768,4.768 V 9.674 H 4.907 V 4.906 C 4.907,2.196 2.71,0 0,0" />
        </g>
        <path
           inkscape:connector-curvature="0"
           id="path11386"
           style="fill:#e6e0ff;fill-opacity:1;fill-rule:nonzero;stroke:none"
           d="m 239.929,165.699 h -94.551 v 15.688 h 94.551 z" />
        <g
           transform="translate(255.0977,170.0693)"
           id="g11388">
          <path
             inkscape:connector-curvature="0"
             id="path11390"
             style="fill:#c9c4e5;fill-opacity:1;fill-rule:nonzero;stroke:none"
             d="m 0,0 -15.169,-4.37 v 15.687 h 14.028 c 2.276,0 4.121,-1.844 4.121,-4.12 V 3.96 C 2.98,2.124 1.765,0.509 0,0" />
        </g>
        <g
           transform="translate(230.4121,191.0098)"
           id="g11392">
          <path
             inkscape:connector-curvature="0"
             id="path11394"
             style="fill:#c9c4e5;fill-opacity:1;fill-rule:nonzero;stroke:none"
             d="m 0,0 h -73.73 l -3.529,101.046 h 73.73 z" />
        </g>
        <g
           transform="translate(218.3843,191.0098)"
           id="g11396">
          <path
             inkscape:connector-curvature="0"
             id="path11398"
             style="fill:#e6e0ff;fill-opacity:1;fill-rule:nonzero;stroke:none"
             d="m 0,0 h -73.73 l -3.529,101.046 h 73.731 z" />
        </g>
        <g
           transform="translate(210.5518,196.3857)"
           id="g11400">
          <path
             inkscape:connector-curvature="0"
             id="path11402"
             style="fill:#c9c4e5;fill-opacity:1;fill-rule:nonzero;stroke:none"
             d="m 0,0 h -57.958 c -1.445,0 -2.656,1.171 -2.707,2.614 l -2.97,85.065 c -0.051,1.444 1.079,2.614 2.523,2.614 h 57.959 c 1.444,0 2.655,-1.17 2.706,-2.614 L 2.523,2.614 C 2.574,1.171 1.444,0 0,0" />
        </g>
        <g
           transform="translate(210.3296,297.7012)"
           id="g11404">
          <path
             inkscape:connector-curvature="0"
             id="path11406"
             style="fill:#c9c4e5;fill-opacity:1;fill-rule:nonzero;stroke:none"
             d="m 0,0 h -49.327 l -1.076,30.824 h 49.327 z" />
        </g>
        <g
           transform="translate(202.2827,297.7012)"
           id="g11408">
          <path
             inkscape:connector-curvature="0"
             id="path11410"
             style="fill:#e6e0ff;fill-opacity:1;fill-rule:nonzero;stroke:none"
             d="m 0,0 h -49.327 l -1.076,30.824 h 49.327 z" />
        </g>
        <g
           transform="translate(183.9082,277.5049)"
           id="g11412">
          <path
             inkscape:connector-curvature="0"
             id="path11414"
             style="fill:#4929cf;fill-opacity:1;fill-rule:nonzero;stroke:none"
             d="m 0,0 h -10.337 c -1.444,0 -2.656,1.17 -2.706,2.615 l -1.091,31.25 c -0.051,1.444 1.079,2.614 2.523,2.614 h 10.337 c 1.444,0 2.656,-1.17 2.706,-2.614 L 2.523,2.615 C 2.574,1.17 1.444,0 0,0" />
        </g>
        <g
           transform="translate(187.9644,155.3057)"
           id="g11416">
          <path
             inkscape:connector-curvature="0"
             id="path11418"
             style="fill:#4929cf;fill-opacity:1;fill-rule:nonzero;stroke:none"
             d="m 0,0 h -10.337 c -1.445,0 -2.615,1.171 -2.615,2.614 v 48.715 c 0,1.444 1.17,2.614 2.615,2.614 H 0 c 1.444,0 2.615,-1.17 2.615,-2.614 V 2.614 C 2.615,1.171 1.444,0 0,0" />
        </g>
        <g
           transform="translate(187.8179,306.6636)"
           id="g11420">
          <path
             inkscape:connector-curvature="0"
             id="path11422"
             style="fill:#4929cf;fill-opacity:1;fill-rule:nonzero;stroke:none"
             d="m 0,0 h -19.57 c -1.444,0 -2.656,1.17 -2.706,2.615 l -0.268,7.669 c -0.05,1.445 1.08,2.615 2.523,2.615 h 19.57 c 1.445,0 2.656,-1.17 2.706,-2.615 L 2.523,2.615 C 2.574,1.17 1.444,0 0,0" />
        </g>
        <g
           id="g11424">
          <g
             id="g11426" />
          <g
             id="g11438">
            <g
               style="opacity:0.19000202"
               id="g11436"
               clip-path="url(#clipPath11430)">
              <g
                 id="g11434"
                 transform="translate(185.6855,301.4878)">
                <path
                   inkscape:connector-curvature="0"
                   id="path11432"
                   style="fill:#000000;fill-opacity:1;fill-rule:nonzero;stroke:none"
                   d="m 0,0 h -15.567 l -0.181,5.176 h 15.567 z" />
              </g>
            </g>
          </g>
        </g>
      </g>
    </g>
  </g>
</svg>
