<?xml version="1.0" encoding="UTF-8" standalone="no"?>
<!-- Generator: Adobe Illustrator 19.0.0, SVG Export Plug-In . SVG Version: 6.00 Build 0)  -->

<svg
   xmlns:dc="http://purl.org/dc/elements/1.1/"
   xmlns:cc="http://creativecommons.org/ns#"
   xmlns:rdf="http://www.w3.org/1999/02/22-rdf-syntax-ns#"
   xmlns:svg="http://www.w3.org/2000/svg"
   xmlns="http://www.w3.org/2000/svg"
   xmlns:sodipodi="http://sodipodi.sourceforge.net/DTD/sodipodi-0.dtd"
   xmlns:inkscape="http://www.inkscape.org/namespaces/inkscape"
   version="1.1"
   id="Capa_1"
   x="0px"
   y="0px"
   viewBox="0 0 480 480"
   style="enable-background:new 0 0 480 480;"
   xml:space="preserve"
   sodipodi:docname="smalland logn.svg"
   inkscape:version="0.92.4 (5da689c313, 2019-01-14)"><metadata
   id="metadata1071"><rdf:RDF><cc:Work
       rdf:about=""><dc:format>image/svg+xml</dc:format><dc:type
         rdf:resource="http://purl.org/dc/dcmitype/StillImage" /><dc:title></dc:title></cc:Work></rdf:RDF></metadata><defs
   id="defs1069">
	
	
</defs><sodipodi:namedview
   pagecolor="#ffffff"
   bordercolor="#666666"
   borderopacity="1"
   objecttolerance="10"
   gridtolerance="10"
   guidetolerance="10"
   inkscape:pageopacity="0"
   inkscape:pageshadow="2"
   inkscape:window-width="1366"
   inkscape:window-height="705"
   id="namedview1067"
   showgrid="false"
   inkscape:zoom="0.27916667"
   inkscape:cx="752.55954"
   inkscape:cy="370.06635"
   inkscape:window-x="-8"
   inkscape:window-y="-8"
   inkscape:window-maximized="1"
   inkscape:current-layer="Capa_1" />



































<g
   id="g1036">
</g>
<g
   id="g1038">
</g>
<g
   id="g1040">
</g>
<g
   id="g1042">
</g>
<g
   id="g1044">
</g>
<g
   id="g1046">
</g>
<g
   id="g1048">
</g>
<g
   id="g1050">
</g>
<g
   id="g1052">
</g>
<g
   id="g1054">
</g>
<g
   id="g1056">
</g>
<g
   id="g1058">
</g>
<g
   id="g1060">
</g>
<g
   id="g1062">
</g>
<g
   id="g1064">
</g>
<g
   style="stroke:#0000ff"
   id="g1170"
   transform="translate(1370.2348,-68.626927)">
</g><g
   style="stroke:#0000ff"
   id="g1172"
   transform="translate(1370.2348,-68.626927)">
</g><g
   style="stroke:#0000ff"
   id="g1174"
   transform="translate(1370.2348,-68.626927)">
</g><g
   style="stroke:#0000ff"
   id="g1176"
   transform="translate(1370.2348,-68.626927)">
</g><g
   style="stroke:#0000ff"
   id="g1178"
   transform="translate(1370.2348,-68.626927)">
</g><g
   style="stroke:#0000ff"
   id="g1180"
   transform="translate(1370.2348,-68.626927)">
</g><g
   style="stroke:#0000ff"
   id="g1182"
   transform="translate(1370.2348,-68.626927)">
</g><g
   style="stroke:#0000ff"
   id="g1184"
   transform="translate(1370.2348,-68.626927)">
</g><g
   style="stroke:#0000ff"
   id="g1186"
   transform="translate(1370.2348,-68.626927)">
</g><g
   style="stroke:#0000ff"
   id="g1188"
   transform="translate(1370.2348,-68.626927)">
</g><g
   style="stroke:#0000ff"
   id="g1190"
   transform="translate(1370.2348,-68.626927)">
</g><g
   style="stroke:#0000ff"
   id="g1192"
   transform="translate(1370.2348,-68.626927)">
</g><g
   style="stroke:#0000ff"
   id="g1194"
   transform="translate(1370.2348,-68.626927)">
</g><g
   style="stroke:#0000ff"
   id="g1196"
   transform="translate(1370.2348,-68.626927)">
</g><g
   style="stroke:#0000ff"
   id="g1198"
   transform="translate(1370.2348,-68.626927)">
</g><path
   id="path1121"
   d="m 281.56793,392.70921 h -58.17921 a 14.544806,14.544806 0 0 0 -14.54481,14.5448 v 29.08961 a 14.544806,14.544806 0 0 0 14.54481,14.54479 h 58.17921 a 14.544806,14.544806 0 0 0 14.5448,-14.54479 v -29.08961 a 14.544806,14.544806 0 0 0 -14.5448,-14.5448 z M 19.761426,159.9923 h 43.634418 v 276.35132 a 14.544806,14.544806 0 0 0 14.544803,14.54479 h 29.089613 a 14.544806,14.544806 0 0 0 14.5448,-14.54479 V 159.9923 h 43.63443 c 12.91761,0 19.43549,-15.67203 10.28137,-24.82617 L 102.76681,47.897292 a 14.544806,14.544806 0 0 0 -20.562712,0 L 9.4800667,135.16613 C 0.35320137,144.30208 6.8256388,159.9923 19.761426,159.9923 Z m 378.164924,0 H 223.38872 a 14.544806,14.544806 0 0 0 -14.54481,14.5448 v 29.08962 a 14.544806,14.544806 0 0 0 14.54481,14.54481 h 174.53763 a 14.544806,14.544806 0 0 0 14.5448,-14.54481 V 174.5371 a 14.544806,14.544806 0 0 0 -14.5448,-14.5448 z m -58.17923,116.35845 h -116.3584 a 14.544806,14.544806 0 0 0 -14.54481,14.54481 v 29.08961 a 14.544806,14.544806 0 0 0 14.54481,14.5448 h 116.3584 a 14.544806,14.544806 0 0 0 14.5448,-14.5448 v -29.08961 a 14.544806,14.544806 0 0 0 -14.5448,-14.54481 z M 456.10557,43.633846 H 223.38872 a 14.544806,14.544806 0 0 0 -14.54481,14.544806 v 29.089612 a 14.544806,14.544806 0 0 0 14.54481,14.544806 h 232.71685 a 14.544806,14.544806 0 0 0 14.5448,-14.544806 V 58.178652 a 14.544806,14.544806 0 0 0 -14.5448,-14.544806 z"
   inkscape:connector-curvature="0"
   style="fill:#4e4e9d;fill-opacity:1;stroke-width:0.90905041" /></svg>