<?xml version="1.0" encoding="UTF-8" standalone="no"?>
<!-- Generator: Adobe Illustrator 19.0.0, SVG Export Plug-In . SVG Version: 6.00 Build 0)  -->

<svg
   xmlns:dc="http://purl.org/dc/elements/1.1/"
   xmlns:cc="http://creativecommons.org/ns#"
   xmlns:rdf="http://www.w3.org/1999/02/22-rdf-syntax-ns#"
   xmlns:svg="http://www.w3.org/2000/svg"
   xmlns="http://www.w3.org/2000/svg"
   xmlns:sodipodi="http://sodipodi.sourceforge.net/DTD/sodipodi-0.dtd"
   xmlns:inkscape="http://www.inkscape.org/namespaces/inkscape"
   version="1.1"
   id="Capa_1"
   x="0px"
   y="0px"
   viewBox="0 0 480 480"
   style="enable-background:new 0 0 480 480;"
   xml:space="preserve"
   sodipodi:docname="strtup.svg"
   inkscape:version="0.92.4 (5da689c313, 2019-01-14)"><metadata
   id="metadata1071"><rdf:RDF><cc:Work
       rdf:about=""><dc:format>image/svg+xml</dc:format><dc:type
         rdf:resource="http://purl.org/dc/dcmitype/StillImage" /><dc:title></dc:title></cc:Work></rdf:RDF></metadata><defs
   id="defs1069">
	
	
</defs><sodipodi:namedview
   pagecolor="#ffffff"
   bordercolor="#666666"
   borderopacity="1"
   objecttolerance="10"
   gridtolerance="10"
   guidetolerance="10"
   inkscape:pageopacity="0"
   inkscape:pageshadow="2"
   inkscape:window-width="1366"
   inkscape:window-height="705"
   id="namedview1067"
   showgrid="false"
   inkscape:zoom="0.27916667"
   inkscape:cx="752.55954"
   inkscape:cy="218.54599"
   inkscape:window-x="-8"
   inkscape:window-y="-8"
   inkscape:window-maximized="1"
   inkscape:current-layer="Capa_1" />



































<g
   id="g1036">
</g>
<g
   id="g1038">
</g>
<g
   id="g1040">
</g>
<g
   id="g1042">
</g>
<g
   id="g1044">
</g>
<g
   id="g1046">
</g>
<g
   id="g1048">
</g>
<g
   id="g1050">
</g>
<g
   id="g1052">
</g>
<g
   id="g1054">
</g>
<g
   id="g1056">
</g>
<g
   id="g1058">
</g>
<g
   id="g1060">
</g>
<g
   id="g1062">
</g>
<g
   id="g1064">
</g>
<g
   style="stroke:#0000ff"
   id="g1170"
   transform="translate(1370.2348,-68.626927)">
</g><g
   style="stroke:#0000ff"
   id="g1172"
   transform="translate(1370.2348,-68.626927)">
</g><g
   style="stroke:#0000ff"
   id="g1174"
   transform="translate(1370.2348,-68.626927)">
</g><g
   style="stroke:#0000ff"
   id="g1176"
   transform="translate(1370.2348,-68.626927)">
</g><g
   style="stroke:#0000ff"
   id="g1178"
   transform="translate(1370.2348,-68.626927)">
</g><g
   style="stroke:#0000ff"
   id="g1180"
   transform="translate(1370.2348,-68.626927)">
</g><g
   style="stroke:#0000ff"
   id="g1182"
   transform="translate(1370.2348,-68.626927)">
</g><g
   style="stroke:#0000ff"
   id="g1184"
   transform="translate(1370.2348,-68.626927)">
</g><g
   style="stroke:#0000ff"
   id="g1186"
   transform="translate(1370.2348,-68.626927)">
</g><g
   style="stroke:#0000ff"
   id="g1188"
   transform="translate(1370.2348,-68.626927)">
</g><g
   style="stroke:#0000ff"
   id="g1190"
   transform="translate(1370.2348,-68.626927)">
</g><g
   style="stroke:#0000ff"
   id="g1192"
   transform="translate(1370.2348,-68.626927)">
</g><g
   style="stroke:#0000ff"
   id="g1194"
   transform="translate(1370.2348,-68.626927)">
</g><g
   style="stroke:#0000ff"
   id="g1196"
   transform="translate(1370.2348,-68.626927)">
</g><g
   style="stroke:#0000ff"
   id="g1198"
   transform="translate(1370.2348,-68.626927)">
</g><g
   id="g1158"
   transform="matrix(0.90925666,0,0,0.90925666,-0.29145615,7.2297178)"
   style="stroke:#0000ff"><polygon
     id="polygon1132"
     points="169.668,220.869 169.668,313.626 170.521,313.882 170.606,313.882 212.334,272.069 297.668,272.069 339.396,313.882 339.481,313.882 340.334,313.626 340.334,220.869 297.668,169.669 212.334,169.669 "
     style="fill:#f44335;stroke:#0000ff" /><g
     id="g1138"
     style="stroke:#0000ff"><path
       id="path1134"
       d="m 502.468,297.669 c 0,105.045 -119.467,93.867 -119.467,170.667 v 25.6 c -0.014,4.707 -3.826,8.519 -8.533,8.533 H 255.001 v -85.333 c 0,-34.133 17.067,-102.4 76.8,-102.4 36.779,0 48.213,-57.173 72.619,-72.789 3.709,-2.58 8.111,-3.978 12.629,-4.011 h 0.085 c 15.36,0 21.504,12.373 23.979,24.064 1.107,-10.83 1.648,-21.711 1.621,-32.597 0,-62.123 5.547,-113.067 21.333,-130.304 3.16,-3.837 7.831,-6.11 12.8,-6.229 25.601,-0.001 25.601,42.666 25.601,204.799 z"
       style="fill:#bfa885;stroke:#0000ff"
       inkscape:connector-curvature="0" /><path
       id="path1136"
       d="m 255.001,417.136 v 85.333 H 135.534 c -4.707,-0.014 -8.519,-3.826 -8.533,-8.533 v -25.6 c 0,-76.8 -119.467,-65.621 -119.467,-170.667 0,-128.512 0,-181.931 12.8,-198.571 2.94,-4.105 7.755,-6.449 12.8,-6.229 25.6,0 34.133,59.733 34.133,136.533 0,2.901 0,5.803 0.085,8.533 0.256,8.704 0.768,16.64 1.536,24.064 1.126,-7.814 5.072,-14.947 11.093,-20.053 3.733,-2.725 8.265,-4.135 12.885,-4.011 34.133,0 42.667,76.8 85.333,76.8 59.735,10e-4 76.802,68.267 76.802,102.401 z"
       style="fill:#bfa885;stroke:#0000ff"
       inkscape:connector-curvature="0" /></g><g
     id="g1144"
     style="stroke:#0000ff"><path
       id="path1140"
       d="m 476.868,297.669 c 0,105.045 -119.467,93.867 -119.467,170.667 v 25.6 c -0.014,4.707 -3.826,8.519 -8.533,8.533 h -93.867 v -85.333 c 0,-34.133 17.067,-102.4 76.8,-102.4 36.779,0 48.213,-57.173 72.619,-72.789 4.181,-4.011 4.181,-4.011 12.629,-4.011 h 0.085 c 15.36,0 21.504,12.373 23.979,24.064 1.107,-10.83 1.648,-21.711 1.621,-32.597 0,-62.123 5.547,-113.067 21.333,-130.304 12.801,16.639 12.801,70.058 12.801,198.57 z"
       style="fill:#ffe0b2;stroke:#0000ff"
       inkscape:connector-curvature="0" /><path
       id="path1142"
       d="m 229.401,417.136 v 85.333 h -93.867 c -4.707,-0.014 -8.519,-3.826 -8.533,-8.533 v -25.6 c 0,-76.8 -119.467,-65.621 -119.467,-170.667 0,-128.512 0,-181.931 12.8,-198.571 15.787,17.237 21.333,68.181 21.333,130.304 -0.027,10.887 0.514,21.767 1.621,32.597 2.475,-11.691 8.619,-24.064 23.979,-24.064 h 0.085 c 0.256,8.704 0.768,16.64 1.536,24.064 1.126,-7.814 5.072,-14.947 11.093,-20.053 24.405,15.616 35.84,72.789 72.619,72.789 59.734,10e-4 76.801,68.267 76.801,102.401 z"
       style="fill:#ffe0b2;stroke:#0000ff"
       inkscape:connector-curvature="0" /></g><path
     id="path1146"
     d="m 297.668,84.336 h -85.333 c 0,-1.195 0,-2.389 0.085,-3.584 1.877,-27.051 23.381,-53.333 35.072,-65.792 4.523,-4.693 7.509,-7.424 7.509,-7.424 0,0 42.667,38.229 42.667,76.8 z"
     style="fill:#c52828;stroke:#0000ff"
     inkscape:connector-curvature="0" /><path
     id="path1148"
     d="m 272.068,84.336 h -59.733 c 0,-1.195 0,-2.389 0.085,-3.584 1.877,-27.051 23.381,-53.333 35.072,-65.792 8.533,12.97 24.576,41.045 24.576,69.376 z"
     style="fill:#f44335;stroke:#0000ff"
     inkscape:connector-curvature="0" /><rect
     id="rect1150"
     height="187.733"
     width="85.333"
     style="fill:#cfd8dc;stroke:#0000ff"
     y="84.335999"
     x="212.334" /><rect
     id="rect1152"
     height="187.733"
     width="59.733002"
     style="fill:#f5f5f5;stroke:#0000ff"
     y="84.335999"
     x="212.334" /><rect
     id="rect1154"
     height="42.667"
     width="25.6"
     style="fill:#283593;stroke:#0000ff"
     y="229.40199"
     x="272.06799" /><rect
     id="rect1156"
     height="42.667"
     width="59.733002"
     style="fill:#3f51b5;stroke:#0000ff"
     y="229.40199"
     x="212.334" /></g><g
   id="g1166"
   style="fill:#4e4e9d;fill-opacity:1;stroke:#0000ff"
   transform="matrix(0.90925666,0,0,0.90925666,6.5552465,14.079148)"><path
     id="path1160"
     d="m 477.868,85.336 c -29.108,0 -42.667,46.096 -42.667,145.067 0,1.658 -0.009,3.291 -0.033,4.904 -1.431,-0.951 -2.947,-1.766 -4.529,-2.436 -2.692,-1.136 -5.533,-1.88 -8.436,-2.21 -0.219,-0.027 -0.426,-0.048 -0.642,-0.07 -1.187,-0.114 -2.345,-0.188 -3.427,-0.188 -20.917,0 -33.058,19.975 -44.809,39.292 -6.062,11.563 -13.988,22.048 -23.458,31.034 V 221.87 c 0,-1.996 -0.699,-3.928 -1.975,-5.463 L 307.2,167.577 V 85.336 c 0,-41.887 -43.65,-81.488 -45.508,-83.154 -3.237,-2.908 -8.146,-2.908 -11.383,0 -1.858,1.667 -45.508,41.267 -45.508,83.154 v 82.241 l -40.692,48.83 c -1.276,1.534 -1.975,3.467 -1.975,5.463 v 78.859 c -9.47,-8.987 -17.396,-19.472 -23.458,-31.034 -11.75,-19.317 -23.892,-39.292 -44.809,-39.292 -1.081,0 -2.24,0.073 -3.427,0.188 l -0.64,0.07 c -4.629,0.498 -9.074,2.091 -12.966,4.646 -0.025,-1.612 -0.033,-3.245 -0.033,-4.903 0,-98.971 -13.558,-145.067 -42.667,-145.067 -34.133,0 -34.133,36.75 -34.133,213.333 0,61.242 37.492,85.917 70.567,107.683 26.242,17.271 48.9,32.183 48.9,62.983 v 25.6 c 0.011,9.421 7.645,17.056 17.067,17.067 h 238.933 c 9.421,-0.011 17.056,-7.646 17.067,-17.067 v -25.6 c 0,-30.8 22.658,-45.712 48.9,-62.983 C 474.51,384.586 512.002,359.911 512.002,298.67 512.001,122.086 512.001,85.336 477.868,85.336 Z m -256,153.6 h 68.267 v 25.6 h -68.267 z m 68.266,-17.067 h -68.267 v -128 h 68.267 z m -73.257,59.733 h 78.248 l 26.318,26.373 c -34.532,4.797 -55.066,31.424 -65.442,60.912 -10.377,-29.488 -30.91,-56.115 -65.442,-60.912 z m 115.924,-56.646 v 70.234 l -25.6,-25.654 V 194.24 Z m -76.8,-204.45 c 9.823,10.209 29.22,32.912 33.319,56.296 h -66.637 c 4.098,-23.384 23.495,-46.086 33.318,-56.296 z m -51.2,173.734 v 75.297 l -25.6,25.657 V 224.957 Z M 79.951,392.098 C 49.034,371.752 17.068,350.71 17.068,298.669 c 0,-138.813 0,-196.267 17.067,-196.267 4.275,0 25.6,6.171 25.6,128 -0.035,10.832 0.503,21.657 1.614,32.432 -1.117,6.193 -1.657,12.476 -1.614,18.768 0,36.992 56.292,86.308 62.717,91.813 3.58,3.05 8.953,2.629 12.014,-0.942 3.061,-3.571 2.656,-8.945 -0.905,-12.017 -15.792,-13.542 -56.758,-54.112 -56.758,-78.854 -0.093,-6.104 0.518,-12.199 1.822,-18.163 0.314,-1.314 0.643,-2.569 1.014,-3.672 0.254,-0.749 0.538,-1.44 0.826,-2.121 0.308,-0.74 0.618,-1.474 0.949,-2.109 0.583,-1.145 1.279,-2.229 2.077,-3.236 l 0.004,-0.005 c 2.514,-3.143 6.353,-4.929 10.376,-4.827 11.317,0 20.5,15.104 30.225,31.092 13.025,21.425 27.792,45.708 55.108,45.708 56,0 68.267,67.758 68.267,93.867 v 76.8 H 136.534 v -25.6 c 0,-39.996 -28.766,-58.93 -56.583,-77.238 z m 352.1,0 c -27.817,18.308 -56.583,37.242 -56.583,77.238 v 25.6 H 264.534 v -76.8 c 0,-26.108 12.267,-93.867 68.267,-93.867 27.317,0 42.083,-24.283 55.108,-45.708 9.725,-15.988 18.908,-31.092 30.225,-31.092 4.023,-0.102 7.862,1.684 10.376,4.827 l 0.004,0.005 c 0.797,1.007 1.493,2.091 2.077,3.236 0.331,0.635 0.641,1.369 0.949,2.109 0.289,0.681 0.572,1.371 0.826,2.121 0.37,1.104 0.7,2.359 1.014,3.672 1.304,5.964 1.915,12.059 1.822,18.163 0,24.742 -40.967,65.313 -56.758,78.854 -3.561,3.072 -3.966,8.446 -0.905,12.017 3.061,3.571 8.434,3.992 12.014,0.942 6.425,-5.504 62.717,-54.821 62.717,-91.813 0.043,-6.293 -0.497,-12.575 -1.614,-18.768 1.111,-10.775 1.649,-21.6 1.614,-32.432 0,-121.829 21.325,-128 25.6,-128 17.067,0 17.067,57.454 17.067,196.267 -0.003,52.042 -31.969,73.083 -62.886,93.429 z"
     inkscape:connector-curvature="0"
     style="fill:#4e4e9d;fill-opacity:1;stroke:#0000ff" /><path
     id="path1162"
     d="m 247.468,128.002 h 17.067 c 4.713,0 8.533,-3.821 8.533,-8.533 0,-4.713 -3.82,-8.533 -8.533,-8.533 h -17.067 c -4.713,0 -8.533,3.821 -8.533,8.533 -0.001,4.713 3.82,8.533 8.533,8.533 z"
     inkscape:connector-curvature="0"
     style="fill:#4e4e9d;fill-opacity:1;stroke:#0000ff" /><path
     id="path1164"
     d="m 247.468,162.136 h 17.067 c 4.713,0 8.533,-3.82 8.533,-8.533 0,-4.713 -3.82,-8.533 -8.533,-8.533 h -17.067 c -4.713,0 -8.533,3.821 -8.533,8.533 0,4.712 3.82,8.533 8.533,8.533 z"
     inkscape:connector-curvature="0"
     style="fill:#4e4e9d;fill-opacity:1;stroke:#0000ff" /></g></svg>